<?xml version="1.0" encoding="utf-8"?>
<!-- Generator: Adobe Illustrator 24.1.3, SVG Export Plug-In . SVG Version: 6.00 Build 0)  -->
<svg version="1.1" id="Calque_1" xmlns="http://www.w3.org/2000/svg" xmlns:xlink="http://www.w3.org/1999/xlink" x="0px" y="0px"
	 viewBox="0 0 190.8 174.5" style="enable-background:new 0 0 190.8 174.5;" xml:space="preserve">
<style type="text/css">
	.st0{fill:#FFFFFF;}
</style>
<g id="Calque_2_1_">
	<g id="Calque_1-2">
		<path class="st0" d="M169.9,67.8c0-0.4-0.1-0.8-0.1-1.4c-3.9,0.9-8,0.9-11.9,0c0,0.2-0.1,0.4-0.1,0.6c0,10.1,0,20.2,0,30.3
			c0.2,2.5,1.8,4.6,4.2,5.4c4.1,1.3,7.9-1.6,7.9-6.1c0-3.8,0-7.6,0-11.4C169.9,79.4,170,73.6,169.9,67.8z"/>
		<path class="st0" d="M23.8,46.3h11.7v-6.1H23.8V46.3z"/>
		<path class="st0" d="M17.9,41.3c0-0.3,0-0.6-0.1-0.9c-2.6-0.3-5.1-0.2-7.1,1.6c-2.9,2.4-4.7,6-4.8,9.8l-0.1,83.3
			c0,0.4,0,0.7,0,1.1c0.1,1.5,1.4,2.7,2.9,2.7c1.8,0,3.1-1.3,3.1-3.4c0-16.7,0-33.3,0-50c0-0.5,0.1-1,0.2-1.5l-0.3-2l1.8,0.5
			c1-0.5,2.1-0.5,3.1,0l1.1-0.5c0.1-1.3,0.2-2.7,0.3-4c-0.1-0.4-0.2-0.8-0.2-1.2C17.9,64.9,17.9,53.1,17.9,41.3z"/>
		<path class="st0" d="M24.8,76.1c-0.8,0-1.2,0.2-1.1,1.1c0.1,1.6,0,3.2,0,5H25c2.9,0,7.3,0,10.5,0v-6.1
			C32.3,76.1,27.8,76.1,24.8,76.1z"/>
		<path class="st0" d="M23.8,58.3h11.7v-6.1H23.8V58.3z"/>
		<path class="st0" d="M23.7,65.1c0,1.3,0.1,2.6,0,3.8c0,0.9,0.1,1.5,1.2,1.3c0.2,0,0.4,0.2,0.5,0.2c0.3-0.1,0.6-0.2,0.8-0.2h9.2
			v-6.2c-3.2,0-10,0-10.8,0S23.7,64.4,23.7,65.1z"/>
		<path class="st0" d="M137.3,27.8l-22.8,4.6c-5.4,1.1-10.7,2.3-16.3,2c-2.4,0-4.9-0.6-7-1.8c-1.4-0.9-2.9-1.8-4.8-1.1
			c0,0.3-0.1,0.7-0.1,1.1c0,5,0,10,0,15c0,1.8,0.9,2.4,2.7,1.6c0.2-0.1,0.4-0.2,0.6-0.3c3.1-1.8,6.3-3,10.1-2.6
			c2.3,0.3,4.7,0.2,7,0.5c1.8,0.2,3.7,0.7,5.5,1.1l22.6,4.5l5.8,1.2c-2.1-4.1-3.3-8.6-3.3-13.2c0-4.6,1.1-9.2,3.4-13.2L137.3,27.8z"
			/>
		<path class="st0" d="M163.7,31.3c-3.7,0.1-7.5,2.9-8.2,6h16.7C171.3,33.9,167.5,31.2,163.7,31.3z"/>
		<path class="st0" d="M164.2,19.4c-5.7-0.1-11.2,2.1-15.2,6.2c-5.1,5-6.9,11.3-6,18.1c0.7,4.6,3,8.9,6.5,12
			c3.7,3.6,8.7,5.6,13.9,5.6c11.6,1,21.7-7.6,22.7-19.2c1-11.6-7.6-21.7-19.2-22.7C166,19.3,165.1,19.3,164.2,19.4L164.2,19.4z
			 M163.9,55.2c-8.1,0-14.8-6.6-14.8-14.7c0-0.1,0-0.2,0-0.4c0.1-8.2,6.9-14.7,15.1-14.6c8.2,0.1,14.7,6.9,14.6,15.1
			C178.6,48.7,172,55.2,163.9,55.2z"/>
		<path class="st0" d="M164.1,49.4c3.8-0.1,7.6-2.9,8.1-6.1h-16.7C156.3,46.7,160.3,49.5,164.1,49.4z"/>
		<path class="st0" d="M187.4,27.7c-5.2-10-15.7-15.4-27.2-13.9c-4.6,0.6-9,2.4-12.7,5.3c-0.7,0.5-1.4,0.8-2.3,1
			c-2.4,0.6-4.8,1-7.2,1.5l-25.4,5.1c-4.2,0.8-8.3,1.8-12.6,1.8c-2.8,0.1-5.7-0.6-8.1-2.1c-0.8-0.6-1.8-0.9-2.7-1
			c-2.6-0.1-5.1,0-7.7-0.1c-0.8,0-1,0.2-1,1c0,9.3,0,18.5,0,27.8c0,0.8,0.2,1,1,1c2,0,3.9-0.1,5.8,0c1.8,0.2,3.5-0.3,5.1-1.2
			c2.2-1.2,4.7-1.9,7.2-1.8c4.3-0.2,8.3,0.8,12.5,1.7c10.2,2,20.5,4.1,30.7,6.1c1.4,0.2,2.8,0.7,4.1,1.2c1.4,0.7,2.7,1.8,4.1,2.6
			c0.7,0.3,1.1,1.1,1,1.8c0,10.5,0,21,0,31.5c0,5,3.2,9.4,7.9,11c0.7,0.1,1.1,0.8,1,1.5c0,4.3,0,8.6,0,12.9v1.2h5.9v-1.2
			c0-4.3,0-8.7,0-13c-0.1-0.6,0.3-1.3,0.9-1.4c1.4-0.6,2.8-1.4,4-2.4c2.9-2.4,4-5.7,4-9.4c0-10.3,0-20.5,0-30.8
			c-0.1-0.7,0.3-1.4,1-1.7c3.5-1.8,6.6-4.5,8.9-7.8C191.7,47,192.5,37.5,187.4,27.7z M140.6,53.6l-5.8-1.2l-22.6-4.5
			c-1.8-0.4-3.6-0.9-5.5-1.1c-2.3-0.3-4.7-0.2-7-0.5c-3.7-0.5-7,0.7-10.1,2.6c-0.2,0.1-0.4,0.2-0.6,0.3c-1.7,0.8-2.7,0.2-2.7-1.6
			c0-5,0-10,0-15c0-0.4,0-0.8,0.1-1.1c1.9-0.6,3.4,0.3,4.8,1.1c2.1,1.2,4.6,1.8,7,1.8c5.6,0.2,10.9-1,16.3-2l22.8-4.6l3.3-0.7
			c-2.3,4-3.4,8.6-3.4,13.2C137.3,45,138.4,49.5,140.6,53.6z M169.9,96.6c0,4.5-3.8,7.4-7.9,6.1c-2.4-0.8-4-2.9-4.2-5.4
			c0-10.1,0-20.2,0-30.3c0-0.2,0-0.4,0.1-0.6c3.9,0.9,8,0.9,11.9,0c0,0.5,0.1,1,0.1,1.4c0,5.8,0,11.6,0,17.4
			C170,89,170,92.8,169.9,96.6L169.9,96.6z M163.5,61.2c-5.2,0-10.1-2.1-13.9-5.6c-3.5-3.1-5.8-7.4-6.5-12c-0.9-6.8,0.9-13.1,6-18.1
			c4-4,9.5-6.3,15.1-6.2c11.6-0.6,21.4,8.4,22,19.9s-8.4,21.4-19.9,22C165.3,61.4,164.4,61.3,163.5,61.2L163.5,61.2z"/>
		<path class="st0" d="M35.5,52.2v-5.9l0,0V52.2z"/>
		<path class="st0" d="M25,82.2h-1.3c0-1.8,0-3.4,0-5c0-0.9,0.3-1.1,1.1-1.1c2.9,0,7.5,0,10.7,0v-5.7c-2.8,0-10.9,0-11,0
			c-0.7,0-0.9-0.6-0.8-1.3c0.1-1.3,0-2.6,0-3.8c0-0.8,0.2-1,1-1s7.6,0,10.8,0v-5.8H23.8v-6.1h11.7v-5.9H23.8v-6.1h11.7v-5.8h-1
			c-6.5,0-12.9,0-19.4,0c-2.7-0.1-5.3,0.8-7.4,2.4C3,40.4,0.2,45.9,0,51.8v83.7c0,0.8,0.1,1.7,0.3,2.5c1.3,4.7,6.1,7.6,10.9,6.3
			c4.1-1.1,6.8-4.9,6.6-9.1v-46c0-0.4,0-0.8,0.1-1.3h17.7v-5.8C32.3,82.2,27.9,82.2,25,82.2z M17.8,82L17.8,82
			c-0.6,0.3-1.3,0.3-1.9,0.2c-0.6-0.1-1.3-0.1-1.9,0.2c-0.2,0.1-0.4,0.1-0.6,0.2c-0.6,0.1-1.4,1-1.3,1.5c-0.1,0.5-0.1,1-0.2,1.5
			c0,16.7,0,33.3,0,50c0,2-1.3,3.4-3.1,3.4c-1.5,0-2.8-1.2-2.9-2.7c0-0.4,0-0.7,0-1.1l0-83.3C6,48,7.8,44.4,10.7,42
			c2-1.8,4.5-1.9,7.1-1.6c0,0.3,0.1,0.6,0.1,0.9c0,11.8,0,23.6,0,35.5c0,0.4,0.1,0.8,0.2,1.2C18,79.3,17.9,80.7,17.8,82z"/>
		<path class="st0" d="M42.4,40.2c2.6-0.3,5.1-0.8,7.6-1.5c3.4-1.2,6.4-3.3,8.8-6.1c1.1-1.3,2.1-2.6,3-4.1c1.4-2.2,2.4-4.6,3.8-6.8
			C73.6,9.9,87.7,3.9,101.7,6.4c7.1,1.2,13.6,4.6,18.7,9.7c1.5,1.5,2.8,3.1,4.3,4.8l4.6-3.3c-0.1-0.2-0.2-0.4-0.3-0.5
			c-4.5-6.2-10.6-11-17.7-13.9C90.6-5.4,66.8,4,57.4,24.4c-1.3,2.8-3.3,5.3-5.9,7c-2.9,2-6.4,3-9.9,3.1c0,1.8,0,3.5,0,5.3
			C41.7,39.9,42.2,40.3,42.4,40.2z"/>
		<path class="st0" d="M26.8,130.3c-4,3-6.8,7.3-7.8,12.1c-1.1,5.7-1.7,11.4-2.5,17.2c-0.5,3.2-0.9,6.5-1.3,9.7
			c-0.2,1.7-0.3,3.4-0.4,5.2h5.7c0.3-2.7,0.6-5.4,1-8c1-7.5,1.8-15,3.1-22.4c0.8-5.2,4.4-9.5,9.4-11.2l1.6-0.6v-6.2
			C32.5,127.1,29.4,128.2,26.8,130.3z"/>
		<path class="st0" d="M174.5,161c-0.1-1.1-0.4-2.1-0.6-3.2l0,0c0.1-0.1,0.1-0.3,0.1-0.5c-0.6-4.8-1.1-9.7-1.8-14.5
			c-1.3-8.5-6.1-14.3-14-17.4c-3.2-1.2-6.5-2.1-9.7-3.1c-3.7-1.1-7.4-2.1-11.1-3.3c-3.2-1-6.3-2-9.5-3c-3.5-1.1-7.1-2.2-10.6-3.3
			v-3.7h25.6c-3.5-14.7-5.4-29.6-5.7-44.7h-5.8c0.3,13,1.7,26,4.2,38.8h-18.3c0-0.1-0.1-0.2-0.1-0.4c0-3.1,0-6.2,0-9.3
			c0.1-0.4,0.3-0.7,0.5-1c1.6-2.1,3.2-4.1,4.6-6.3c2.7-4.4,4.5-9.3,5.2-14.5c0.3-2.4,0.5-4.8,0.8-7.3h-5.9c-0.1,1.3-0.2,2.6-0.3,3.8
			c-0.8,7.9-3.5,14.9-9.1,20.7c-3.9,4.1-8.8,7.1-14.2,8.6c-1.9,0.5-4,0.3-6.2,0.5c-0.5,1.5-1,3.3-1.6,5.1c7.7,2.2,14-1.4,20.3-5v1.2
			c0,5.6,0,11.2,0,16.8c0,0.5-0.1,1,0.6,1.2c4.8,1.4,9.6,2.9,14.4,4.4c3.1,0.9,6.1,1.9,9.3,2.8c-0.2,0.4-0.4,0.9-0.6,1.3
			c-1,1.4-1.9,2.9-2.9,4.2c-5.9,7.9-14.1,13.7-23.6,16.6c-6.4,2-13.2,2.5-19.8,1.5c-4.8-0.7-9.5-2.1-13.9-4.3
			c-4.2-2.1-8.1-4.8-11.5-8.1c-1.3-1.2-2.5-2.5-3.5-3.9c-1-1.3-2.5-2.3-3.1-4c-0.4-0.8-0.8-1.5-1.2-2.2c0.5-0.2,0.8-0.4,1.1-0.5
			c3.5-1.2,6.9-2.3,10.4-3.5c4.2-1.4,8.4-2.9,12.7-4.3c0.7-0.2,0.7-0.6,0.7-1.2c0-7.8,0-15.6,0-23.3c0-0.8-0.3-1.6-0.9-2.1
			c-2-2.2-3.8-4.5-5.6-6.9c-3.6-5.6-5.5-12.2-5.5-18.9c-0.1-6.7,0-13.3,0-20v-1.3h-5.9v2.9H41.7v5.9h20.8v6.1h-9.2
			c-3.5,0-7,0-10.6,0c-0.4,0-1,0.3-1,0.5c-0.1,1.7,0,3.4,0,5.3h20.7c0.2,2.1,0.3,4,0.5,6.2H43.1c-0.3,0-0.6,0-0.9,0
			c-0.2,0.1-0.5,0.3-0.6,0.5c0,1.7,0,3.4,0,5.2h20.1c2.4,0,2.4,0,3.1,2.2c0.3,1,0.8,1.9,1.1,2.9c0.1,0.3,0.2,0.6,0.3,1h-4.8
			c-6.2,0-12.5,0-18.7,0c-0.9,0-1.3,0.2-1.2,1.2s0,2.1,0,3.2c0,1.5,0,1.5,1.4,1.5c8.5,0,17.1,0,25.6,0c0.7,0,1.3,0.3,1.6,0.8
			c1.1,1.4,2.3,2.8,3.4,4.2c0.4,0.5,0.7,1.2,0.8,1.9c0.1,5.1,0,10.3,0,15.4c0,2.5,0,2.5-2.4,3.3s-4.4,1.6-6.6,2.4
			c-2.4,0.9-4.8,1.7-7.2,2.5c-0.3,0.1-0.5,0.5-0.8,0.6c-1.1,0.3-2.2,0.4-3.2,0.7c-1.2,0.3-2.4,0.8-3.7,1.2c-2.1,0.6-4,1.6-6.1,2.1
			s-4.4,1.4-6.5,2.2l-2.5,0.8v6.2c4.3-1.6,8.7-3.1,13.1-4.7c0.5-0.3,1.2-0.1,1.5,0.4c0,0.1,0.1,0.1,0.1,0.2c1,1.7,2.1,3.4,3.3,5
			c5.4,7.5,12.7,13.4,21.2,16.9c9.4,4.1,19.8,5.3,29.9,3.4c8.3-1.5,16-5,22.6-10.2c4.3-3.3,8-7.4,11-11.9c1.1-1.6,2-3.3,3.1-5
			c0.3,0,0.5,0.1,0.8,0.2c4.3,1.3,8.7,2.7,13,3.9c2.9,0.9,5.6,2.5,7.6,4.8c2.5,2.9,3.9,6.6,4,10.5c0.2,1.9,0.6,3.8,0.9,5.7
			c0.1,1.2,0.1,2.5,0.3,3.8c0.7,6.2,1.4,12.4,2.1,18.5c0,0.3,0.3,0.7,0.4,0.7c1.8,0.1,3.5,0,5.3,0c0-1.1,0.1-2,0-2.9
			C175.3,168.1,174.9,164.5,174.5,161z"/>
		<path class="st0" d="M44,162.7c-1.7,0-3.4,0-5.2,0v11.8h5.6c0-0.1,0.1-0.2,0.1-0.2c0-3.6,0-7.3,0-10.9
			C44.5,163.1,44.3,162.8,44,162.7z"/>
		<path class="st0" d="M146.2,174.4h5.6v-11.7h-5.6V174.4z"/>
		<path class="st0" d="M163.9,25.4c-8.1,0.1-14.7,6.6-14.8,14.7c-0.1,8.2,6.4,14.9,14.6,15c8.2,0.1,14.9-6.4,15-14.6
			C178.8,32.3,172.2,25.5,163.9,25.4C163.9,25.4,163.9,25.4,163.9,25.4z M164.1,49.4c-3.8,0.1-7.8-2.7-8.6-6.1h16.7
			C171.6,46.5,167.9,49.2,164.1,49.4L164.1,49.4z M155.5,37.4c0.7-3.2,4.5-6,8.2-6s7.6,2.6,8.5,6H155.5z"/>
	</g>
</g>
</svg>
