<?xml version="1.0" encoding="utf-8"?>
<!-- Generator: Adobe Illustrator 24.1.3, SVG Export Plug-In . SVG Version: 6.00 Build 0)  -->
<svg version="1.1" id="Calque_1" xmlns="http://www.w3.org/2000/svg" xmlns:xlink="http://www.w3.org/1999/xlink" x="0px" y="0px"
	 viewBox="0 0 163.6 163.6" style="enable-background:new 0 0 163.6 163.6;" xml:space="preserve">
<style type="text/css">
	.st0{fill:#FFFFFF;}
</style>
<g id="Calque_2_1_">
	<g id="Calque_1-2">
		<path class="st0" d="M126.1,89.8c-3.1,0.7-6,2.3-9,3.5c-0.8,0.3-1.5,0.7-2.4,1.2c0.1-0.6,0.1-1.2,0.2-1.8c-0.2-2.4,0-4.8-0.7-7.1
			c-0.7-1.6-0.3-3.5,0.9-4.8c2.4-2.8,4.1-6.1,5-9.7c1.2-5.4-2.5-9.2-7.9-8.2c-1.5,0.3-3,0.7-4.4,1.2c-6.9,2.8-12.9,7.1-18.9,11.6
			c-1.8,1.4-3.7,2.9-5.7,4.4c-0.1-1.6-0.3-3.2-0.6-4.7c-0.6-1.8-0.1-3,1-4.4c2.3-3,4.4-6.1,5.2-9.9s-1.1-7.3-4.8-7.8
			c-1.8-0.2-3.7,0.1-5.5,0.7c-6.4,2.1-12,5.8-17.2,9.9c-18.5,14.6-37,29.3-55.3,44.2c-1.7,1.6-3.2,3.4-4.3,5.4
			c-0.7,1.5-1.2,3-1.6,4.6v37.7c0.9,3,2.4,5.6,5.3,7c0.8,0.4,1.8,0.7,2.7,1h7.4c1.2-0.7,2-1.7,1.5-3.1s-1.8-1.7-3.1-1.7
			s-2.9,0.1-4.3,0c-2.5,0-4.6-2.1-4.6-4.6v-0.2c-0.2-4.9-0.2-4.9,3.6-7.9c20.6-16.5,41.2-33.1,61.8-49.6c0.4-0.3,0.8-0.6,1.4-1
			c0.1,0.3,0.3,0.6,0.4,0.9c1.3,5.8,6.8,9.6,12.7,9c3.9-0.1,7.7-1.6,10.6-4.2c4.4-4.1,8.8-8.2,13.1-12.4c0.4-0.4,0.8-0.9,1.4-1.7
			c1.1,5.4,0,9.6-3.8,12.8c-4.8,4.1-9.7,7.9-14.6,11.9c-19.2,15.4-38.4,30.8-57.6,46.1c-0.8,0.5-1.6,0.8-2.6,0.9
			c-1.4,0.1-2.9,0.1-4.3,0c-1.3,0-2.6,0.1-3.2,1.5s0.3,2.4,1.3,3.3h53.7c3.4-0.7,6.7-1.6,9.5-3.8c5.8-4.6,11.6-9.2,17.4-13.8
			c0.2-0.2,0.4-0.4,0.5-0.6c0.7-0.9,0.7-2.1-0.1-2.9c-0.6-0.9-1.8-1.1-2.7-0.6c-0.5,0.3-1,0.6-1.4,1c-5,4-10.1,8-15.1,12.1
			c-3.1,2.6-7.1,4-11.2,3.9c-11.1-0.1-22.2,0-33.2,0h-2l46-36.9c0.2,0.6,0.2,0.9,0.3,1.2s0.2,0.6,0.3,0.9c1.1,3.6,4,6.3,7.6,7.1
			c4.9,1.4,10.1,0.3,14.1-2.8c3.5-2.7,6.7-5.8,10-8.7c0.5-0.4,0.9-0.8,1.5-1.4c1.1,5.1,0,9.3-3.6,12.8c-1.4,1.4-3.1,2.6-4.7,3.9
			c-1.3,1.1-1.6,2.5-0.7,3.6s2.3,1.2,3.7,0.1s2.7-2.1,4-3.2c5.5-4.9,7.8-11,5.9-18.1c-0.7-2.7,0-4.2,1.6-6c3.4-3.8,6.4-7.8,7.9-12.8
			C135.8,92.7,132,88.3,126.1,89.8z M47.8,80.3c8.5-6.7,16.6-13.9,26.1-19.2c2.3-1.2,4.7-2.2,7.2-3c0.8-0.3,2.3-0.3,2.6,0.2
			c0.4,0.9,0.5,1.9,0.1,2.8c-1.4,2.8-3.1,5.5-5,8.1c-5,6.4-10.8,12.2-17.2,17.2c-1.8,1.4-4.1,2.3-6.4,2.4c-5.2,0-7.8-2.7-7.7-7.4
			C47.4,81,47.5,80.6,47.8,80.3z M71.8,89.2c-21.8,17.5-43.7,35-65.6,52.5l-1.4,1c0-8-0.1-15.6,0-23.3c0.1-3.2,1.6-6.1,4.2-8
			l33.3-26.6c0.1-0.1,0.3-0.2,0.4-0.2c0.1,0.1,0.2,0.3,0.3,0.4c2.4,7.1,8.2,10.1,15.5,8.2c3.5-0.9,6.2-3,8.8-5.3
			c3.1-2.8,6.1-5.8,9.1-8.7c0.4-0.4,0.9-0.9,1.5-1.6c0.5,3-0.4,6.1-2.5,8.3C74.3,87.1,73.1,88.2,71.8,89.2z M109.6,80
			c-5.2,6.4-11.1,12.3-17.6,17.6c-2.3,1.9-5.1,3-8.1,3c-5,0.1-8.1-3.2-7.7-8.3c0.1-0.4,0.3-0.8,0.6-1c8.7-6.9,17-14.3,26.8-19.8
			c2.7-1.5,5.6-2.8,8.6-3.7c2.8-0.9,3.8,0.2,3,3.1C114.2,74.4,111.8,77.2,109.6,80z M129.4,97.5c-0.6,1.9-1.5,3.6-2.7,5.2
			c-5.9,8.1-12.8,15.3-20.7,21.4c-2.1,1.7-4.7,2.6-7.3,2.7c-5.3,0-8.3-3.2-7.9-8c0.1-0.4,0.3-0.7,0.6-1c8.6-6.8,16.8-14.2,26.4-19.5
			c2.8-1.5,5.7-2.8,8.8-3.8C129.3,93.7,130.4,94.8,129.4,97.5L129.4,97.5z"/>
		<path class="st0" d="M160.5,12.8c1.5,0.5,2.4-0.4,3.1-1.6V5.1c-0.8-2.4-2.7-4.3-5.1-5.1h-24.9c-2.9,1.1-5,3-5.1,6.2
			c-0.1,5.2-0.1,10.4,0,15.6c0,3,2,5.7,4.9,6.6c1.1,0.4,2.3,0.8,3.5,1c1.4,0.3,1.9,0.9,1.8,2.4c-0.1,5,0,10,0,15
			c0,2.3-0.2,4.6,1.1,6.7c0.2,0.4,0.2,0.9,0.1,1.4c-1,9.1-3.6,17.4-10.7,23.7c-2,1.7-2.2,4.6-0.5,6.5c0.2,0.2,0.4,0.4,0.7,0.6
			c1.7,1.5,3.4,2.9,5.2,4.3c2.5,2.1,6.3,1.8,8.4-0.8c0.4-0.5,0.7-1,1-1.6c1.3-2.8,2.4-5.7,3.4-8.6c2.2-7.1,3.4-14.4,3.6-21.8
			c0.1-1.2,0.2-2.3,0.5-3.4c0.4-1.7,1.1-3.3,1.2-5c0.2-4.3,0.1-8.6,0.1-12.9v-1.9c1,0.3,1.8,0.5,2.6,0.7c2.8,0.8,5.8-0.4,7.3-2.9
			c0.4-0.7,0.7-1.4,1.1-2.1v-8.9c-0.7-0.6-1.4-1-2.2-1.3c-1.4-0.3-2.5,0.8-2.6,2.5c-0.1,1.9,0,3.8,0,5.7s-1,2.8-2.8,2.3
			c-6.9-1.9-13.8-3.9-20.7-5.9c-1.3-0.3-2.2-1.5-2.1-2.9c0-4.7,0-9.5,0-14.2c0-1.6,0.6-2.2,2.2-2.2h21.1c1.7,0,2.2,0.6,2.3,2.3
			c0,0.8,0,1.7,0,2.6C158.8,11,159.1,12.3,160.5,12.8z M139.7,85.5c-0.6,1.3-1.4,1.5-2.5,0.6c-1.6-1.2-3-2.5-4.6-3.8
			c0.2-0.3,0.5-0.6,0.7-0.9c6.4-5.9,9.5-13.5,10.9-21.8c0.1-0.5,0.2-1,0.2-1.6c0-1.1,0.6-1.4,1.8-1C145.6,66.9,144,76.5,139.7,85.5z
			 M143.6,31.5l4.3,1.2v14.2c0,1,0.1,2,0,3c0,1.1-0.9,2.1-2,2.1c-0.1,0-0.1,0-0.2,0c-1.1,0.1-2.1-0.8-2.1-1.9c0-0.1,0-0.2,0-0.3
			C143.6,43.8,143.6,37.8,143.6,31.5L143.6,31.5z"/>
	</g>
</g>
</svg>
