<?xml version="1.0" encoding="utf-8"?>
<!-- Generator: Adobe Illustrator 24.1.3, SVG Export Plug-In . SVG Version: 6.00 Build 0)  -->
<svg version="1.1" id="Calque_1" xmlns="http://www.w3.org/2000/svg" xmlns:xlink="http://www.w3.org/1999/xlink" x="0px" y="0px"
	 viewBox="0 0 184 171.3" style="enable-background:new 0 0 184 171.3;" xml:space="preserve">
<style type="text/css">
	.st0{fill:#FFFFFF;}
</style>
<g>
	<path class="st0" d="M150.4,158.9c4.4-0.1,7.2-2.3,8.3-6.6c0.1-0.2,0.3-0.4,0.6-0.6c2.8-1,4.8-3.5,5.2-6.4c0.5-3.2-0.4-6.5-2.3-8.8
		c-2.8-3.9-5.9-8-9.5-12.5c-2-2.5-4.1-5-6.2-7.4c-0.4-0.4-0.7-0.9-1.1-1.3c3.5-4.6,3.7-9.6,0.5-13.9l-0.4-0.6
		c-11.1-15.5-22.5-31.6-33.8-47.4c-0.7-1.1-1.9-1.7-2.9-2.3c-0.4-0.2-0.8-0.4-1-0.6c-0.4-0.3-0.9-0.6-1.3-0.8
		c-0.6-0.3-1.1-0.6-1.4-0.9c-7.1-8.2-14.2-16.7-21.2-24.9c-1.6-2.2-4.2-3.6-6.9-3.7c-0.3-0.1-0.5-0.2-0.8-0.5
		c-0.5-0.6-0.9-1.3-1.4-2c-0.7-1.1-1.5-2.2-2.3-3.1c-0.6-0.8-1.6-1-2.4-1.1c-0.2,0-0.4-0.1-0.6-0.1c-0.4-0.1-0.9,0-1.3,0.3
		c-0.4,0.3-0.6,0.7-0.6,1.2c0,0.2,0,0.4,0,0.6c-0.1,0.7-0.2,1.7,0.4,2.5c0.6,1.1,1.4,2.1,2.1,3.1c0.5,0.7,0.9,1.3,1.4,1.9
		c0.3,0.5,0.4,0.8,0.4,1c-1,3.2,0.2,6,1.5,8l0.1,0.2c5.4,9,10.9,18.4,16.6,27.6c0,0.1,0.1,0.1,0.1,0.2c0.2,0.2,0.3,0.7,0.3,1.1
		c-0.8,2.8,0.3,4.9,1.7,6.8c6.6,9.1,13.5,18.6,20.2,28c2.3,3.2,4.6,6.5,6.8,9.7c2.3,3.2,4.5,6.5,6.8,9.7c3.6,5.1,8.9,6.6,14.7,4.1
		c0.2,0,0.4,0,0.6,0c1.6,2,3.1,3.9,4.7,5.9c3.9,4.9,8,10,11.9,15.2c0.4,0.5,0.6,1.4,0.8,2.2c-0.9-3.2-3.5-5.2-7.1-5.5
		c-1-0.1-1.8-0.1-2.8,0c0,0,0-0.1,0-0.1c-1.3-8.2-6.8-12.8-15-12.8H71.1c-9.1,0-15.2,6.1-15.2,15.2v22.8c0,5.7,3,8.6,8.7,8.6
		c6.2,0,12.3,0,18.5,0c18.1,0,36.9,0,55.3,0.1c4.1,0,6.6-0.8,8.3-2.5c1.6-1.7,2.2-4.1,2-7.9c0-0.5-0.1-1.2-0.1-1.6
		C149,159,149.7,158.9,150.4,158.9z M61.6,162.3c-0.1-7.8-0.1-15.8,0-23.7c0.1-5.3,3.6-8.6,9.1-8.6h62.4c6.3,0,9.4,3.2,9.4,9.5v23
		c0,2.3-0.3,2.5-2.4,2.5h-37.9l-38-0.1C62.1,164.9,61.6,164.4,61.6,162.3z M149.3,143.1c0.7,0,1.3,0,1.9,0.1c0,0,0.1,0,0.1,0
		c0.4,0,0.8,0.2,1.1,0.6c0.3,0.3,0.4,0.7,0.4,1.2l0,5.4c-0.1,2-0.4,2.4-2.4,2.5c-0.8,0-1.5,0.1-1.9,0.1c0-0.4,0-1.1,0-1.8V148
		c0-0.5,0-1,0-1.4c0-0.9,0-1.9,0-2.9c0-0.3,0-0.5,0-0.6c0.1,0,0.3,0,0.7,0C149.2,143.1,149.3,143.1,149.3,143.1z M141.1,104.6
		c1.1,1.5,1.5,3,1,4.6c-0.8,2.9-3.3,5-6.4,5.2c0,0-0.1,0-0.1,0c-1.4,0.2-3.3,0.2-5-2.4L141.1,104.6z M127,107.2L96.4,64
		c-0.6-0.7-0.6-1-0.7-1c0,0,0,0,0,0c0,0,0.1-0.3,0.9-0.8c1.3-0.9,2.7-1.9,4-2.9c1.4-1,2.7-1.9,4-2.8c1.4-0.9,1.6-0.7,2.3,0.2
		c5.2,7.3,10.3,14.5,15.5,21.8c5.1,7.1,10.1,14.2,15.2,21.3c-1.6,1.2-3.3,2.3-4.9,3.5c-1.9,1.3-3.7,2.7-5.6,4
		C127.1,107.3,127.1,107.2,127,107.2z M83.3,32.2l17,20.1l-5.8,4.1c-4.2-7.1-8.8-14.7-13.5-22.6L83.3,32.2z M77.3,26.2
		c0.1,0,0.2,0,0.4,0.1c0.6,0.4,1.2,0.9,1.8,1.4l-1.3,1c-0.3-0.7-0.6-1.4-0.9-2.1C77.3,26.4,77.3,26.3,77.3,26.2z"/>
	<path class="st0" d="M183.8,99.9c-0.1-3.7-2.9-6.6-6.6-7l-0.5-0.1c0-0.5,0-1,0-1.5c0-1.8,0-3.7,0-5.6c0.1-1.6-0.6-3.2-1.7-4.4
		c-1.1-1.2-2.6-1.8-4.2-1.8c-0.3,0-0.5-0.1-0.8-0.1c0-0.1,0-0.3-0.1-0.4l-0.1-0.7c-0.9-8.1-1.9-16.8-3-25.5
		c-0.2-3.1-2.4-5.6-5.3-6.4c-2.8-1.1-5.9-0.1-7.7,2.4c-1.1,1.5-1.7,3.2-1.9,5.3c-0.8,6.2-1.6,12.6-2.3,18.7
		c-0.3,2.2-0.5,4.5-0.8,6.7c-0.1,0-0.1,0-0.2,0h0c-4.4,0.3-6.6,2.6-6.6,7.1v4.8c0,5.2,2.2,7.4,7.3,7.4h25.9c2.3,0,2.7,0.3,2.7,2.7
		v61.3c0,2.4-0.2,2.7-2.7,2.7h-20c-1.1,0-3.9,0-3.9,3c0,0.9,0.3,1.6,0.8,2.1c0.7,0.7,1.6,0.8,2.4,0.8c0.1,0,0.2,0,0.4,0l20,0
		c6.4,0,9-2.6,9-8.9v-57.6c0-0.5,0-1,0-1.6C183.8,102.1,183.9,101,183.8,99.9z M148.1,92.8c-0.1-0.1-0.2-0.4-0.2-1
		c0.1-1.2,0-2.5,0-3.7c0-0.6,0-1.1,0-1.7c0-0.7,0.1-0.9,0.1-0.9c0,0,0.2-0.1,0.8-0.1H170c0.6,0,0.8,0,0.8,0.9V92c0,0.7,0,0.9-1,0.9
		h-10.5c-0.9,0-1.7,0-2.6,0c-2.5,0-5.1,0-7.6,0.1C148.3,93,148.1,92.8,148.1,92.8z M157.7,55.1c0.1-0.3,0.1-0.5,0.1-0.8
		c0-0.2,0-0.4,0.1-0.6c0,0,0-0.1,0-0.1c0.1-1.3,0.6-1.5,1.6-1.5c0.4,0,1.4,0,1.6,1.8c0.5,4.6,1.1,9.4,1.6,14.1l0.1,1.1
		c0.3,3,0.6,5.9,1,8.9l0.2,1.3l-9.2,0.1c0.3-2.5,0.5-4.8,0.8-7.2C156.4,66.5,157.1,60.8,157.7,55.1z"/>
	<path class="st0" d="M58.6,87l0,0.2c-0.5,5.2-1.1,10.2-1.4,15.2c0,0,0,0.1,0,0.1v0.3c0,0.2,0.1,0.5,0.2,0.7
		c0.3,0.5,0.7,1.1,1.5,1.6c1.4,0.6,3,0,3.7-1.3c0.1-0.2,0.2-0.3,0.2-0.5c0-0.1,0.1-0.3,0.1-0.5c0.4-3,0.6-6,0.9-9l0.1-0.8
		c0.2-1.9,0.4-3.7,0.6-5.6c2.2,0,4.1,0,6.2,0.1c0,0.1,0.1,0.1,0.1,0.2c0,0,0,0,0,0c0.2,1.7,0.2,3.5,0.3,5.3c0,1.2,0.1,2.4,0.2,3.6
		c0,0.5,0,1.1,0.1,1.6c0.1,1.6,0.1,3.3,0.3,5c0,0.2,0.1,0.4,0.2,0.6c0,0.1,0.1,0.2,0.1,0.2c0.1,0.3,0.4,0.8,1,1.1
		c0.5,0.3,1,0.4,1.5,0.4c0.9,0,1.7-0.4,2.3-1.1c0.2-0.2,0.3-0.4,0.5-0.7c0.3-0.7,0.2-1.4,0.2-1.7c0-0.1,0-0.1,0-0.2l-0.6-14.1
		c0-0.2,0.1-0.4,0.1-0.6c1.6-0.3,3.2-0.5,4.9-0.8c0.3,0,0.5-0.1,0.8-0.1c0.4,1.5,0.7,2.9,0.9,4.2l0.2,0.9c0.7,3.4,1.5,6.9,2.4,10.3
		c0.1,0.5,0.4,0.9,0.6,1.1c0.1,0.1,0.4,0.4,0.8,0.6c1.5,0.6,3.2,0,3.8-1.4l0.3-0.6c0.4-0.7,0.1-1.5-0.1-2l0-0.1
		c-0.6-2.8-1.2-5.7-1.9-8.5c-0.4-2-0.9-4-1.3-6c1.1-0.4,2.1-0.8,3.2-1.2c1.8-0.7,3.5-1.3,5.1-2c0.2-0.1,0.3-0.2,0.5-0.3l0.3-0.3
		c0.1-0.1,0.2-0.3,0.3-0.5c0.1-0.2,0.3-0.4,0.3-0.9c0.1-0.6,0-1.3-0.3-1.9c-0.4-0.7-1.1-1.2-1.9-1.4c0,0-0.1,0-0.1,0l-0.5-0.1
		c-0.7-0.2-1.3,0.1-1.6,0.3l0,0c0,0-0.1,0-0.1,0.1C81,81.8,67.6,83.1,53.8,80C41.4,77.4,33,72.2,27.5,63.9c-0.1-0.1-0.1-0.2-0.2-0.2
		c-0.2-0.2-0.3-0.3-0.5-0.3c-0.2-0.1-0.3-0.2-0.5-0.2c-0.1-0.1-0.4-0.1-0.6-0.1c-1.6-0.2-3,1-3.2,2.6c0,0.1,0,0.1,0,0.2
		c0,0.3,0,0.7,0.3,1.2c0.9,1.7,2,3.2,3.3,4.6c0.9,0.9,0.9,1.1,0,2.3c-3.4,4.5-6.1,8.1-8.4,11.5c0,0,0,0.1-0.1,0.1
		c-0.5,0.9-1.1,3.2,0.1,4.4c0.8,0.7,1.6,0.8,2.1,0.8c1.3-0.1,2.1-1.1,2.6-1.9l5.9-7.9c0.5-0.7,1.1-1.4,1.6-2.2
		c0.5-0.6,1-1.3,1.4-1.9l4.8,3.2l-7.5,13.6l-0.1,0.2c-0.4,0.8-0.9,1.8-0.5,2.9c0.2,0.7,0.7,1.2,1.5,1.6c1.5,0.8,2.6,0.2,3.1-0.2
		c0.6-0.5,1-1.2,1.3-1.7c1.4-2.5,2.9-5.2,4.1-7.6l3.4-6.2l5.5,2.1c-0.1,0.4-0.2,0.8-0.4,1.2c-0.4,1.4-0.9,2.8-1.4,4.3
		c-1,3.3-2.1,6.6-3.1,10c0,0.1-0.1,0.3-0.1,0.4v0.3c0,0.7,0.2,1.3,0.7,1.8c0.5,0.6,1.2,0.9,1.9,1c0.7,0.1,1.4-0.1,2-0.5
		c0.3-0.2,0.5-0.4,0.7-0.6c0.4-0.4,0.5-0.9,0.5-1.2c0-0.1,0-0.1,0-0.2c0.8-2.4,1.5-4.8,2.3-7.2c0.8-2.4,1.5-4.8,2.3-7.2
		c0-0.1,0.2-0.3,0.3-0.5c1.7,0.2,3.3,0.5,5,0.9C58,86.9,58.3,86.9,58.6,87z"/>
	<path class="st0" d="M63.5,7.7C63.6,7.8,63.8,7.9,64,8c0.7,0.5,1.6,1.1,2.6,0.9c2.9-0.3,5.8-0.8,8.7-1.2c1.4-0.2,2.9-0.4,4.3-0.6
		c0.9-0.1,1.9-0.2,2.8-0.4c5.5-0.7,10.8-1.4,16.2-0.4c10.7,1.9,20.1,6.9,28.5,15.3c-9-3.8-18.7-5.3-28.4-4.5
		c-2.8,0.3-5.7,0.7-9.1,1.4c-0.1,0-0.1,0-0.2,0c-1,0.3-1.8,1.3-2.3,2.1c-0.2,0.2-0.2,0.5-0.2,0.8c0,1,0.4,1.8,1.2,2.4
		c0.2,0.1,0.3,0.2,0.5,0.3c1,0.3,2,0.3,3,0c14-2.7,26.4-1,38.1,5.2c1,0.5,2,0.8,2.8,0.8c1.2,0,2.3-0.5,3.2-1.6l0.1-0.1
		c0,0,0.1-0.1,0.1-0.1c1.6-1.9,1.4-4.7-0.4-6.4c-1.6-1.8-3.4-3.7-5.3-5.5C118,4.9,105.2-0.4,91.1,0c-6.2,0.2-12.4,1.2-18.4,2.2
		C70.4,2.6,68,3,65.6,3.3c-1,0.2-1.5,0.9-2,1.5c-0.1,0.2-0.3,0.4-0.5,0.5c-0.3,0.3-0.5,0.8-0.4,1.2C62.8,7.1,63.1,7.5,63.5,7.7z"/>
	<path class="st0" d="M29.6,36.7c1.9-0.4,3.7-0.7,5.6-1.1c9.6-1.9,19.4-3.9,28.9-5.8c1.3-0.3,2.2-0.8,2.6-1.6
		c0.3-0.5,0.5-1.2,0.1-2.2c-0.5-1.2-1.9-1.5-3.1-1.8c-0.7-0.2-1.3,0-1.8,0.2l-8,1.6c-12.5,2.5-25.4,5.2-38,7.7
		c-1.2,0.2-2.4,0.2-3.3-0.1c-2.9-0.7-5.1-2.9-6.1-5.8c-1-3.1-0.4-6.4,1.7-8.9c0.1-0.1,0.2-0.2,0.3-0.3c0.6-0.7,2.1-2.5,0.2-4.4
		c-0.8-0.8-1.6-0.9-2.1-0.9c-1.3,0-2.1,1-2.7,1.7L3.8,15c-2.3,2.7-3.6,6.1-3.6,9.6c-0.1,4.6,2,9.1,5.6,11.9c2.5,2,5.5,3,8.6,3
		c1.2,0,2.4-0.1,3.6-0.4C21.8,38.2,25.8,37.4,29.6,36.7z"/>
	<path class="st0" d="M53.1,23c3,0,3-2.8,3-3.9l1.5-15.3c0.1-0.9,0.2-2.2-0.7-3.1c-0.4-0.4-1-0.8-2-0.7c-1.6,0-2.8,2.1-2.9,3.3
		c-0.4,3.1-0.7,6.3-1,9.4c-0.2,1.6-0.3,3.3-0.5,4.9c0,0,0,0.1,0,0.2c0,0.1,0,0.2,0,0.3c0,0.2-0.1,0.5-0.1,0.7l0,0.3
		c-0.1,0.9-0.2,2.1,0.6,3C51.4,22.6,52.1,23,53.1,23z"/>
	<path class="st0" d="M42.5,24.1c0.5,0.6,1.2,0.9,2.1,1c0.1,0,0.2,0,0.3,0c2.6,0,2.8-2.6,2.8-3.5L49.3,6c0,0,0-0.1,0-0.1l0-0.2
		c0-0.8,0-2.1-0.9-2.9c-0.4-0.3-1-0.7-2-0.7c-1.6,0-2.8,2.1-2.9,3.3c-0.4,3.1-0.7,6.3-1,9.4c-0.2,1.6-0.3,3.3-0.5,4.9
		c0,0.1,0,0.1,0,0.2c0,0.1,0,0.2,0,0.2c0,0.2-0.1,0.5,0,0.9l0,0.2C41.9,22,41.8,23.2,42.5,24.1z"/>
	<path class="st0" d="M36.1,27.2c0.1,0,0.2,0,0.3,0c2.6,0,2.8-2.6,2.8-3.5l1.5-15.7C40.8,7.2,40.9,5.9,40,5c-0.4-0.4-1-0.8-2-0.7
		c-1.6,0-2.8,2.1-2.9,3.3c-0.4,3.1-0.7,6.3-1,9.4c-0.2,1.6-0.3,3.3-0.5,4.9c0,0.1,0,0.1,0,0.2c0,0.1,0,0.2,0,0.3
		c0,0.2-0.1,0.4-0.1,0.7l0,0.3c-0.1,0.9-0.2,2.1,0.6,3C34.5,26.9,35.2,27.2,36.1,27.2z"/>
	<path class="st0" d="M27.7,29.4c0.1,0,0.2,0,0.3,0c2.6,0,2.8-2.6,2.8-3.5l1.5-15.7c0.1-0.9,0.2-2.2-0.7-3.1c-0.4-0.4-1-0.8-2-0.7
		c-1.6,0-2.8,2.1-2.9,3.3c-0.4,3.1-0.7,6.3-1,9.4c-0.2,1.6-0.3,3.3-0.5,4.9c0,0.1,0,0.1,0,0.2c0,0.1,0,0.2,0,0.3
		c0,0.2-0.1,0.4-0.1,0.7l0,0.3c-0.1,0.9-0.2,2.1,0.6,3C26,29,26.8,29.4,27.7,29.4z"/>
	<path class="st0" d="M19.2,31.5c0.1,0,0.2,0,0.3,0c2.6,0,2.8-2.6,2.8-3.5l1.5-15.7c0.1-0.9,0.2-2.2-0.7-3.1c-0.4-0.4-1-0.8-2-0.7
		c-1.6,0-2.8,2.1-2.9,3.3c-0.4,3.1-0.7,6.3-1,9.4c-0.2,1.6-0.3,3.3-0.5,4.9c0,0.1,0,0.1,0,0.2c0,0.1,0,0.2,0,0.3
		c0,0.2-0.1,0.4-0.1,0.7l0,0.3c-0.1,0.9-0.2,2.1,0.6,3C17.6,31.1,18.3,31.4,19.2,31.5z"/>
	<path class="st0" d="M113.6,150.7c0.1-2,0.1-4.1,0-6.2c-0.1-4.8-3.3-7.8-8.1-7.8H90c-5.6,0-10.9,0-16.2-0.1
		c-4.7,0.1-7.7,3.1-7.8,7.9v5.9c0,4.7,3,7.9,7.6,7.9c5.4,0,10.8,0.1,16.2,0.1c5.4,0,10.8,0,16.2-0.1
		C110.5,158.2,113.4,155.4,113.6,150.7z M74.3,152.3c-2.3,0-2.6-0.2-2.6-2.6c-0.1-1.8-0.1-3.5,0-5.3c0.1-1.6,0.7-1.9,1.9-1.9h32.2
		c1.1,0,1.8,0.3,1.9,1.9c0.1,1.2,0,2.5,0,3.7c0,0.6,0,1.3,0,1.9c-0.1,2.1-0.4,2.4-2.5,2.4H89.5C84.5,152.4,79.4,152.4,74.3,152.3z"
		/>
	<path class="st0" d="M120.1,145.8h8.1c0.9,0,1.8,0,2.7,0c0.9,0,1.8,0,2.7,0c0.9,0,1.8,0,2.7,0c1,0,1.7-0.6,2.3-1.1
		c0.2-0.2,0.4-0.3,0.5-0.4c0.4-0.2,0.7-0.7,0.7-1.2c0-0.5-0.2-1-0.6-1.3c-0.2-0.1-0.4-0.3-0.5-0.5c-0.6-0.6-1.3-1.3-2.4-1.3
		c-5.4-0.1-10.9-0.1-16.2,0c-1.4,0-2.6,0.8-3.3,2.1c-0.1,0.1-0.1,0.3-0.1,0.4c-0.2,1.1,0.2,1.8,0.5,2.2
		C118,145.7,119.3,145.8,120.1,145.8z"/>
	<path class="st0" d="M138.6,150.8c-0.1-0.1-0.3-0.2-0.5-0.4c-0.6-0.5-1.3-1-2.2-1.1c-2-0.2-4-0.1-5.9-0.1c-1.3,0-2.6,0-3.8,0
		c-1.9,0-3.8,0-5.8,0.1c-0.9,0.1-1.6,0.7-2.1,1.2c-0.2,0.2-0.3,0.3-0.5,0.4c-0.4,0.3-0.6,0.7-0.6,1.1c0,0.5,0.2,0.9,0.5,1.2
		c0.1,0.1,0.3,0.2,0.4,0.4c0.5,0.6,1.3,1.3,2.4,1.3c0,0,0,0,0,0c2.6,0,5.1,0.1,7.7,0.1c2.6,0,5.1,0,7.7-0.1c1,0,1.8-0.7,2.4-1.3
		c0.2-0.2,0.4-0.3,0.5-0.5c0.4-0.3,0.6-0.8,0.6-1.3S139.1,151,138.6,150.8z"/>
</g>
</svg>
