<?xml version="1.0" encoding="utf-8"?>
<!-- Generator: Adobe Illustrator 24.1.3, SVG Export Plug-In . SVG Version: 6.00 Build 0)  -->
<svg version="1.1" id="Calque_1" xmlns="http://www.w3.org/2000/svg" xmlns:xlink="http://www.w3.org/1999/xlink" x="0px" y="0px"
	 viewBox="0 0 153.8 153.6" style="enable-background:new 0 0 153.8 153.6;" xml:space="preserve">
<style type="text/css">
	.st0{fill:#424242;}
</style>
<g id="Calque_2_1_">
	<g id="Calque_1-2">
		<path class="st0" d="M0,101.1c0.3-2.8,0.4-5.7,0.9-8.4c0.6-3.3,1.5-6.6,2.7-9.8c1.4-3.3,2.8-3.7,6.4-3.3c10,1.2,20,2.5,30.1,3.4
			c17.8,1.5,35.6,1.9,53.4,1.2c13.3-0.4,26.6-1.4,39.8-3.2c3.8-0.5,7.5-1,11.3-1.6c2.7-0.4,3.9,0.2,5.4,2.8c1.7,3.2,2.7,6.6,3,10.2
			c1.3,10,1.3,20.2,0,30.2c-0.3,3.6-1.3,7-3,10.1c-1.5,2.6-2.7,3.1-5.7,2.6c-14.7-2.3-29.5-3.7-44.3-4.3c-0.5,0-1,0-1.7,0
			c0.2,0.5,0.3,0.9,0.4,1.3c1.4,3.3,2.7,6.6,4.1,9.8c1,2.2,0.8,4.3-0.9,6.1s-3.9,1.9-6.1,0.9c-0.4-0.2-0.9-0.4-1.6-0.6
			c-0.7,2.4-2,4.2-4.4,5h-2.4c-2-0.9-3.6-2.6-4.2-4.7c-1.1-3-2.5-6-3.8-9.2c-1.4,3.2-2.7,6.2-3.8,9.2c-0.6,2.1-2.1,3.8-4.1,4.6h-2.4
			c-2.4-0.8-3.6-2.7-4.3-5c-0.6,0.2-1.1,0.4-1.5,0.6c-2.5,1-4.6,0.7-6.1-0.9c-1.6-1.6-2-4.1-0.9-6.1c1.4-3.2,2.8-6.5,4.1-9.8
			c0.2-0.5,0.3-1,0.5-1.6H60c-16.9,0.5-33.7,2-50.5,4.6c-3,0.5-4.7-0.1-5.8-3.1c-1.2-3.2-2.1-6.5-2.7-9.9c-0.6-2.8-0.7-5.6-1-8.4
			V101.1z M96,125.8l3.5,0.2c4.6,0.3,9.2,0.3,13.8,0.8c10.4,1.1,20.9,2.3,31.3,3.5c0.9,0.1,1.3-0.1,1.5-0.9c0.5-2,1.1-4,1.4-6
			c1.3-8.3,1.6-16.7,0.8-25c-0.4-4.2-1.4-8.4-2.2-12.7c-0.1-0.8-0.5-1.2-1.6-1c-17.6,2.7-35.3,4.2-53,4.7c-0.2,0-0.4,0-0.7,0.1
			c0.5,5.1,0.9,10.1,1.4,15.2c0.1,0.5,0.3,1,0.7,1.4c3.1,3.4,4.6,7.9,4.3,12.4C97,120.9,96.6,123.4,96,125.8z M13,85.3
			c3.2,15.1,3.2,27.4,0.1,43.9l50-4.1c0-0.2-0.1-0.4-0.2-0.6c-2.1-5-1.8-10.6,0.8-15.4c0.2-0.4,0.3-0.9,0.4-1.4
			c0.2-5.8-0.4-11.5-1.7-17.1c-0.3-1.1-0.8-1.3-1.8-1.4c-12-0.8-24-1.7-36.1-2.6C20.7,86.4,16.9,85.8,13,85.3z M92.2,117.8
			c0-7.1-5.7-12.8-12.7-12.8c-7.1,0-12.8,5.7-12.8,12.7s5.7,12.8,12.7,12.8c0,0,0,0,0,0C86.5,130.6,92.2,124.9,92.2,117.8
			C92.2,117.8,92.2,117.8,92.2,117.8L92.2,117.8z M69.3,102.9c5.5-3.5,11.3-4,17.9-1.4c-0.7-3.9-1.3-7.4-1.8-10.9
			c-0.2-1-0.6-1.2-1.5-1.2c-3.8,0.1-7.7,0.1-11.5,0.1c-1.6,0-3.2,0-4.8,0C68.1,94,68.7,98.4,69.3,102.9z M7.7,86.3
			c-3.5,13.9-3.5,28.5,0,42.5C11.2,114.8,11.2,100.2,7.7,86.3z M98.2,144.7l-5.8-13.8l-9,4.9c1.6,3.9,3.4,8.1,5.2,12.4
			c0.2-0.1,0.3-0.1,0.3-0.2c0.5-1.1,1-2.3,1.6-3.4c0.9-1.8,2-2.3,3.9-1.5C95.4,143.5,96.6,144,98.2,144.7z M75.6,135.8l-9.1-4.9
			l-5.8,13.9l3.5-1.6c2.3-1,3.4-0.5,4.4,1.7c0.5,1.1,1,2.2,1.6,3.6C72.1,144,73.9,139.8,75.6,135.8z"/>
		<path class="st0" d="M0,29.6c0.8-2.3,2.5-3.5,4.8-4.3C27.8,17.1,50.9,8.9,73.9,0.6c1.8-0.7,3.7-0.8,5.5-0.2
			c23.5,8.4,46.9,16.8,70.4,25.2c3.2,1.1,4.7,4,3.6,6.8c-0.6,1.6-1.9,2.7-3.6,3.2c-4,1.4-8.1,2.9-12.2,4.4c1.3,3.8,0.7,7.6,0.7,11.4
			c-0.1,2.8-2.3,4.9-5.1,4.9c-1.7,0.1-3.4,0.1-5.1,0c-2.8,0-5.1-2.2-5.1-5c0-0.1,0-0.1,0-0.2c-0.1-1.8,0-3.7,0-5.8
			c-2.6,0.9-4.9,1.7-7.3,2.7c-0.3,0.1-0.4,0.8-0.4,1.2c0,4.7-0.1,9.3,0,14c0.1,2.1-1,4.1-2.8,5.2c-3,1.9-6.4,3.1-9.9,3.6
			c-11.5,2.1-23.3,2.8-35,2c-6.4-0.2-12.7-1.1-18.8-2.6c-2.5-0.7-4.8-1.6-7.1-2.7c-2.3-1-3.6-3.4-3.4-5.8c0.2-4.9,0-9.8,0-14.8
			l-14.6-5.3c-6.3-2.3-12.6-4.6-18.9-6.7c-2.3-0.8-4-2-4.8-4.3V29.6z M38.4,42.5c0-2.1,0.1-4,0-5.9c-0.2-2,0.8-4,2.6-5
			c2-1.2,4.2-2.1,6.4-2.8c6.1-1.9,12.5-2.5,18.9-2.9c12.2-0.9,24.5-0.2,36.6,2c3.4,0.5,6.6,1.7,9.5,3.5c1.9,1.1,3,3.1,2.8,5.3
			c-0.1,1.9,0,3.8,0,5.8c1.4-0.5,2.6-0.9,3.8-1.3c2.5-0.9,5.2-1.4,7-3.8c0.3-0.3,0.7-0.6,1.1-0.7c0.7-0.2,1.1-0.9,1-1.6
			c-0.1-3.5-0.1-7,0-10.5c0.1-0.8-0.4-1.6-1.2-1.7c-16.4-5.8-32.7-11.6-49-17.5c-0.7-0.2-1.4-0.2-2.1,0c-20.7,7.3-41.3,14.7-62,22.1
			l-8.7,3.1L38.4,42.5z M110.2,57.8c0-6.6-0.1-13.4,0.1-20.1c0-1.7-0.6-2.6-2.1-3c-3.7-1.1-7.4-2-11.2-2.7c-13.4-2-27-2-40.3,0
			c-3.9,0.8-7.8,1.7-11.6,2.9c-1.1,0.3-1.6,1.1-1.6,2.4c0.1,6.5,0,12.9,0,19.3c0,0.5,0.1,0.9,0.1,1.1
			C65.4,52.2,88.4,52.2,110.2,57.8z M110.2,63.8c-1.2-0.6-2.4-1.1-3.6-1.5c-4.6-1-9.2-2.1-13.8-2.7c-9.6-1.1-19.3-1.2-28.9-0.3
			c-5.9,0.5-11.8,1.3-17.5,3.3c-0.9,0.3-1.7,0.8-2.5,1.2v0.6c2.2,0.8,4.5,1.6,6.8,2.2c16.5,3.3,33.5,3.5,50.1,0.5
			C104.1,66.6,107.3,65.5,110.2,63.8L110.2,63.8z M133.4,36.1l15.3-5.4l-15.3-5.4V36.1z M133.3,51.1c0-2.7,0.1-5.3,0-7.9
			c0-1.3-1-2.3-2.3-2.3c0,0,0,0-0.1,0c-1.3-0.1-2.5,0.5-2.6,1.8c-0.2,2.8-0.1,5.5-0.1,8.4H133.3z"/>
	</g>
</g>
</svg>
