<?xml version="1.0" encoding="utf-8"?>
<!-- Generator: Adobe Illustrator 24.1.3, SVG Export Plug-In . SVG Version: 6.00 Build 0)  -->
<svg version="1.1" id="Calque_1" xmlns="http://www.w3.org/2000/svg" xmlns:xlink="http://www.w3.org/1999/xlink" x="0px" y="0px"
	 viewBox="0 0 107.4 143.2" style="enable-background:new 0 0 107.4 143.2;" xml:space="preserve">
<style type="text/css">
	.st0{fill:#424242;}
</style>
<g id="Calque_1-2">
	<path class="st0" d="M84.9,27.2v8.1H53.7v-8.1C53.7,27.2,84.9,27.2,84.9,27.2z"/>
	<path class="st0" d="M84.9,54.2v8.1H53.7v-8.1C53.7,54.2,84.9,54.2,84.9,54.2z"/>
	<path class="st0" d="M84.9,80.9V89H53.7v-8.1H84.9z"/>
	<path class="st0" d="M53.7,115.9v-8.1h31.2v8.1H53.7z"/>
	<path class="st0" d="M21.1,87.7c0.6-0.8,1.1-1.6,1.6-2.4c0.8-1.2,1.7-2.4,2.5-3.6c0.3-0.5,0.6-0.6,1.1-0.2c1.2,0.8,2.4,1.7,3.6,2.5
		l0.6,0.4L38,73.9l6.7,4.6c0,0.1,0,0.2-0.1,0.2c-3.7,5.2-7.4,10.5-11.1,15.8c-0.8,1.2-0.9,1.2-2.1,0.3c-3.2-2.2-6.3-4.4-9.5-6.6
		C21.6,88.1,21.4,87.9,21.1,87.7z"/>
	<path class="st0" d="M25.7,107.6l4.9,3.2c0.3-0.3,0.5-0.6,0.7-0.9c2.1-2.9,4.2-5.8,6.3-8.7c0.5-0.8,0.6-0.8,1.4-0.2
		c1.8,1.3,3.5,2.6,5.2,3.8c0.3,0.2,0.4,0.4,0.2,0.8c-3.8,5.4-7.6,10.9-11.5,16.3c-0.1,0.1-0.2,0.2-0.2,0.3l-1.4-1
		c-3-2.1-5.9-4.2-8.8-6.3c-1.2-0.9-1.2-0.9-0.4-2.2c1.1-1.6,2.3-3.3,3.4-4.9C25.4,107.9,25.5,107.7,25.7,107.6z"/>
	<path class="st0" d="M25.6,28l4.9,3.3c0.2-0.3,0.5-0.5,0.6-0.8c2.1-2.9,4.1-5.8,6.2-8.6c0.7-0.9,0.5-1,1.6-0.3
		c1.7,1.2,3.4,2.5,5.1,3.7c0.3,0.2,0.4,0.5,0.2,0.9c-3.8,5.4-7.6,10.9-11.4,16.3c-0.1,0.1-0.1,0.2-0.2,0.3c-1.4-0.9-2.7-1.8-4-2.8
		c-2.2-1.6-4.5-3.3-6.7-4.9c-0.5-0.3-0.6-0.6-0.2-1.2C22.9,31.9,24.2,30,25.6,28z"/>
	<path class="st0" d="M38.1,47.5l6.5,4.5c-0.1,0.2-0.2,0.4-0.3,0.6c-3.7,5.3-7.4,10.6-11.1,15.9C32.8,69,32.5,69,32,68.7
		c-2.1-1.4-4.3-2.8-6.4-4.3c-1.2-0.9-2.5-1.8-3.7-2.6c-0.5-0.3-0.6-0.6-0.3-1.1c1.2-1.8,2.5-3.7,3.7-5.5c0.3-0.5,0.6-0.5,1.1-0.2
		c1.2,0.8,2.4,1.6,3.6,2.5c0.5,0.3,0.7,0.2,1-0.2c1.9-2.7,3.9-5.3,5.8-8C37.2,48.6,37.6,48.1,38.1,47.5z"/>
	<g>
		<path class="st0" d="M84.4,132.6H23.1c-8.1,0-14.7-6.6-14.7-14.7V25.2c0-8.1,6.6-14.7,14.7-14.7h61.3c8.1,0,14.7,6.6,14.7,14.7
			v92.7C99.1,126,92.5,132.6,84.4,132.6z M23.1,13.5c-6.4,0-11.7,5.2-11.7,11.7v92.7c0,6.4,5.2,11.7,11.7,11.7h61.3
			c6.4,0,11.7-5.2,11.7-11.7V25.2c0-6.4-5.2-11.7-11.7-11.7C84.4,13.5,23.1,13.5,23.1,13.5z"/>
	</g>
</g>
</svg>
