<?xml version="1.0" encoding="utf-8"?>
<!-- Generator: Adobe Illustrator 24.1.3, SVG Export Plug-In . SVG Version: 6.00 Build 0)  -->
<svg version="1.1" id="Calque_1" xmlns="http://www.w3.org/2000/svg" xmlns:xlink="http://www.w3.org/1999/xlink" x="0px" y="0px"
	 viewBox="0 0 187.8 110.8" style="enable-background:new 0 0 187.8 110.8;" xml:space="preserve">
<style type="text/css">
	.st0{fill:#424242;}
</style>
<g id="Calque_2_1_">
	<g id="Calque_1-2">
		<path class="st0" d="M187.8,89.5c-1.1,2.2-3.1,2.8-5.5,2.8c-12,0-24,0-35.9,0H144c0.4,1.2,0.7,2.5,0.9,3.7c0.4,3.3,0.8,6.5,1,9.8
			c0.2,3.6-1.3,5-4.9,5H47.2c-4.2,0-5.6-1.3-5.3-5.5c0.3-3.9,1-7.8,1.6-11.8c0-0.4,0.1-0.7,0.2-1.3H5.5c-4.4,0-5.8-1.3-5.4-5.7
			c0.2-2.8,0.6-5.6,1.2-8.3C3,72.1,7.3,68.1,13,65.7c3.3-1.4,6.7-2.3,10-3.4c1.6-0.5,3-1.2,3.4-3c0.1-0.5,0-0.9-0.3-1.3
			c-6.4-4.3-8.7-10.8-9.5-18c-0.9-8.4,0.9-16.1,6.8-22.4c8.6-9.2,22-8.8,30.1,0.8c8,9.4,8.5,25.9,0.9,35.6c-1.1,1.3-2.3,2.5-3.7,3.5
			c-1.2,0.8-1.4,1.8-0.5,2.7c0.9,0.9,2,1.7,3.2,2.2c3.4,1.3,7,2,10.1,3.6c2.8,1.4,5.1,3.6,7.7,5.4c0.5,0.4,1.2,0.6,1.9,0.5
			c3.3-0.7,5.8-3.5,6.2-6.9c0-0.6-0.3-1.1-0.7-1.4C69.5,57.9,66.4,49,65.3,39c-0.9-8.2,0.2-16.2,4.3-23.5C74,7.6,80.3,2.1,89.4,0.5
			s16.8,1.2,23.2,7.6c7.5,7.5,10.5,16.7,10.1,27.1c-0.2,6.8-1.4,13.3-4.9,19.3c-1.9,3.6-4.8,6.5-8.2,8.6c-1,0.4-1.5,1.6-1.1,2.6
			c0,0,0,0,0,0.1c0.7,3.2,3.3,5.6,6.6,6.1c0.5,0,1-0.2,1.4-0.5c3.5-3.9,8-6,12.8-7.5c1.7-0.6,3.5-1,5.3-1.6c1-0.3,1.9-0.8,2.7-1.5
			c1.4-1.3,1.2-2.3-0.4-3.5c-4.3-3.2-6.7-7.6-7.8-12.6c-1.7-7.5-1.6-14.9,2.2-21.9s9.6-11.6,17.9-11.8s14.1,3.9,18.3,10.6
			c5.8,9.2,5.2,23.9-1.4,32.3c-1.1,1.4-2.4,2.6-3.9,3.6c-1,0.8-1.3,1.6-0.5,2.4c0.9,1,2,1.8,3.3,2.4c3.1,1.2,6.4,2,9.5,3.3
			c8,3.2,12.4,9.2,13.2,17.8c0.1,0.6,0.2,1.2,0.3,1.8V89.5z M138,103c-0.2-7.7-2.4-14.2-9.5-17.8c-5-2.3-10.1-4.3-15.4-5.8
			c-8.4-2.6-12.6-8-12.6-16.8c-0.1-2.2,1.1-4.2,3.1-5.1c1.9-1,3.7-2.3,5.2-3.9c3.6-3.8,5-8.7,5.8-13.8c1-7.2,0.5-14.1-3-20.6
			c-7.6-14.2-24.3-15.8-33.7-3c-5,6.9-6.1,14.7-5,22.9s3.9,15.3,12.2,19.1c1.1,0.7,1.8,1.9,2,3.2c0.4,4.7-0.6,9.2-3.9,12.9
			c-2.4,2.8-5.6,4.2-9.1,5.1c-5.2,1.4-10.2,2.8-14.9,5.5c-6.5,3.8-9.7,10.4-9.3,18L138,103z M63.2,74.4c-3.3-2.4-7.4-3.5-11.4-4.6
			c-6.6-1.9-9.8-6.1-10-12.9c-0.1-2,1-3.8,2.8-4.7c1.8-1,3.3-2.4,4.6-4c4.5-6.6,4-17.8-0.8-24.2s-13.4-7.2-19.1-1.3
			c-4.6,4.7-5.6,10.6-4.9,16.8c0.6,5.7,2.5,10.7,8.2,13.3c1,0.7,1.7,1.8,1.8,3.1c0.6,7.1-3,11.8-9.8,13.9c-3.4,1-6.8,2.3-10.1,3.7
			c-4.3,1.9-6.8,6.3-6.4,11h2c11.3,0,22.5-0.1,33.7,0c2.8,0,5.3-0.2,7-2.7c0.3-0.4,0.8-0.8,1.3-1C55.8,78.7,59.4,76.6,63.2,74.4z
			 M124.2,74.1l0.2,0.7c0.3,0.1,0.5,0.3,0.8,0.4c5.2,1.8,9.9,4.8,13.8,8.7c0.6,0.5,1.4,0.7,2.1,0.7c12.3,0,24.7,0,37,0
			c0.5,0,1-0.1,1.6-0.1c-0.2-4.2-1.7-7.6-5.1-10s-7.6-3.6-11.6-4.7c-6.6-1.9-9.7-6-9.9-12.9c-0.1-2.3,0.9-3.5,2.8-4.7
			c1.8-0.9,3.3-2.3,4.4-3.9c4.2-7.2,4.6-14.8,0.6-22.1c-5.3-9.8-16.5-9.9-22.6-0.6c-2.9,4.5-3.3,9.6-2.6,14.8
			c0.7,5.4,2.8,10,8.2,12.6c1.1,0.8,1.7,2,1.8,3.3c0.4,7-3.1,11.7-9.9,13.6c-0.8,0.2-1.7,0.4-2.5,0.7
			C130.4,71.7,127.3,72.9,124.2,74.1L124.2,74.1z"/>
	</g>
</g>
</svg>
