<?xml version="1.0" encoding="utf-8"?>
<!-- Generator: Adobe Illustrator 24.1.3, SVG Export Plug-In . SVG Version: 6.00 Build 0)  -->
<svg version="1.1" id="Calque_1" xmlns="http://www.w3.org/2000/svg" xmlns:xlink="http://www.w3.org/1999/xlink" x="0px" y="0px"
	 viewBox="0 0 171.9 172" style="enable-background:new 0 0 171.9 172;" xml:space="preserve">
<style type="text/css">
	.st0{fill:#FFFFFF;}
</style>
<g id="Calque_2_1_">
	<g id="Calque_1-2">
		<path class="st0" d="M0,127.3c0.7-2.9,1.5-5.7,2.5-8.5c3.2-7.6,9.2-12.7,16.2-16.7c6.5-3.6,13.5-6.1,20.8-7.4c3.1-0.5,6-2,8.3-4.1
			c-0.6-0.3-1.2-0.6-1.7-0.9c-3.9-2.3-7.8-4.6-11.7-6.9c-0.7-0.5-1.3-1.3-1.4-2.2c-2.4-11.4-3.8-23-3-34.7
			c0.6-7.8,2.1-15.4,5.7-22.5c6.9-13.8,18.5-21,33.5-23c8.6-1,17.2,0.1,25.2,3.4c13.4,5.2,21,15.5,24.6,29c2.8,10.2,3,20.7,1.8,31.2
			c-0.6,5.2-1.6,10.3-2.5,15.4c-0.2,1-0.8,1.9-1.6,2.6c-5.5,4.2-11.5,7.8-17.9,10.5c-0.6,0.4-1.3,0.2-1.7-0.4c0,0-0.1-0.1-0.1-0.1
			c-1.3-2.1-2.6-4.1-4-6.3C88,90,82.7,93.9,75.6,94s-12.8-2.5-17.8-7.5c-1.2,1.8-2.4,3.5-3.4,5.2c-0.2,0.4,0.1,1.2,0.2,1.8
			c1.4,5.7,2.9,11.4,4.4,17.1c0.7,2.9,0.6,5.6-1.8,7.8c9.7,8.8,15.7,19.7,19,32.8c3.3-13,9.3-24,19.1-32.8c-2.8-2.6-2.4-5.7-1.5-8.9
			c0.7-2.7,1.5-5.5,2.5-8.1c0.6,3.3,1.5,6.6,1.8,10c0.2,3.5,0.2,6.9,0,10.4c0,0.9-0.4,1.7-0.9,2.3c-9.6,9.8-14.9,21.6-16.8,35.1
			c-0.3,2.4-0.5,4.9-0.8,7.5h21l1.6,5.4H12.4c-0.2-0.1-0.5-0.2-0.7-0.3c-5.5-1.5-8.9-5.4-9.4-11.1c-0.6-6.7-1.1-13.4-1.7-20
			c-0.2-2.5-0.4-5-0.6-7.5L0,127.3z M45.1,98.9c-2.4,0.6-4.5,1.1-6.6,1.6c-8.8,2-17,5.2-23.9,11.2C9,116.5,5.2,122.5,5.5,130
			c0.3,9.9,1.3,19.9,2.2,29.8c0.4,4.6,3.1,6.9,7.7,6.9h57.4c-0.1-6.5-1.2-12.9-3.2-19c-3.1-10-8.9-19-16.8-25.8
			c-0.7-0.9-1.9-1.3-3-1c-4.4,1.2-8.9,2.2-13.3,3.3c-1.1,0.3-2.3,0.6-3.4,0.8c-2.9,0.4-4-1.1-2.8-3.8c0.6-1.3,1.3-2.5,2.1-3.6
			C36.5,111.4,40.8,105.2,45.1,98.9z M51.6,86.3c0.7-1.3,1.2-2.6,1.8-3.9c0.2-0.6,0.1-1.3-0.2-1.8c-5.9-9.8-8.4-20.6-9.8-31.8
			c-0.2-1.8,0.3-2.5,2-3.1c13.5-5.2,23.5-14,28.8-27.7c0.4-0.8,0.9-1.6,1.4-2.4c0.7,1.1,1.1,1.8,1.5,2.6c1.3,2.3,2.4,4.8,3.9,7
			c6.3,9,15,15.3,24.7,20.1c1.6,0.8,2.4,1.5,2,3.6c-1.8,10.6-4.4,21-10.1,30.3c-0.3,0.5-0.4,1-0.3,1.5c0.6,1.8,1.4,3.5,2.1,5.3
			c4.7-2.1,9.2-4.8,13.3-7.9c0.4-0.4,0.6-0.9,0.7-1.4c0.7-4.5,1.6-8.9,2.1-13.4c1-9.6,0.9-19.2-1.5-28.7s-7.1-17.5-15.6-22.9
			C92,7.9,85.1,6.2,77.8,5.6c-10.6-0.8-20.2,1.9-28.5,8.7S37.6,30,36,40.1c-2,12.7-0.6,25.3,1.8,37.8c0.1,0.4,0.3,0.8,0.6,1.1
			C42.5,82,46.9,84.4,51.6,86.3z M75.8,27.5c-0.2,0.2-0.3,0.2-0.4,0.3C69.3,37.9,60.7,45,50,49.6c-1.1,0.5-1,1.2-0.8,2
			c0.8,6.3,2.4,12.5,4.6,18.4c2.1,5.2,4.7,10.2,9.1,13.9s9.5,5.7,15.4,4.4c5.1-1.1,8.9-4.4,12.1-8.4c6.8-8.7,9.6-18.9,11.4-29.5
			c0-0.6-0.3-1.1-0.8-1.4C91.1,43.7,82.3,37,75.8,27.5z M50.7,100.2l-12,17.5c2.4-0.6,4.3-1,6.3-1.5c2.5-0.5,4.9-0.9,7.4-1.4
			c1-0.2,1.7-0.8,1.4-2C52.8,108.7,51.8,104.6,50.7,100.2z"/>
		<path class="st0" d="M149.2,172c-3.3-1.2-4.6-3.6-4.8-7.1c-0.4-7.4-1-14.7-1.5-22.1c-0.1-1.1-0.1-2.2-0.2-3.4
			c-0.1-2.1,1.1-4,3.1-4.7c0.9-0.3,1.2-0.7,1.2-1.6c0-4,2-6.5,5.6-7.9c0.5-0.2,0.8-0.7,0.9-1.2c0.1-8.4,0-16.9,0-25.3
			c0-0.2-0.1-0.4-0.1-0.6c-1.5,0.3-2.1-0.7-2.8-1.8c-3.4-5.9-6.8-11.7-10.2-17.5c-0.3-0.5-0.6-1.1-0.9-1.6c9-7.4,21.9-8.6,32.2,0
			c-0.7,1.3-1.5,2.7-2.2,4.1c-2.9,5.2-5.7,10.4-8.6,15.5c-0.5,0.6-1,1.1-1.6,1.6l-0.4-0.2v3.7c0,7.2,0,14.4,0,21.7
			c-0.2,0.9,0.4,1.8,1.3,2.1c3,1.1,5,4.1,4.9,7.4c-0.1,0.9,0.4,1.7,1.2,2.1c1.8,0.9,2.8,2.9,2.5,4.9c-0.5,7-1,13.9-1.5,20.9
			c-0.1,1.3-0.2,2.7-0.2,4c0,3.4-1.4,5.8-4.6,7L149.2,172z M148.2,140.8c0.1,1.6,0.2,3,0.3,4.4c0.5,6.7,0.9,13.4,1.4,20.1
			c0,0.4,0.6,1.2,0.9,1.2c3.6,0.1,7.1,0.1,10.9,0.1c0.6-8.7,1.2-17.2,1.8-25.8H148.2z M164.8,79.1c-4.9-3.3-13.7-3.2-17.8,0.1
			l1.7,2.9c4.9-1.6,9.6-1.9,14.4,0.2L164.8,79.1z M151.5,86.8c1.1,1.8,2,3.6,3.1,5.3c0.7,0.9,2,1,2.8,0.3c0.1-0.1,0.1-0.1,0.2-0.2
			c1-1.7,1.9-3.4,2.9-5.2C157.6,85.8,154.4,85.7,151.5,86.8L151.5,86.8z M152.5,134.3h7.2c0.2-3.1-0.7-3.9-3.8-3.9
			C153.2,130.4,152.4,131.3,152.5,134.3L152.5,134.3z"/>
		<path class="st0" d="M108.5,172c-2-1.3-2.5-3.5-3-5.6c-0.9-4.1-1.7-8.2-2.6-12.3c-0.1-0.7-0.2-1.3-0.2-2c0-11.6-0.1-23.2,0-34.7
			c0.1-5.5-0.5-10.9-1.8-16.2c-1.2-4.7,0.8-7.1,5.6-7.1h26.2c4.1,0,6.3,2.6,5.3,6.6c-1.6,6.7-2.3,13.6-2,20.4
			c0.2,7.5-0.1,15.1,0.1,22.7c0.2,6.7-0.5,13.3-2.2,19.8c-0.3,1.6-0.7,3.2-1.2,4.7c-0.7,1.3-1.5,2.6-2.4,3.9L108.5,172z M116.8,99.5
			c-0.2,2.1,0.6,5.1-2.6,5.2c-3.6,0.1-2.6-3.1-3-5.2h-5c0.1,0.4,0.1,0.8,0.2,1.1c1.3,4.8,1.9,9.8,1.9,14.7
			c-0.2,10.6-0.1,21.3-0.1,31.9v1.9h22.4v-1.7c0-11.7,0-23.4,0-35.1c0-1.8,0.2-3.6,0.6-5.3c0.4-2.5,1-4.9,1.5-7.4h-5.1
			c-0.5,4.3-1,5.4-2.8,5.2c-3.4-0.3-2.5-3.1-2.8-5.2L116.8,99.5z M108.6,154.6c0.8,3.8,1.5,7.4,2.3,10.9c0.2,0.5,0.7,0.9,1.3,1.1
			c5,0.1,10,0,14.9,0c0.2,0,0.4-0.1,0.7-0.2l2.4-11.8L108.6,154.6z"/>
	</g>
</g>
</svg>
