<?xml version="1.0" encoding="utf-8"?>
<!-- Generator: Adobe Illustrator 24.1.3, SVG Export Plug-In . SVG Version: 6.00 Build 0)  -->
<svg version="1.1" id="Calque_1" xmlns="http://www.w3.org/2000/svg" xmlns:xlink="http://www.w3.org/1999/xlink" x="0px" y="0px"
	 viewBox="0 0 149.7 174.2" style="enable-background:new 0 0 149.7 174.2;" xml:space="preserve">
<style type="text/css">
	.st0{fill:#FFFFFF;}
</style>
<g id="Calque_2_1_">
	<g id="Calque_1-2">
		<path class="st0" d="M4.5,174.2C1,172.7-0.2,170,0,166.3c0.2-1.9,0-3.7,0-5.6s1-3,2.6-2.9s2.5,1.1,2.5,3c0,2.2,0,4.4,0,6.6
			c0,1.2,0.4,1.7,1.7,1.7c6.9,0,13.8,0,20.8,0c1,0,1.7-0.1,1.7-1.3c0-6.6,0-13.3-0.1-19.9c0-0.1-0.1-0.2-0.2-0.4H5.2
			c0,0.9,0,1.7,0,2.6c0,1.4-1.1,2.5-2.5,2.5c-1.3,0.1-2.5-1-2.5-2.3c0,0,0-0.1,0-0.1c-0.1-4.1-0.1-8.3,0-12.4c0.1-1.7,1-3.3,2.4-4.4
			c0.5-0.5,0.9-1.2,0.9-1.9c0.1-10,0.2-20.1,0-30.1c-0.1-5,3.5-6.6,6.9-6.3c3.9,0.4,7.6,1.6,10.8,3.7c3.2,1.9,6.4,4,8.3,7.4
			c0.9,1.6,1.5,3.4,1.6,5.2c0.2,4.8,0.1,9.6,0.1,14.4l17.3-4.5c0-3.2,0-6.5,0-9.8c0-0.4-0.5-1-1-1.2c-9.7-6.1-17.1-15.4-20.7-26.3
			c-0.4-1.2-1-1.6-2.2-1.4c-0.9,0.1-1.8,0.2-2.7,0.2c-2,0-3.2-0.8-3.2-2.4s1.1-2.6,3-2.7c4.6-0.1,9.2-0.8,13.6-2.2
			C42.9,73,50.3,69.1,56.9,64c8.8-6.7,16.3-14.6,21.6-24.4c0.6-1.1,1.1-2.2,1.6-3.4c0.6-1.3,1.5-2.2,3-1.9s2,1.4,2.1,2.9
			c0.5,7.4,1.8,14.6,5,21.4c3.6,7.4,9,12.9,17.2,14.9c1.1,0.3,2.2,0.4,3.3,0.7c2,0.4,3,1.5,2.7,3s-1.6,2.4-3.7,2l-2.7-0.4
			c-1.2,3.2-2.2,6.2-3.4,9.3c-0.7,1.6-1.4,3.1-2.3,4.6c-0.5,1.3-2,1.9-3.3,1.4c-0.1,0-0.2-0.1-0.2-0.1c-1.3-0.7-1.6-2.1-0.9-3.7
			c1.8-4.2,3.6-8.4,5.6-12.8c-6.3-2.6-11.5-7.1-14.9-13C84.2,58.6,82,52.2,81,45.6c-5.8,8.8-13.2,16.6-21.7,22.9
			C51,74.9,41.3,79.4,31,81.7c5.5,13,13.3,23.4,27,28c7.5,2.6,14.8,1.2,21.6-2.5c3.8-2,7.3-4.6,10.3-7.7c0.3-0.4,0.7-0.7,1.1-1.1
			c0.9-1,2.5-1.1,3.5-0.1c0,0,0.1,0.1,0.1,0.1c1,0.9,1,2.5,0.1,3.4c-0.1,0.1-0.1,0.1-0.2,0.2c-2.7,2.6-5.6,5.1-8.7,7.3
			c-1.6,1.1-2.3,2.2-2.2,4.1c0.2,2.6,0,5.2,0,7.9c3.3,0.8,6.4,1.7,9.6,2.4c6.1,1.3,11.5,3.8,15.6,8.6c0.2,0.1,0.4,0.3,0.6,0.4
			c1-1.6,2.1-3.2,3.1-4.8c1.2-2,2.5-2.6,4-1.8s1.7,2.3,0.4,4.3s-2.8,4-4,6.1c-0.3,0.5-0.5,1.2-0.3,1.8c1.3,3.4,2,7,2,10.6
			c0.2,2.9,0.3,5.9,0.5,8.8c0.2,2.7-0.6,3.6-3.4,3.6c-7.8,0-15.7,0-23.5,0H34.4c0,1.8-0.1,3.3,0,4.9c0.3,3.7-1,6.4-4.4,7.9H4.5z
			 M53.4,113.4c0,2.9,0,5.3,0,7.8c0,3-1,4.3-3.9,5.1c-3.6,0.9-7.3,1.7-10.9,2.7c-2.3,0.7-4.6,1.6-6.8,2.5c-0.9,0.4-1.1,1-0.2,1.6
			c2.2,1.5,2.9,3.6,2.8,6.2c0,4,0,8,0,12.1v4.8H110c-0.2-3.3-0.4-6.4-0.7-9.6c-0.4-8-5.9-14.9-13.7-16.9c-4.1-1.1-8.2-2.1-12.3-3.1
			c-3.9-0.9-4.7-1.9-4.7-5.9c0-2.3,0-4.7,0-7.3C70.6,116.9,61.5,116.9,53.4,113.4z M8.6,132.1h17.2v-16.7c-6.7,0-12-3.1-17.2-7
			V132.1z M29.3,142.2c0-1.3,0-2.3,0-3.4s-0.4-1.4-1.4-1.4c-7.1,0-14.2,0-21.4,0c-0.6,0.1-1.1,0.5-1.3,1.1c-0.1,1.2-0.1,2.5-0.1,3.7
			L29.3,142.2z M25.7,110c-1.6-4.5-12.4-10.8-16.9-9.8C9.2,104.2,21.4,111.5,25.7,110L25.7,110z"/>
		<path class="st0" d="M69.5,0C73,0.6,76.5,1,80,1.8c9.9,2.4,19,7.5,26.2,14.7c0.3,0.3,0.7,0.6,1.2,1.1c0.5-1.3,0.9-2.4,1.3-3.6
			c0.8-2.3,2.2-3.5,4.1-3.4c2,0,3.6,1.5,3.9,3.4c0.8,4.5,4.3,8,8.8,8.8c1.9,0.3,3.4,1.9,3.4,3.9c0.1,1.9-1.2,3.2-3.4,4.1
			c-2.1,0.9-4.1,1.9-6,3.1c-0.8,0.5-0.9,1.3-0.5,2.2c3.1,7.7,4.1,15.7,4,24c0,6,0,12,0,18c0,0.6,0,1.3-0.1,1.9
			c-0.1,1.3-1.2,2.3-2.5,2.2c0,0-0.1,0-0.1,0c-1.3,0-2.3-1-2.3-2.2c0,0,0,0,0,0c-0.1-1-0.1-1.9-0.1-2.9c0-7.8,0.1-15.7-0.2-23.5
			c-0.2-3.9-1.1-7.8-1.7-11.9c-4,2.2-6.4,1.3-7.4-2.6c-1-4.2-4.3-7.4-8.5-8.3c-2.9-0.7-4.1-2.7-3.5-5.1c0.3-1.3,1.4-2.4,2.7-2.8
			c1.4-0.5,2.8-1,4.3-1.6c-0.2-0.3-0.3-0.5-0.5-0.8C92,9.8,78.6,4.3,63,5.3c-16.8,1-30.1,8.8-39.8,22.5C17,36.5,13.8,47,14,57.7
			c0,9.6,0,19.2,0,28.7c0,0.6,0,1.1-0.1,1.7c-0.1,1.2-1.2,2.2-2.4,2.2c-1.2,0.1-2.3-0.8-2.5-2.1c-0.1-0.4-0.1-0.9-0.1-1.4
			c0-9.6-0.1-19.3,0-28.9C9,40,15.8,25,29.5,13.3c8-6.8,17.8-11.2,28.1-12.6c1.7-0.2,3.4-0.4,5-0.7H69.5z M112.7,35.6
			c1.6-4.1,4.8-7.3,8.9-8.8c-4.2-1.4-7.5-4.6-8.9-8.8c-1.5,4.1-4.7,7.3-8.8,8.9C108,28.3,111.2,31.5,112.7,35.6z"/>
		<path class="st0" d="M140.6,93.8c-0.6,4.5-1.2,9.8-1.9,15.1c-0.2,1.8-0.4,3.6-0.7,5.4c-0.1,0.3,0,0.7,0.1,1
			c2.4,6.2,4.9,12.4,7.2,18.6c1.4,3.6,2.8,7.2,3.9,10.9c1.7,5.2-1.1,10.8-6.3,12.5c-0.6,0.2-1.1,0.3-1.7,0.4
			c-4.8,0.8-9.3-1.9-11.1-6.9c-2.5-6.9-5-13.7-7.5-20.6c-1-2.7-1.7-5.5-2.5-8.2c-0.2-0.5-0.6-0.9-1-1.3c-4.8-4.4-9.6-8.8-14.3-13.3
			c-3.8-3.6-4.5-8.4-1.5-12.2c1.2-1.4,2.6-2.4,4.3-3.1c7-2.7,14-5.2,21-7.7C135,82.2,140.7,86.3,140.6,93.8z M128.9,89.8
			c2.5,3.7,2.6,7.9,3.2,11.9c0.2,1.3-0.7,2.6-2,2.8c0,0-0.1,0-0.1,0c-1.4,0.2-2.6-0.7-2.8-2.1c0,0,0,0,0,0c-0.2-0.9-0.2-1.9-0.4-2.8
			c-0.6-2.3-1.2-4.6-1.9-6.8c-0.3-1-1-1.2-2-0.8c-1.6,0.8-3.4,1.4-5.1,1.8c-1.9,0.4-2.2,1.5-1.5,3c1.2,2.5,2.5,4.9,3.8,7.3
			c1,1.9,1,3.3-0.4,4.2s-2.8,0.3-4-1.4c-2-3.2-4.3-6.4-4.8-10.5c-1.9,0.5-3.5,1-4.1,2.9s0.4,3.3,1.8,4.6c4.6,4.2,9.1,8.3,13.6,12.6
			c0.7,0.8,1.9,1.1,2.8,0.5c1.9-0.8,3.9-1.5,5.9-2.1c1.7-0.5,2.6-1.3,2.5-3.2c0-1.1,0.2-2.1,0.4-3.2c0.6-5.2,1.4-10.3,1.9-15.5
			c0.3-3.1-2.1-4.9-5.1-3.9C130,89.3,129.5,89.6,128.9,89.8L128.9,89.8z M129,133c2.1,5.8,4.2,11.4,6.3,17c0,0.1,0,0.1,0.1,0.1
			c1.2,2.2,3.8,3.2,6.1,2.3c2.4-0.8,3.7-3.3,3-5.7c-0.9-2.9-2-5.8-3-8.6s-2-5.6-3.1-8.4L129,133z M134.9,120.1l-9.3,3.4l1.7,4.6
			l9.3-3.4L134.9,120.1z"/>
	</g>
</g>
</svg>
