<svg xmlns="http://www.w3.org/2000/svg" viewBox="0 0 381.37 116.72"><defs><style>.cls-1{fill:#fff;}.cls-2{fill:#e63129;}.cls-3{fill:#010101;}</style></defs><g id="Calque_2" data-name="Calque 2"><g id="Calque_1-2" data-name="Calque 1"><rect class="cls-1" width="381.37" height="116.72"/><path class="cls-2" d="M104.12,31.62a70.25,70.25,0,0,0-5.69-4.79,32.27,32.27,0,0,0-6.23-3.66A19.6,19.6,0,0,0,88.43,22a15,15,0,0,0-4.59-.32,12.13,12.13,0,0,0-2.66.55,9.39,9.39,0,0,0-1.37.56l-.35.16-.25.13-.45.24L77,24.2l-.43.22-.41.2-.38.16c-.13.07-.23.09-.34.14s-.29.09-.44.15a3,3,0,0,1-.43.07A5.8,5.8,0,0,1,73,25.09c-.76-.09-1.8-.31-3.07-.58l-.51-.11-.68-.13c-.23-.05-.48-.07-.72-.11s-.49-.06-.75-.07a15.32,15.32,0,0,0-3.29.09,17,17,0,0,0-3.84,1A20.91,20.91,0,0,0,56.53,27a33.28,33.28,0,0,0-6.28,5.32,103.52,103.52,0,0,0-9.8,12.81C37.57,49.42,35,53.39,32.7,56.43l-.83,1.11-.4.51-.24.3-.39.49c-.27.33-.52.65-.79,1l-.82.94c-.14.16-.26.31-.4.46l-.43.45-.83.87c-.29.28-.61.56-.91.84l-.44.4c-.15.13-.28.26-.46.4s-.34.26-.48.39l-.38.38-.37.37a2.32,2.32,0,0,0-.16.18l-.08.15-.31.58-.14.27-.07.13a.21.21,0,0,0,0,.07v0l-.15.73a1.36,1.36,0,0,0,0,.38v.34a.72.72,0,0,0,0,.28l.05.25a5.49,5.49,0,0,0,.22.68.87.87,0,0,0,.06.16l.1.2.11.21a2.74,2.74,0,0,0,.38.56,3.89,3.89,0,0,0,.91.85,4.91,4.91,0,0,0,1.28.61,8.49,8.49,0,0,0,1.73.31,25.52,25.52,0,0,0,4.15-.16c1.41-.15,2.81-.36,4.12-.6.66-.13,1.3-.25,1.92-.39l.46-.1.34-.07.47-.11c1.22-.29,2.27-.57,3.17-.82,1.81-.51,3-.91,3.77-1.16l1.08-.37s.69-.24,1.93-.71,3-1.18,5.18-2.19a70.34,70.34,0,0,0,7.43-4.05l1-.66.26-.17.22-.14.44-.28c.3-.18.6-.38.9-.55l.89-.48a8.4,8.4,0,0,1,.87-.41,3.93,3.93,0,0,1,.43-.18l.38-.12.2-.07a.7.7,0,0,1,.18,0l.34-.06.16,0h.16l.3,0a8.41,8.41,0,0,1,1.72.29l1.37.34c.48.12,1,.22,1.6.32s1.14.15,1.71.22,1.16.06,1.74.06l1.72-.07,1.65-.2a22.27,22.27,0,0,0,3.36-.73,18.06,18.06,0,0,0,3.36-1.39,28.49,28.49,0,0,0,2.81-1.78,7.19,7.19,0,0,1,1.6-.95,2.54,2.54,0,0,1,.59-.16,4.27,4.27,0,0,1,.76,0,10.52,10.52,0,0,1,2,.22c.75.14,1.53.33,2.32.56l1.29.38,1.38.38a64.53,64.53,0,0,0,10.47,1.79,69.5,69.5,0,0,0,12.13,0l.94-.09,1.06-.11c.69-.09,1.36-.18,2-.28,1.26-.19,2.4-.41,3.39-.65a24.24,24.24,0,0,0,2.55-.73A9.68,9.68,0,0,0,134.4,55a4.57,4.57,0,0,0,1.91-2,3.44,3.44,0,0,0,.21-.53,4.18,4.18,0,0,0,.15-.63,3.32,3.32,0,0,0,0-.37.76.76,0,0,0,0-.16l0-.27-.06-.27c0-.13-.08-.27-.13-.4l-.14-.39,0-.1a.38.38,0,0,0-.07-.11l-.19-.27-.4-.54-.21-.26-.1-.13,0-.06s-.07-.05-.1-.08l-1.85-1.13c-.25-.09-.5-.18-.73-.28l-.64-.29-1.26-.57-.61-.28a3.92,3.92,0,0,1-.58-.29l-1-.57c-.69-.39-1.36-.73-2-1.13l-.06,0h0l-.06,0-.13-.06-.26-.14-.51-.27-4.1-2.18c-2.76-1.47-5.63-3-8.9-4.61,2.13,3,4,5.59,6.11,8.06a48.69,48.69,0,0,0,3.35,3.58l.9.84c0,.08.06.16.07.23a.54.54,0,0,1,0,.3.27.27,0,0,1-.29.15h-.2l-.09,0h-.16a61.82,61.82,0,0,1-10.74,0A54.68,54.68,0,0,1,102.23,48L101,47.7l-1.31-.38a30.58,30.58,0,0,0-3-.73,19.49,19.49,0,0,0-3.51-.37,13.53,13.53,0,0,0-2.05.16c-.35,0-.72.15-1.08.23s-.72.21-1.07.35a11.19,11.19,0,0,0-1.9.93c-.55.32-1,.65-1.43.93a18.7,18.7,0,0,1-2,1.3,10.09,10.09,0,0,1-1.91.79,13.37,13.37,0,0,1-2.2.47l-1.15.15-1.09,0-1.05,0c-.35,0-.68-.07-1-.13s-.69-.13-1.09-.23l-1.28-.31a15.62,15.62,0,0,0-3.56-.52c-.33,0-.67,0-1,0l-.5,0-.48.08-.93.19a2.83,2.83,0,0,0-.44.11l-.42.13-.83.27-.74.31c-.47.22-1,.42-1.39.66l-1.26.68c-.4.23-.77.47-1.14.71l-.56.35-.51.32-.89.58a60.78,60.78,0,0,1-6.56,3.59c-1.93.9-3.52,1.54-4.63,2s-1.73.63-1.73.63l-1,.33c-.68.23-1.77.59-3.39,1-.8.23-1.75.48-2.84.73l-.41.1-.12,0h0l0,0,.63-.82.91-1.19c2.45-3.29,5.13-7.37,8-11.54a95.45,95.45,0,0,1,9-11.8,25.87,25.87,0,0,1,4.75-4.07,10.59,10.59,0,0,1,4.26-1.68,6.88,6.88,0,0,1,1.62,0,2.45,2.45,0,0,1,.38,0,2.23,2.23,0,0,1,.36,0l.35.06.23,0,.25.05c1.34.29,2.54.54,3.75.7a14.1,14.1,0,0,0,3.55,0,11.86,11.86,0,0,0,1.51-.3c.42-.14.84-.26,1.16-.39s.5-.2.71-.3l.64-.3.57-.3.55-.29c.34-.2.69-.39,1-.58l.92-.56.74-.46a5,5,0,0,1,.46-.26,6,6,0,0,1,1.09-.38,11.25,11.25,0,0,1,2.7-.31,26.21,26.21,0,0,1,3,.17c2.06.23,4.18.63,6.39,1.1S101.57,31,104.12,31.62Z"/><path class="cls-2" d="M48.63,85.41c-1.85-1.88-3.45-3.65-5-5.35s-3-3.34-4.56-5l-.15-.15-.07-.08s-.06-.06,0-.06l0-.11a.82.82,0,0,1-.06-.19,1.09,1.09,0,0,1,0-.29.31.31,0,0,1,.2-.27.62.62,0,0,1,.33,0,1.28,1.28,0,0,1,.23.08h.19l.66,0,1.45-.06c.52,0,1.07-.07,1.66-.13a29,29,0,0,0,4.69-.75l.33-.08.3-.08.52-.13,1.06-.28c.72-.18,1.46-.35,2.22-.52a56.67,56.67,0,0,1,9.73-1.3c.84,0,1.67,0,2.49,0,.4,0,.81,0,1.2.09l.61.06.77.09c2.05.22,4.06.34,6.07.39s4,.05,6.06-.06l.78-.05.81-.07.41,0,.46-.06c.3,0,.6-.1.89-.16,1.13-.23,2.08-.49,3-.76A84,84,0,0,0,96.1,66.39l1.16-.54c.3-.13.58-.27.88-.39l.9-.36.91-.32c1.2-.41,2.4-.73,3.5-1,2.22-.55,4.09-.91,5.4-1.15l2-.36,4.35-.72c1.65-.26,3.84-.62,6.69-1.22.72-.16,1.47-.32,2.28-.52l.61-.15.12,0h0s0,0,0,0v0l-.64,1-.77,1.1c-.52.74-1.06,1.47-1.63,2.21a69.86,69.86,0,0,1-7.57,8.38,62.4,62.4,0,0,1-8.08,6.45,56.32,56.32,0,0,1-9.37,5.09A52.3,52.3,0,0,1,91,85.88c-2.72.8-5.19,1.38-7.51,1.87S79,88.63,76.84,89s-4.28.64-6.53.88-4.62.4-7.25.45a47.9,47.9,0,0,0,6.87,2.9,38.29,38.29,0,0,0,6.95,1.6,40,40,0,0,0,16.31-1.29A58.81,58.81,0,0,0,100,91.15a63.53,63.53,0,0,0,10.73-5.79,71.78,71.78,0,0,0,9.1-7.27,76.89,76.89,0,0,0,8.44-9.35c.63-.82,1.24-1.64,1.82-2.46l.85-1.22.41-.61.47-.73a51.28,51.28,0,0,0,4.62-8.64,11.13,11.13,0,0,0,.51-1.72A4.63,4.63,0,0,0,137,52a4,4,0,0,0-.19-1,3.55,3.55,0,0,0-.33-.76,3.7,3.7,0,0,0-.46-.65l-.17-.19,0-.05-.07-.07a.44.44,0,0,0-.07-.09l-.12-.11a1,1,0,0,0-.28-.2l-.43-.25-.61-.29-.15-.07-.07,0h-.13l-.52,0-.51,0h-.38s0,0-.08,0l-.1,0-1.56.65-.19.08-.09,0-.11.07-.43.27-.11.07-.09,0-.18.09-.37.16a20.69,20.69,0,0,1-2.76,1.15c-.84.28-1.68.56-2.47.77l-1.06.27-.54.14-2.06.47c-2.63.55-4.71.9-6.3,1.15l-3.44.57-1,.17-2.14.37C106,55,104,55.42,101.52,56c-1.26.31-2.63.68-4.13,1.19l-1.14.4c-.39.14-.79.31-1.19.47l-1.22.54-1,.46a76.18,76.18,0,0,1-9.22,3.34c-.81.23-1.66.46-2.36.6l-.49.08-.25,0-.28,0-.6,0-.64,0c-1.72.09-3.57.1-5.4,0s-3.66-.16-5.4-.35l-.64-.08-.81-.08c-.56-.07-1.09-.09-1.63-.13-1.06,0-2.1,0-3.12,0a62.79,62.79,0,0,0-11.18,1.48c-.85.19-1.67.38-2.47.58L47.17,65l-.58.15-.13,0-.11,0-.21,0a22.64,22.64,0,0,1-3.49.55c-.48.05-.94.08-1.38.1S40.42,66,40,66l-.57,0H36.34l-1.94-.11-.89,0c-.3,0-.62-.07-.91-.1l-1.69-.2-.39,0a3.92,3.92,0,0,1-.41-.07l-.88-.19-2-.16a.47.47,0,0,0-.3,0l-.23.08-.41.16-.72.26-.3.27-.25.22a1.51,1.51,0,0,0-.18.18l-.21.25a1.46,1.46,0,0,0-.28.45.62.62,0,0,0-.06.18s0,.12,0,.15l0,.09a2.18,2.18,0,0,0-.11.35,4.25,4.25,0,0,0-.12.62,2.63,2.63,0,0,0,0,.68,3.39,3.39,0,0,0,.08.39,3.34,3.34,0,0,0,.1.4,5.37,5.37,0,0,0,1.18,2,30.34,30.34,0,0,0,2.46,2.22c.88.73,1.78,1.44,2.67,2.11s1.77,1.33,2.63,1.94l1.28.89.63.42.11.08.1.05.19.11a62.49,62.49,0,0,0,6.22,3.15A69.72,69.72,0,0,0,48.63,85.41Z"/><path class="cls-3" d="M159.2,91.14l-.5,1.67h-4.25v-.09h.11a.59.59,0,0,0,.6-.59V86.92a.6.6,0,0,0-.59-.54h-.12v-.09h3.07a4,4,0,0,0,1.11-.17v.48h0v.88h-.09v-.14a.69.69,0,0,0-.68-.72h-1.77v2.81h1.44a.59.59,0,0,0,.59-.6v-.11h.09v1.75h-.09v-.11a.59.59,0,0,0-.58-.6h-1.45v2.72h1.29a1.72,1.72,0,0,0,1.73-1.33Z"/><path class="cls-3" d="M165.66,90.47l0,1.33a2.83,2.83,0,0,1-2.47,1.14c-2,0-3.19-1.1-3.19-2.92s1.22-2.92,3.19-2.92a4.64,4.64,0,0,1,2.15.5l.12,1.39h-.08a2,2,0,0,0-2.15-1.58c-1.43,0-2.25,1-2.25,2.6s.84,2.59,2.21,2.61a2.15,2.15,0,0,0,2.41-2.15Z"/><path class="cls-3" d="M173.06,90a3.22,3.22,0,1,1-3.21-2.92A2.95,2.95,0,0,1,173.06,90Zm-1,0a2.24,2.24,0,1,0-2.21,2.6A2.32,2.32,0,0,0,172.06,90Z"/><path class="cls-3" d="M178.25,91.32l-.46,1.49h-4v-.09h.13a.51.51,0,0,0,.52-.49V87.82a.52.52,0,0,0-.54-.5h-.11v-.1H176v.1h-.11a.53.53,0,0,0-.54.5v4.67h1.32a1.52,1.52,0,0,0,1.52-1.17Z"/><path class="cls-3" d="M183.12,91.32l-.45,1.49h-4v-.09h.12a.52.52,0,0,0,.53-.49V87.8a.51.51,0,0,0-.53-.49h-.12v-.1h3a3.93,3.93,0,0,0,1-.14v1.23h-.1v-.12a.6.6,0,0,0-.62-.65h-1.69v2.33h1.37a.51.51,0,0,0,.52-.54v-.09h.1v1.58h-.1v-.1a.5.5,0,0,0-.5-.53h-1.39v2.3h1.32A1.52,1.52,0,0,0,183,91.32Z"/><path class="cls-3" d="M192.36,90.09l0,1.52a2.85,2.85,0,0,1-2.62,1.33,3.39,3.39,0,1,1,0-6.78,4.3,4.3,0,0,1,2.25.58l.12,1.43H192a2.16,2.16,0,0,0-2.25-1.68c-1.57,0-2.56,1.19-2.56,3s1,3,2.48,3.09,2.32-.65,2.57-2.53Z"/><path class="cls-3" d="M199.67,90a3.22,3.22,0,1,1-3.2-2.92A2.94,2.94,0,0,1,199.67,90Zm-1,0a2.24,2.24,0,1,0-2.21,2.6A2.32,2.32,0,0,0,198.68,90Z"/><path class="cls-3" d="M202.71,92.81h-2.33v-.09h.12a.55.55,0,0,0,.59-.5v-4.4h0a.55.55,0,0,0-.59-.5h-.12v-.1h2.33v.1h-.12a.55.55,0,0,0-.59.48v4.43a.56.56,0,0,0,.59.49h.12Z"/><path class="cls-3" d="M206.52,87.22a4,4,0,0,0,1-.14v1.23h-.1v-.12a.61.61,0,0,0-.63-.65h-1.7v2.33h1.39a.5.5,0,0,0,.51-.54v-.09h.1v1.58H207v-.1a.49.49,0,0,0-.49-.53h-1.41v2a.51.51,0,0,0,.53.5h.12v.09h-2.21v-.09h.12a.51.51,0,0,0,.53-.49V87.8a.5.5,0,0,0-.53-.48h-.12v-.1Z"/><path class="cls-3" d="M211.44,87.22a4,4,0,0,0,1-.14v1.23h-.11v-.12a.61.61,0,0,0-.62-.65H210v2.33h1.39a.51.51,0,0,0,.52-.54v-.09h.1v1.58h-.1v-.1a.5.5,0,0,0-.5-.53H210v2a.51.51,0,0,0,.53.5h.12v.09h-2.21v-.09h.13a.51.51,0,0,0,.53-.49V87.8a.51.51,0,0,0-.53-.48h-.13v-.1Z"/><path class="cls-3" d="M218.64,87.22h.59v.09h-.13a.42.42,0,0,0-.44.39v3.12a2.05,2.05,0,0,1-2.33,2.12c-1.59,0-2.47-.8-2.47-2.11V87.71a.42.42,0,0,0-.44-.4h-.13v-.09h2.05v.09h-.14a.42.42,0,0,0-.44.4h0v3c0,1.18.62,1.9,1.64,1.9a1.64,1.64,0,0,0,1.75-1.8V87.71a.42.42,0,0,0-.44-.4h-.14v-.09h1.06Z"/><path class="cls-3" d="M224.64,92c.37.46.61.68,1.07.68v.09h-.49a1.9,1.9,0,0,1-1.81-.85c-.15-.21-.72-1.09-.8-1.27a1.1,1.1,0,0,0-.78-.61V90s.17,0,.41,0a1.07,1.07,0,0,0,1.2-.86,1.22,1.22,0,0,0,.05-.47,1.08,1.08,0,0,0-1.13-1.11c-.42,0-.77,0-.85,0v4.67a.51.51,0,0,0,.52.5h.11v.09H220v-.09h.12a.5.5,0,0,0,.51-.49V87.8a.49.49,0,0,0-.51-.48H220v-.1h2.55c1.12,0,1.95.49,1.95,1.52a1.51,1.51,0,0,1-1.38,1.52,2.11,2.11,0,0,1,.79.76,11.34,11.34,0,0,0,.76,1Z"/><path class="cls-3" d="M230.39,91.32l-.45,1.49h-4v-.09H226a.51.51,0,0,0,.52-.49V87.8a.5.5,0,0,0-.52-.49h-.12v-.1h3a3.93,3.93,0,0,0,1-.14v1.23h-.1v-.12a.6.6,0,0,0-.62-.65h-1.69v2.33h1.37a.51.51,0,0,0,.52-.54v-.09h.09v1.58h-.09v-.1a.5.5,0,0,0-.5-.53h-1.39v2.3h1.32a1.5,1.5,0,0,0,1.51-1.17Z"/><path class="cls-3" d="M240.25,92.81a3.38,3.38,0,0,1-2.23-.45,2.8,2.8,0,0,1-1.78.55c-1.66,0-3-.67-3-2.16a1.82,1.82,0,0,1,1.24-1.68,2.31,2.31,0,0,1-.39-1.29c0-1,.88-1.62,2-1.62a2.22,2.22,0,0,1,1.69.66L237.57,88h-.09c0-.87-.45-1.51-1.27-1.51a1.16,1.16,0,0,0-1.16,1.23c0,.76.53,1.34,1.52,2.22.4.35,1,.86,1.59,1.38h0a2.16,2.16,0,0,0,0-1.66.65.65,0,0,0-.59-.42h-.14v-.09h2v.09h-.14c-.27,0-.36.18-.33.45a3.32,3.32,0,0,1-.33,2,3.85,3.85,0,0,0,1.66,1Zm-3.86-.23a1.81,1.81,0,0,0,1.27-.5c-.72-.59-1.35-1.12-1.79-1.51a11.1,11.1,0,0,1-1.19-1.2,1.88,1.88,0,0,0-.45,1.31A1.94,1.94,0,0,0,236.39,92.58Z"/><path class="cls-3" d="M247.17,91.14l-.49,1.67h-4.26v-.09h.12a.59.59,0,0,0,.59-.59V86.92a.59.59,0,0,0-.59-.54h-.12v-.09h3.07a4.06,4.06,0,0,0,1.12-.17v.48h0v.88h-.1v-.14a.69.69,0,0,0-.68-.72h-1.76v2.81h1.43a.58.58,0,0,0,.59-.6v-.11h.09v1.75h-.09v-.11a.59.59,0,0,0-.58-.6h-1.44v2.72h1.29a1.72,1.72,0,0,0,1.72-1.33Z"/><path class="cls-3" d="M251,90.2a1.31,1.31,0,0,1,.57,1.16,1.7,1.7,0,0,1-1.87,1.58,2.63,2.63,0,0,1-1.66-.46,2.3,2.3,0,0,1,.14-1.27h.1a1.26,1.26,0,0,0,1.4,1.41c.75,0,1.17-.41,1.17-1a.91.91,0,0,0-.48-.78l-1.65-1.19a1.34,1.34,0,0,1-.6-1.22,1.48,1.48,0,0,1,1.6-1.38,6.29,6.29,0,0,1,1,.08h.39v.16h0l0,.94H251c0-.53-.37-.87-1.11-.87a1,1,0,0,0-1.08.82.86.86,0,0,0,.47.74Z"/><path class="cls-3" d="M256.32,87.21a3.81,3.81,0,0,0,1-.14v1.22h-.1v-.12a.6.6,0,0,0-.62-.64h-1.44v4.7a.52.52,0,0,0,.54.49h.1v.09h-2.19v-.09h.11a.52.52,0,0,0,.53-.5V87.53h-1.44a.6.6,0,0,0-.62.64v.12h-.1V87.07a4,4,0,0,0,1,.14h3.19Z"/><path class="cls-3" d="M263.41,87.82v4.41a.52.52,0,0,0,.52.49H264v.09h-2.17v-.09h.1a.53.53,0,0,0,.54-.5v-2h-3v2a.52.52,0,0,0,.53.5h.11v.09h-2.18v-.09H258a.52.52,0,0,0,.53-.5v-4.4h0a.52.52,0,0,0-.53-.5h-.11v-.1h2.18v.1H260a.52.52,0,0,0-.53.48v2.09h3V87.82a.53.53,0,0,0-.54-.5h-.1v-.1H264v.1h-.1a.51.51,0,0,0-.53.5Z"/><path class="cls-3" d="M269.36,91.32l-.45,1.49h-4v-.09H265a.5.5,0,0,0,.52-.49V87.8a.5.5,0,0,0-.52-.49h-.12v-.1h2.95a3.93,3.93,0,0,0,1-.14v1.23h-.1v-.12a.6.6,0,0,0-.62-.65h-1.69v2.33h1.37a.51.51,0,0,0,.52-.54v-.09h.1v1.58h-.1v-.1a.5.5,0,0,0-.5-.53h-1.39v2.3h1.32a1.5,1.5,0,0,0,1.51-1.17Z"/><path class="cls-3" d="M274,87.21a3.79,3.79,0,0,0,1-.14v1.22h-.1v-.12a.6.6,0,0,0-.62-.64H272.8v4.7a.52.52,0,0,0,.54.49h.1v.09h-2.19v-.09h.11a.52.52,0,0,0,.53-.5V87.53h-1.44a.6.6,0,0,0-.62.64v.12h-.1V87.07a4,4,0,0,0,1,.14H274Z"/><path class="cls-3" d="M277.88,92.81h-2.33v-.09h.12a.56.56,0,0,0,.6-.5v-4.4h0a.56.56,0,0,0-.6-.5h-.12v-.1h2.33v.1h-.12a.55.55,0,0,0-.59.48v4.43a.56.56,0,0,0,.59.49h.12Z"/><path class="cls-3" d="M289.21,93.48c-.14.87-1.81,2.1-4.18,1-1.07-.5-2.2-1.39-3.25-1.55h0A2.93,2.93,0,1,1,284.88,90a2.8,2.8,0,0,1-2.21,2.81,21.54,21.54,0,0,1,2.63.91,3.9,3.9,0,0,0,3.87-.29Zm-7.47-.86c1.24,0,2.14-1,2.14-2.6s-.9-2.61-2.14-2.61-2.14,1-2.14,2.61S280.51,92.62,281.74,92.62Z"/><path class="cls-3" d="M291,87.22h.59v.09h-.13a.42.42,0,0,0-.44.39v3.12a2.05,2.05,0,0,1-2.33,2.12c-1.59,0-2.48-.8-2.48-2.11V87.71a.42.42,0,0,0-.44-.4h-.14v-.09h2.05v.09h-.13a.42.42,0,0,0-.44.4h0v3c0,1.18.62,1.9,1.63,1.9a1.64,1.64,0,0,0,1.76-1.8V87.71a.42.42,0,0,0-.44-.4H290v-.09H291Z"/><path class="cls-3" d="M296.79,91.32l-.45,1.49h-4v-.09h.12a.51.51,0,0,0,.52-.49V87.8a.5.5,0,0,0-.52-.49h-.12v-.1h2.95a3.93,3.93,0,0,0,1-.14v1.23h-.1v-.12a.6.6,0,0,0-.62-.65h-1.69v2.33h1.37a.5.5,0,0,0,.51-.54v-.09h.1v1.58h-.1v-.1a.49.49,0,0,0-.49-.53h-1.39v2.3h1.32a1.5,1.5,0,0,0,1.51-1.17Z"/><path class="cls-3" d="M304.76,91c0,1.12-.89,1.78-2.36,1.78h-2.55v-.09H300a.6.6,0,0,0,.6-.58V87a.6.6,0,0,0-.6-.58h-.12v-.09h2.2c1.33,0,2.17.56,2.17,1.57a1.35,1.35,0,0,1-1.08,1.4A1.75,1.75,0,0,1,304.76,91Zm-2.54,1.41A1.34,1.34,0,0,0,303.69,91c0-1.27-1-1.58-1.87-1.58v-.09A1.24,1.24,0,0,0,303.19,88a1.17,1.17,0,0,0-1.29-1.32h-.4v5.81Z"/><path class="cls-3" d="M312,90a3.22,3.22,0,1,1-3.21-2.92A2.95,2.95,0,0,1,312,90Zm-1,0a2.24,2.24,0,1,0-2.21,2.6A2.32,2.32,0,0,0,311,90Z"/><path class="cls-3" d="M318,87.22h.59v.09h-.14a.41.41,0,0,0-.43.39v3.12a2.06,2.06,0,0,1-2.34,2.12c-1.58,0-2.47-.8-2.47-2.11V87.71a.42.42,0,0,0-.44-.4h-.13v-.09h2.05v.09h-.14a.41.41,0,0,0-.43.4h0v3c0,1.18.61,1.9,1.63,1.9a1.64,1.64,0,0,0,1.76-1.8V87.71a.42.42,0,0,0-.44-.4H317v-.09H318Z"/><path class="cls-3" d="M324,92c.37.46.61.68,1.08.68v.09h-.5A1.91,1.91,0,0,1,322.8,92c-.15-.21-.72-1.09-.8-1.27a1.08,1.08,0,0,0-.78-.61V90s.18,0,.41,0a1.08,1.08,0,0,0,1.21-.86,1.81,1.81,0,0,0,.05-.47,1.09,1.09,0,0,0-1.14-1.11c-.41,0-.77,0-.85,0v4.67a.51.51,0,0,0,.52.5h.12v.09h-2.18v-.09h.12a.51.51,0,0,0,.52-.49V87.8a.5.5,0,0,0-.52-.48h-.12v-.1h2.55c1.12,0,2,.49,2,1.52a1.52,1.52,0,0,1-1.39,1.52,2.11,2.11,0,0,1,.79.76,11.34,11.34,0,0,0,.76,1Z"/><path class="cls-3" d="M330.33,87.6l.12,1.39h-.08a2,2,0,0,0-2.16-1.58c-1.38,0-2.22,1-2.22,2.63s.82,2.58,2.14,2.58a2.09,2.09,0,0,0,1.75-.82V90.61c0-.24-.16-.37-.42-.37h-.13v-.09h2v.09h-.12c-.27,0-.42.13-.42.37v1.17a3.51,3.51,0,0,1-2.71,1.16,2.92,2.92,0,1,1,0-5.84A4.62,4.62,0,0,1,330.33,87.6Z"/><path class="cls-3" d="M338.33,90a3.22,3.22,0,1,1-3.21-2.92A2.95,2.95,0,0,1,338.33,90Zm-1,0a2.24,2.24,0,1,0-2.21,2.6A2.32,2.32,0,0,0,337.33,90Z"/><path class="cls-3" d="M344.5,87.6l.12,1.39h-.08a2,2,0,0,0-2.16-1.58c-1.38,0-2.22,1-2.22,2.63s.82,2.58,2.14,2.58a2.07,2.07,0,0,0,1.75-.82V90.61c0-.24-.16-.37-.42-.37h-.13v-.09h2v.09h-.12c-.27,0-.42.13-.42.37v1.17a3.51,3.51,0,0,1-2.71,1.16,2.92,2.92,0,1,1,0-5.84A4.62,4.62,0,0,1,344.5,87.6Z"/><path class="cls-3" d="M352.64,87.32h-.16a.5.5,0,0,0-.51.46v4a7.53,7.53,0,0,0,.09,1.15H352l-4.61-4.24v3.54h0a.5.5,0,0,0,.52.48H348v.09h-2.11v-.09h.16a.49.49,0,0,0,.51-.48v-4a6.73,6.73,0,0,0-.09-1.12h.1l4.6,4.22V87.78a.5.5,0,0,0-.52-.46h-.15v-.1h2.11Z"/><path class="cls-3" d="M357.83,91.32l-.45,1.49h-4v-.09h.12a.51.51,0,0,0,.52-.49V87.8a.5.5,0,0,0-.52-.49h-.12v-.1h2.95a3.93,3.93,0,0,0,1-.14v1.23h-.1v-.12a.61.61,0,0,0-.62-.65H354.9v2.33h1.37a.5.5,0,0,0,.51-.54v-.09h.1v1.58h-.1v-.1a.49.49,0,0,0-.49-.53H354.9v2.3h1.32a1.5,1.5,0,0,0,1.51-1.17Z"/><path class="cls-3" d="M199.18,58.27l-3.3,15.64h-40v-.85h1a4.54,4.54,0,0,0,4.6-4.45V28.17a4.51,4.51,0,0,0-4.6-4.45h-1v-.86H185.8a33,33,0,0,0,8.84-1.3V35.14h-.88v-.79c0-4.91-2.81-8-7.73-8H173.77V46.92h9.67a6.35,6.35,0,0,0,6.5-6.72v-.55h.88v18h-.88v-.6a6.35,6.35,0,0,0-6.38-6.73h-9.79V70.5H184c7.19-.07,12.11-4.7,14.34-12.22Z"/><path class="cls-3" d="M255.84,52.6l1,12.83C253.51,70.82,246.55,75,235.48,75c-18.93-.08-30.67-9.77-30.67-26.63,0-16.67,11.47-26.58,30.67-26.58,7.78,0,14.69,1.69,19.09,3.86l.07,13.52H254c-2.88-10.45-9.2-14-17.63-14-12.36,0-18.57,9.2-18.57,23.07,0,14.11,6.54,23.16,17.71,23.42,12.14,0,17.59-5.18,19.69-19Z"/><path class="cls-3" d="M306.28,58.27,303,73.91H263v-.85h1a4.55,4.55,0,0,0,4.61-4.45V28.17A4.51,4.51,0,0,0,264,23.72h-1v-.86h29.93a32.88,32.88,0,0,0,8.83-1.3V35.14h-.88v-.79c0-4.91-2.81-8-7.73-8H280.88V46.92h9.67A6.35,6.35,0,0,0,297,40.2v-.55h.88v18H297v-.6a6.35,6.35,0,0,0-6.38-6.73h-9.79V70.5h10.25c7.19-.07,12.12-4.7,14.34-12.22Z"/><path class="cls-3" d="M343.44,46.14c7.32.53,13.36,5.53,13.36,13.26,0,10.64-9.95,14.52-21.41,14.52H310.72v-.85h1a4.54,4.54,0,0,0,4.66-4.49V28.21a4.48,4.48,0,0,0-4.66-4.48h-1v-.85h22.86c8.95,0,19.21,2,19.21,12.71a10.17,10.17,0,0,1-9.35,10.55Zm-11.56,24.4c6.06,0,11.12-3.23,11.12-11.91,0-8.11-5.1-11.71-12.1-11.66v-.74c5.16,0,9.17-2.81,9.17-9.83,0-7.61-3.86-10.19-9.26-10.19h-2.4V70.54Z"/></g></g></svg>