<svg xmlns="http://www.w3.org/2000/svg" viewBox="0 0 2666.02 458.74"><defs><style>.cls-1{fill:#1b1c21;}</style></defs><g id="Calque_2" data-name="Calque 2"><g id="Capa_1" data-name="Capa 1"><path class="cls-1" d="M2588,307.93l-16.34,1.87a1.2,1.2,0,0,1-1.08-.48c-.18-.26-.85-1.43-1.4-5.33a16.29,16.29,0,0,1-.08-5.23A13.54,13.54,0,0,1,2568,294c-.29-2.59-.25-4.39.12-5.37l-7.26-78.86a2.65,2.65,0,0,1,1.59-3,30.88,30.88,0,0,1,5.54-1.34h0l.07,0h0a29.57,29.57,0,0,1,5.69.06A2.67,2.67,0,0,1,2576,208l10.71,78.47c.59.87,1,2.61,1.34,5.19a13.51,13.51,0,0,1,0,4.92,16,16,0,0,1,1.09,5.11c.35,3.93,0,5.21-.16,5.51A1.15,1.15,0,0,1,2588,307.93Zm-15.74-.56,14.6-1.66a23.82,23.82,0,0,0-.09-3.8c-.3-3.44-1-4.61-1-4.61a1.21,1.21,0,0,1,0-1.35,11.31,11.31,0,0,0,0-4c-.35-3.1-.84-4-.94-4.14a1.18,1.18,0,0,1-.35-.68l-10.76-78.87s0-.1,0-.15-.06-.36-.26-.39a30.44,30.44,0,0,0-5.14,0,28.89,28.89,0,0,0-5,1.2c-.18.07-.18.29-.16.45a.68.68,0,0,1,0,.14l7.3,79.26a1.22,1.22,0,0,1-.18.74c-.06.17-.34,1.14,0,4.24.32,2.85.75,3.72.86,3.9a1.18,1.18,0,0,1,.32,1.34h0s-.45,1.31,0,4.71A23.93,23.93,0,0,0,2572.27,307.37Z"/><path class="cls-1" d="M2574.72,288.22l-9-81.15a17.78,17.78,0,0,0-2,.58l8.31,80.87s-.66.68-.17,5,1.27,4.65,1.27,4.65-.6,1.41,0,5.33a32.78,32.78,0,0,0,1,4.83l2.68-.3a33.72,33.72,0,0,1-1-4.84c-.56-3.92,0-5.32,0-5.32s-.77-.33-1.26-4.65S2574.72,288.22,2574.72,288.22Z"/><path class="cls-1" d="M2579.84,287.63l-9.51-81.1a18.61,18.61,0,0,1,2.05.13l10.14,80.66s.8.52,1.3,4.85-.19,4.82-.19,4.82.89,1.23,1.24,5.18a32.53,32.53,0,0,1,.11,4.93l-2.69.31a32.67,32.67,0,0,0-.11-4.94c-.35-3.94-1.24-5.17-1.24-5.17s.67-.5.18-4.82S2579.84,287.63,2579.84,287.63Z"/><path class="cls-1" d="M2606.16,458.74c-8.62-71.28-17-141.06-18.3-152l-8.14.93h0l-8.14.94c1.23,10.81,8.61,79.44,16.21,150.1Z"/><path class="cls-1" d="M2589,458.74c-7.37-68.46-14.56-135.2-16.11-149.08l14-1.6c1.63,14,9.81,81.69,18.15,150.68h2.35c-8.63-71.25-17.07-141.19-18.31-152.11a1.17,1.17,0,0,0-1.3-1l-16.32,1.86a1.17,1.17,0,0,0-1,1.3c1.23,10.8,8.62,79.43,16.21,150Z"/><path class="cls-1" d="M2586,287.63a1.66,1.66,0,0,0-.4-.66l-.08-.59a118.77,118.77,0,0,1-16.29,1.86l.06.59a1.65,1.65,0,0,0-.25.74A113.65,113.65,0,0,0,2586,287.63Z"/><path class="cls-1" d="M2586.71,296.64s.16-.13.27-.81a116,116,0,0,1-17.05,1.94c.26.65.46.73.46.73a3.86,3.86,0,0,0-.15.6,115.94,115.94,0,0,0,16.74-1.91A3.27,3.27,0,0,0,2586.71,296.64Z"/><path class="cls-1" d="M2562.9,160.61c-.43.17-16.07,6.6-10.12,26.08,3.15,10.3,9.46,21.57,9.46,21.57l5.91-1.73,6.15.35s3.6-12.41,4.35-23.14C2580.05,163.41,2562.9,160.61,2562.9,160.61Z"/><path class="cls-1" d="M2574.44,208.05h-.21l-5.95-.35-5.7,1.68a1.17,1.17,0,0,1-1.36-.54c-.07-.12-6.4-11.51-9.55-21.8-6.25-20.43,10.1-27.24,10.78-27.52a1.25,1.25,0,0,1,.63-.07c.18,0,18.2,3.23,16.73,24.37-.75,10.74-4.35,23.27-4.39,23.39A1.18,1.18,0,0,1,2574.44,208.05Zm-6.42-2.68h.2l5.2.31a127,127,0,0,0,4.06-22c1.24-17.77-12.12-21.35-14.45-21.84-2.17,1-14.38,7.37-9.13,24.53a128,128,0,0,0,8.91,20.53l5-1.47Z"/><path class="cls-1" d="M2552.59,186.64h0a1.16,1.16,0,0,1-1.25-.86c-5.2-19.44,10.47-26,11.13-26.26a1.25,1.25,0,0,1,.63-.07c.18,0,17.46,3.12,16.79,23.08a1.17,1.17,0,0,1-1,1.11h0a1.17,1.17,0,0,1-1.25-.83,12.19,12.19,0,1,0-24,2.74A1.15,1.15,0,0,1,2552.59,186.64ZM2563,161.82a18,18,0,0,0-10.39,17.36A20.72,20.72,0,0,1,2563.45,168a1.11,1.11,0,0,1,.6-.07,20.8,20.8,0,0,1,13,8.39A18.22,18.22,0,0,0,2563,161.82Z"/><path class="cls-1" d="M1780.78,224.9s-7.06-9.66-10.31-27.22c-4.42-23.88-3.07-34.74,14.61-48.23,20.4-15.57,45.87-20.35,57.39-8.39,10.08,10.44,5.07,38.22-4.64,63.17-7,18-11.22,24.14-11.22,24.14Z"/><path class="cls-1" d="M1826.51,229.53l-45.82-3.46a1.15,1.15,0,0,1-.85-.47c-.29-.41-7.26-10.08-10.52-27.71-4.53-24.5-2.94-35.64,15.06-49.37,13.77-10.51,29.71-16.2,42.62-15.23,6.78.51,12.42,2.92,16.32,7,10.86,11.25,4.85,40.65-4.41,64.39-7,18-11.17,24.13-11.34,24.38A1.19,1.19,0,0,1,1826.51,229.53Zm-45.08-5.75,44.57,3.37c1.14-1.86,5-8.62,10.75-23.34,8.57-22,15-51.46,4.88-61.95-3.54-3.66-8.52-5.77-14.8-6.25-12.18-.91-27.91,4.74-41,14.76-17.14,13.09-18.57,23.24-14.17,47.09C1774.41,212.54,1780.07,221.74,1781.43,223.78Z"/><path class="cls-1" d="M1811.8,343.58a1.08,1.08,0,0,1-.6-.22c-.08-.06-4.55-3.11-15.85-4s-16.24,1.54-16.29,1.56a1.16,1.16,0,0,1-1.46-.33c-.27-.36-1.14-1.91-1.18-6.84a23.11,23.11,0,0,1,1-7.43c-.43-.87-1-2.66-1-6.12,0-3.76.76-5.56,1.24-6.33l-1-67.61s0-.07,0-.1l1.61-21.31a.57.57,0,0,1,0-.18,3.21,3.21,0,0,1,2.82-2.31c3.95-.52,19.39.26,22.75.44h.34l.17,0c3.34.33,18.71,1.87,22.55,3a3.22,3.22,0,0,1,2.45,2.71v.17L1827.78,250a.34.34,0,0,1,0,.1l-11.14,66.69c.35.83.8,2.73.26,6.46-.48,3.41-1.28,5.1-1.85,5.9a23.32,23.32,0,0,1-.14,7.49c-.79,4.87-1.88,6.27-2.19,6.59A1.21,1.21,0,0,1,1811.8,343.58ZM1795.52,337c9,.7,13.9,2.71,15.93,3.77a20,20,0,0,0,1.14-4.52,18.91,18.91,0,0,0,.05-7.15,1.17,1.17,0,0,1,.42-1.22h0s1-1.06,1.52-5-.13-5.3-.15-5.31a1.09,1.09,0,0,1-.16-.83l11.19-67,1.6-21.12a1,1,0,0,0-.76-.6c-3.75-1.08-20.36-2.73-22.24-2.91h-.19c-1.89-.1-18.54-1-22.43-.47a1,1,0,0,0-.83.48l-1.6,21.13,1,67.93a1.18,1.18,0,0,1-.34.84h0s-.85,1.19-.89,5.17.8,5.2.8,5.21a1.08,1.08,0,0,1,.18,1.23,19.08,19.08,0,0,0-1,7.06,20.2,20.2,0,0,0,.46,4.64C1781.38,337.63,1786.55,336.39,1795.52,337Z"/><path class="cls-1" d="M1788.21,323.67a14.25,14.25,0,0,1-.38-5.76c.41-3.88,1.24-4.69,1.24-4.69l-.77-66.33,1.77-23.47-6.5,0-1.77,23.39,1.84,67.83s-1,.94-1.08,4.65,1.26,5.22,1.26,5.22-2.21,5.83-.19,14.06a14.27,14.27,0,0,1,4.33-.62A36.86,36.86,0,0,1,1788.21,323.67Z"/><path class="cls-1" d="M1824.4,226.47l-6.44-.95L1816.18,249l-10.71,65.47s.7.93.53,4.82a14.39,14.39,0,0,1-1.25,5.64,37,37,0,0,1-1.88,14.12,14.61,14.61,0,0,1,4.18,1.25c3.23-7.83,1.94-13.93,1.94-13.93s1.49-1.3,2-5-.35-4.76-.35-4.76l12-66.79Z"/><path class="cls-1" d="M1797.17,313.62v0l.24,0v0c1.68,0,11.79.46,18.54,5.56a4.63,4.63,0,0,0-.53-2.2s-4.71-4.64-18-5.33c-13.24-1.32-18.58,2.56-18.58,2.56a4.54,4.54,0,0,0-.85,2.11C1785.44,312.31,1795.5,313.4,1797.17,313.62Z"/><path class="cls-1" d="M1813.79,328.82c-1.72-1.25-6.85-4.23-17.28-4.77-10.41-1-15.94,1.13-17.83,2.12l0,0a12.16,12.16,0,0,0-.6,2c7.3-3.4,16.52-2.4,18.13-2.2v0h.25c1.61,0,10.88.44,17.58,4.9a10.36,10.36,0,0,0-.29-2.07Z"/><path class="cls-1" d="M1803.11,458.74c4.13-54.69,8-106,8.78-116.32,0,0-4.49-3.27-16.33-4.19h-.25c-11.85-.85-16.78,1.7-16.78,1.7-.78,10.46-4.77,63.21-9,118.84Z"/><path class="cls-1" d="M1770.73,458.74l8.91-118c1.59-.58,6.49-2,15.58-1.33h.17l.08,0c9.08.72,13.73,2.85,15.2,3.65l-8.74,115.7h2.35l8.78-116.24a1.19,1.19,0,0,0-.48-1c-.2-.14-4.87-3.44-16.83-4.41h-.19l-.12,1.16,0-1.17h-.2c-12-.85-17.08,1.72-17.3,1.84a1.14,1.14,0,0,0-.62.94l-9,118.93Z"/><polygon class="cls-1" points="1818.82 248.9 1802.28 245.3 1785.71 246.4 1818.82 248.9"/><path class="cls-1" d="M2380,291.86h0a1.19,1.19,0,0,1-.84-.41c-.29-.33-1.3-1.82-1.74-6.74a22.51,22.51,0,0,1,.45-7.49c-.52-.84-1.23-2.59-1.46-6-.25-3.75.35-5.61.77-6.42l-6.26-67.35a.34.34,0,0,1,0-.1V174.73a2.62,2.62,0,0,1,.62-1.87,3,3,0,0,1,2.31-.9H2421a3,3,0,0,1,2.32.9,2.67,2.67,0,0,1,.62,1.87v22.59a.34.34,0,0,1,0,.1l-6.26,67.35c.41.81,1,2.67.77,6.42-.23,3.44-.95,5.19-1.46,6a22.79,22.79,0,0,1,.45,7.49c-.44,4.92-1.45,6.41-1.74,6.74a1.25,1.25,0,0,1-.86.39,1.22,1.22,0,0,1-.84-.34c-.11-.1-3.26-2.62-16.59-2.62-13.51,0-16.51,2.6-16.54,2.62A1.08,1.08,0,0,1,2380,291.86Zm17.37-5.31c10.21,0,14.9,1.44,16.91,2.43a20.2,20.2,0,0,0,.78-4.47,18.79,18.79,0,0,0-.49-7.12,1.15,1.15,0,0,1,.33-1.28h0s.91-1.12,1.18-5.08-.56-5.24-.56-5.25a1,1,0,0,1-.25-.84l6.31-67.68V174.68a.66.66,0,0,1,0-.14.45.45,0,0,0-.05-.13,1,1,0,0,0-.56-.11h-47.16a1,1,0,0,0-.56.11.37.37,0,0,0-.05.17.34.34,0,0,1,0,.1v22.58l6.3,67.68a1.17,1.17,0,0,1-.28.88h0s-.79,1.25-.52,5.21,1.21,5.12,1.23,5.13a1.09,1.09,0,0,1,.28,1.24,18.52,18.52,0,0,0-.5,7.11,20.65,20.65,0,0,0,.79,4.47C2382.52,288,2387.19,286.55,2397.37,286.55Z"/><path class="cls-1" d="M2388.71,273.75a14,14,0,0,1-.85-5.71c.13-3.89.92-4.77.92-4.77l-5.94-66.11v-24h-6.69v24.39l7.14,67.53s-1,1-.74,4.72,1.69,5.11,1.69,5.11-1.81,6,.91,14a15.42,15.42,0,0,1,4.39-.94A35.7,35.7,0,0,1,2388.71,273.75Z"/><path class="cls-1" d="M2406.09,273.75a14,14,0,0,0,.85-5.71c-.13-3.89-.92-4.77-.92-4.77l5.93-66.11v-24h6.69v24.39l-7.13,67.53s1,1,.73,4.72-1.68,5.11-1.68,5.11,1.81,6-.9,14a15.6,15.6,0,0,0-4.41-.94A35.81,35.81,0,0,0,2406.09,273.75Z"/><path class="cls-1" d="M2397.37,263.08c14,0,19.77,4.13,19.77,4.13a4.71,4.71,0,0,0-.7-2.16s-5.2-4-19.07-4-19,4-19,4a4.61,4.61,0,0,0-.71,2.16S2383.34,263.08,2397.37,263.08Z"/><path class="cls-1" d="M2415.69,277c-1.88-1.12-7-4.28-18.32-4.28S2381,275.84,2379.1,277l0,0a11.8,11.8,0,0,0-.44,2c-.44,0,7-4.21,18.69-4.21s18.74,4.21,18.74,4.21a11.11,11.11,0,0,0-.45-2Z"/><path class="cls-1" d="M2414.78,458.74V290.67s-4.58-2.87-17.36-2.87-17.41,2.87-17.41,2.87V458.74Z"/><path class="cls-1" d="M2381.19,458.74V291.4c1.55-.69,6.41-2.44,16.23-2.44s14.66,1.75,16.19,2.43V458.74H2416V290.67a1.15,1.15,0,0,0-.55-1c-.2-.13-5-3.06-18-3.06s-17.82,2.93-18,3.05a1.16,1.16,0,0,0-.55,1V458.74Z"/><path class="cls-1" d="M2397.4,102.78c-29.41,0-31.17,31.61-30.29,37.09l6.71,33.26H2421l6.72-33.26C2428.56,134.39,2426.8,102.78,2397.4,102.78Z"/><path class="cls-1" d="M2421,174.3h-47.15a1.17,1.17,0,0,1-1.14-.94L2366,140.09c-.68-4.23.11-18.79,8.56-28.7,5.53-6.49,13.22-9.77,22.87-9.77s17.34,3.28,22.87,9.77c8.45,9.91,9.23,24.47,8.56,28.67l-6.72,33.3A1.17,1.17,0,0,1,2421,174.3ZM2374.78,172H2420l6.52-32.32c.59-3.71-.23-17.56-8.05-26.74-5.06-5.94-12.16-9-21.09-9s-16,3-21.1,9c-7.82,9.18-8.63,23-8,26.78Z"/><path class="cls-1" d="M2427.66,141.1h0c-1,0-1.14-.84-1.3-1.57-1.83-8.55-8-22.91-28.95-22.91-27.07,0-29.05,22.39-29.12,23.33a1.17,1.17,0,0,1-2.32.11c-.67-4.2.12-18.76,8.57-28.67,5.53-6.49,13.22-9.77,22.87-9.77s17.34,3.28,22.87,9.77c8.45,9.91,9.23,24.47,8.56,28.67A1.25,1.25,0,0,1,2427.66,141.1Zm-30.26-26.82c17.19,0,25.17,9,28.86,17.37-.81-5.73-3-13.12-7.77-18.75-5.06-5.94-12.16-9-21.09-9s-16,3-21.1,9c-4.47,5.26-6.66,12-7.59,17.6C2372.2,123.21,2380,114.28,2397.4,114.28Z"/><polygon class="cls-1" points="2415.21 197.07 2397.43 194.44 2379.63 197.07 2415.21 197.07"/><path class="cls-1" d="M241.24,352.33h0a1.1,1.1,0,0,1-.9-.25c-.36-.27-1.63-1.54-3-6.3a22.76,22.76,0,0,1-.94-7.45c-.66-.73-1.68-2.32-2.53-5.65s-.72-5.38-.48-6.31l-32.86-62.54,0-.1-16.68-41.09a.36.36,0,0,1,0-.09,4,4,0,0,1,.38-3,4.59,4.59,0,0,1,3.32-2l89.35-16.7a4.63,4.63,0,0,1,3.84.68,3.94,3.94,0,0,1,1.45,2.7v.1l-.72,44.34a.45.45,0,0,0,0,.11l-8.06,70.19c.57.78,1.43,2.51,1.85,6s0,5.27-.33,6.18a22.28,22.28,0,0,1,1.81,7.3c.49,4.91-.23,6.55-.47,6.94a1.17,1.17,0,0,1-.76.54,1.26,1.26,0,0,1-.88-.17c-.14-.08-3.71-2-16.8.46-13.28,2.48-15.75,5.59-15.77,5.61A1.08,1.08,0,0,1,241.24,352.33Zm16.1-8.4c10-1.88,14.91-1.33,17.07-.72a20.6,20.6,0,0,0,0-4.55,18.79,18.79,0,0,0-1.8-6.9,1.15,1.15,0,0,1,.09-1.32h0s.68-1.27.22-5.21-1.51-5.06-1.51-5.07a1,1,0,0,1-.39-1l8.1-70.64.72-44.21a1.61,1.61,0,0,0-.56-1,2.65,2.65,0,0,0-1.94-.22l-89.36,16.7h0a2.64,2.64,0,0,0-1.76.93,1.57,1.57,0,0,0-.15,1.12l16.64,41,33.07,62.93a1.2,1.2,0,0,1,0,1.15h0s-.55,1.36.44,5.22,2.15,4.8,2.16,4.81a1.08,1.08,0,0,1,.5,1.16,18.62,18.62,0,0,0,.81,7.08,21.51,21.51,0,0,0,1.6,4.26C243,348.06,247.34,345.79,257.34,343.93Z"/><path class="cls-1" d="M246.48,332.94a14.06,14.06,0,0,1-1.9-5.46c-.58-3.85,0-4.87,0-4.87L218.3,259.92l-13.48-44.48-12.69,2.37L208,262.43l31.53,62.94s-.77,1.19.15,4.78,2.6,4.71,2.6,4.71-.68,6.22,3.46,13.64a15.5,15.5,0,0,1,4.16-1.74A35.79,35.79,0,0,1,246.48,332.94Z"/><path class="cls-1" d="M263.57,329.74a14.21,14.21,0,0,0-.22-5.77c-.84-3.81-1.79-4.52-1.79-4.52l1.91-68L260,205.13l12.69-2.37L274,250.1l-6.67,70.09s1.16.82,1.6,4.5-.73,5.34-.73,5.34,2.89,5.55,1.7,14a14.78,14.78,0,0,0-4.49-.12A35.91,35.91,0,0,0,263.57,329.74Z"/><path class="cls-1" d="M253,320.85c13.79-2.58,20.2.43,20.2.43a4.54,4.54,0,0,0-1.1-2s-5.82-2.93-19.46-.38-18,7.38-18,7.38a4.59,4.59,0,0,0-.31,2.25S239.24,323.42,253,320.85Z"/><path class="cls-1" d="M273.59,331.13c-2-.76-7.64-2.93-18.8-.84s-15.53,6.12-17.16,7.56a0,0,0,0,0,0,0,11,11,0,0,0-.08,2.09c-.41.08,6.1-5.42,17.61-7.57s19.2.7,19.2.7a11.28,11.28,0,0,0-.82-1.93Z"/><path class="cls-1" d="M296.51,458.74c-10-53.66-19.4-103.85-21.29-114,0,0-5-2-17.59.35s-16.59,6-16.59,6c1.81,9.71,10.54,56.38,20.11,107.58Z"/><path class="cls-1" d="M262.33,458.74l-20-107.08c1.39-1,5.87-3.58,15.52-5.38s14.73-1,16.35-.58l21.13,113h2.38L276.36,344.56a1.14,1.14,0,0,0-.72-.87c-.21-.09-5.48-2.08-18.23.3s-17,6.15-17.16,6.31a1.18,1.18,0,0,0-.35,1.07L260,458.74Z"/><path class="cls-1" d="M219.59,141.76c-55.73,10.42-57.61,18.72-54,28.8l22.15,48.08,89.34-16.7c.94-65.4,3.29-52.82,3.29-52.82C280.07,138.41,275.32,131.35,219.59,141.76Z"/><path class="cls-1" d="M277.28,203.08l-89.34,16.7a1.17,1.17,0,0,1-1.28-.66l-22.14-48.07,0-.09c-1.2-3.34-2-6.92.07-10.56,4.3-7.49,20.69-13.41,54.82-19.78s51.54-6.79,58.26-1.36c3.25,2.64,3.79,6.29,3.88,9.82a1.18,1.18,0,0,1-1,1.2h-.13c-.59,3.43-1.59,14.71-2.12,51.67A1.16,1.16,0,0,1,277.28,203.08Zm-88.87,14.24L275.91,201c.68-46.09,1.95-52.63,3.16-53.72-.25-2.55-1-4.6-2.9-6.16-6-4.89-23.43-4.32-56.37,1.83s-49.34,11.91-53.22,18.65c-1.52,2.64-1.06,5.34.08,8.57Z"/><path class="cls-1" d="M280.37,150.73h0a3.21,3.21,0,0,1-1.79-.38c-10.65-4-29.86-3.49-57.09,1.6-50.86,9.5-54.75,18.73-54.76,18.82a1.17,1.17,0,0,1-1,1,1.15,1.15,0,0,1-1.19-.77c-1.2-3.34-2-6.92.07-10.56,4.3-7.49,20.69-13.41,54.82-19.78s51.54-6.79,58.26-1.36c3.25,2.64,3.79,6.29,3.88,9.82A1.44,1.44,0,0,1,280.37,150.73Zm-59.3-1.08c27.44-5.12,47-5.66,58.07-1.59-.18-2.94-.86-5.26-3-7-6-4.89-23.43-4.32-56.37,1.83s-49.34,11.91-53.22,18.65A8.16,8.16,0,0,0,166,168C169.61,164.28,181.57,157,221.07,149.65Z"/><polygon class="cls-1" points="268.48 250.39 240.13 251.46 213.28 260.69 268.48 250.39"/><path class="cls-1" d="M2651.71,225.25l-19.15-1.06a1.14,1.14,0,0,1-.94-.58c-.17-.3-.73-1.58-.62-5.56a14,14,0,0,1,.87-5.16,12,12,0,0,1-.42-4.92c.16-3,.66-4.55,1.15-5.31.22-2.7,1.51-20,1.2-37.59-.28-15.81-1-25.41-1-25.51s0-.06,0-.09l0-15.81a2.66,2.66,0,0,1,2.28-2.77.8.8,0,0,1,.27,0l24.87,1.36a1.31,1.31,0,0,1,.27.06,2.68,2.68,0,0,1,2,3L2660.8,141s0,.06,0,.09-1.81,9.57-3.82,25.25c-2.22,17.41-2.84,34.79-2.93,37.5.41.8.73,2.36.56,5.39a12.32,12.32,0,0,1-.95,4.85,14.2,14.2,0,0,1,.3,5.23c-.34,4-1,5.18-1.24,5.45A1.16,1.16,0,0,1,2651.71,225.25Zm-18.19-3.34,17.49,1a19.34,19.34,0,0,0,.61-3.76c.29-3.39-.31-4.66-.31-4.67a1.19,1.19,0,0,1-.08-.94,1.53,1.53,0,0,1,.36-.5c.09-.15.52-1,.69-3.89s-.23-4-.31-4.17a1.14,1.14,0,0,1-.27-.79c0-.2.54-19.13,3-38.11,2-15.18,3.68-24.59,3.82-25.34l1.69-15.7a.28.28,0,0,1,0-.09.32.32,0,0,0-.2-.37l-24.57-1.35a.33.33,0,0,0-.25.37l0,15.86c0,.75.76,10.29,1,25.6.32,19.14-1.23,38-1.24,38.2a1.17,1.17,0,0,1-.37.75c-.09.16-.58,1.08-.75,4.12-.15,2.83.16,3.73.24,3.92a1.18,1.18,0,0,1,.11,1.52h0s-.72,1.19-.81,4.57A18.46,18.46,0,0,0,2633.52,221.91Z"/><path class="cls-1" d="M2638.52,218.43c.11-4,1.05-5.23,1.05-5.23s-.82-.46-.59-4.81,1.12-4.91,1.12-4.91,1.23-18.81.9-38.11c-.28-16-3.33-25.31-3.33-25.31l-.35-17.91-2-.12s0,0,0,0l.5,17.91a233.94,233.94,0,0,1,1.55,25.22c.32,19.29-.9,38.11-.9,38.11s-.88.56-1.12,4.91.58,4.81.58,4.81-.94,1.27-1,5.23.48,5,.48,5l3.63.2S2638.43,222.39,2638.52,218.43Z"/><path class="cls-1" d="M2646.42,218.87c.34-4-.46-5.32-.46-5.32s.87-.36,1.1-4.71-.57-5-.57-5,.85-18.85,3.3-38c2-15.92,6-24.8,6-24.8l2.36-17.77,2,.12h0l-2.51,17.75a240.81,240.81,0,0,0-4.26,24.9c-2.46,19.14-3.3,38-3.3,38s.82.65.58,5-1.1,4.71-1.1,4.71.78,1.38.45,5.32-1,4.88-1,4.88l-3.63-.21S2646.08,222.81,2646.42,218.87Z"/><path class="cls-1" d="M2640.52,458.74c4.35-91.4,10.43-219.73,11.25-234.65l-9.56-.54h0l-9.57-.52c-.83,15-8.94,144.31-14.65,235.71Z"/><path class="cls-1" d="M2619.15,458.74c1.27-20.22,2.66-42.36,4.06-64.89,4.75-76,9.66-154.48,10.52-169.59l16.82.93c-.8,15.1-4.55,93.66-8.17,169.72-1.05,22.14-2.08,43.89-3,63.83h2.34c1-19.91,2-41.63,3-63.73,3.72-78.27,7.58-159.21,8.21-170.86a1.16,1.16,0,0,0-1.1-1.23l-19.13-1a1.16,1.16,0,0,0-1.23,1.09c-.65,11.66-5.7,92.53-10.58,170.74-1.42,22.59-2.81,44.78-4.07,65Z"/><path class="cls-1" d="M2653.2,204.91a1.39,1.39,0,0,0-.35-.72l0-.6a158,158,0,0,1-19.08-1.05l-.05.59a1.5,1.5,0,0,0-.42.69A155.44,155.44,0,0,0,2653.2,204.91Z"/><path class="cls-1" d="M2652.33,213.9s.22-.09.47-.75a154.9,154.9,0,0,1-20-1.1c.17.67.38.79.38.79a3,3,0,0,0-.29.57,153.32,153.32,0,0,0,19.64,1.08A3.19,3.19,0,0,0,2652.33,213.9Z"/><polygon class="cls-1" points="2646.83 139.3 2640.05 139.66 2653.54 140.4 2646.83 139.3"/><path class="cls-1" d="M2649.85,84.71h0c-.22,0-17.59-.62-16.85,19.28.46,12.64,2.31,18.05,2.31,18.05l12.44.68,12.45.69s2.43-5.19,4.28-17.69C2667.4,86,2650.06,84.72,2649.85,84.71Z"/><path class="cls-1" d="M2660.14,124.57h0l-12.46-.69-12.45-.68h0a1.16,1.16,0,0,1-1-.79c-.08-.23-1.9-5.72-2.38-18.37-.24-6.69,1.45-11.88,5-15.47,5.26-5.26,12.71-5,13-5s7.8.63,12.45,6.44c3.17,4,4.28,9.3,3.3,15.92-1.85,12.53-4.27,17.78-4.38,18A1.12,1.12,0,0,1,2660.14,124.57Zm-12.33-3,11.63.65c.69-1.8,2.46-7,3.88-16.65.89-5.94-.06-10.69-2.82-14.12-4-5-10.66-5.55-10.73-5.55s-6.71-.21-11.26,4.34c-3.11,3.1-4.56,7.72-4.35,13.73.36,9.69,1.55,15.1,2,17Z"/><path class="cls-1" d="M2633,106.42h0a1.16,1.16,0,0,1-1.07-1.11l0-.42c0-.28,0-.57,0-.85-.25-7.13,1.44-12.53,5-16.07,4.48-4.41,10.62-4.57,13-4.43s8.51,1,12.48,5.84c3.19,3.91,4.29,9.47,3.24,16.52-.05.28-.09.56-.13.84l-.06.41a1.17,1.17,0,0,1-2.32-.06c-1.09-11.53-8.37-13.26-13.76-13.56s-12.81.62-15.16,12A1.17,1.17,0,0,1,2633,106.42Zm16.79-20.55c-2.12-.12-7.46,0-11.28,3.77a14.8,14.8,0,0,0-4,8.49c3-5,8-7.31,15-6.93s11.72,3.24,14.16,8.53a14.79,14.79,0,0,0-3-8.87C2657.19,86.71,2651.9,86,2649.78,85.87Z"/><path class="cls-1" d="M2169.22,331.91l-16,.29a1.18,1.18,0,0,1-1-.51c-.19-.28-.84-1.53-1-5.5a14.54,14.54,0,0,1,.48-5.21,12.56,12.56,0,0,1-.77-4.87c-.05-3,.32-4.53.74-5.33l-3.44-49.84-1.11-15.76a2.67,2.67,0,0,1,2.07-2.94l.27,0,20.34-.37a1.24,1.24,0,0,1,.27,0,2.66,2.66,0,0,1,2.18,2.86l-.54,15.79L2170,310.45c.45.78.87,2.31.92,5.3a12.32,12.32,0,0,1-.59,4.89,14.52,14.52,0,0,1,.68,5.19c-.05,4-.65,5.25-.84,5.53A1.13,1.13,0,0,1,2169.22,331.91ZM2154,329.85l14.37-.25a18.49,18.49,0,0,0,.34-3.79c0-3.41-.65-4.62-.65-4.63a1.16,1.16,0,0,1-.14-.94,1.37,1.37,0,0,1,.32-.53c.07-.14.44-1,.39-3.92s-.5-4-.59-4.15a1.1,1.1,0,0,1-.35-.86l1.66-50.33.55-15.83a.31.31,0,0,1,0-.1.3.3,0,0,0-.24-.34l-20,.36a.32.32,0,0,0-.22.38l1.12,15.86L2154,311a1.21,1.21,0,0,1-.3.88c-.1.15-.51,1.1-.46,4.16.05,2.82.44,3.7.54,3.89a1.21,1.21,0,0,1,.35.55,1.15,1.15,0,0,1-.14.94h0s-.64,1.25-.48,4.62A19.88,19.88,0,0,0,2154,329.85Z"/><path class="cls-1" d="M2157.5,316c-.07-4.36.38-5,.38-5l-5.7-49.65-1.23-18h-1l.71,18,4.49,49.67s-.65.36-.56,4.73,1.17,5.05,1.17,5.05-.85,1.35-.66,5.29.83,4.91.83,4.91l2.72-.05s-.63-.95-.83-4.91.65-5.29.65-5.29S2157.59,320.35,2157.5,316Z"/><path class="cls-1" d="M2169.29,243l-1,0-.59,18-3.91,49.82s.48.66.56,5-.77,4.78-.77,4.78.89,1.32.84,5.28-.65,4.93-.65,4.93l2.72-.05s.6-1,.67-4.93-.85-5.28-.85-5.28,1.07-.72,1-5.09-.75-4.7-.75-4.7l2.71-49.8Z"/><path class="cls-1" d="M2172.94,458.74c-1.91-63-3.58-118.53-3.74-128l-8,.15-8,.13c.16,9.44.5,64.85.85,127.71Z"/><path class="cls-1" d="M2155.18,458.74c-.34-60.61-.65-114.37-.83-126.56l13.7-.25c.26,12.21,1.89,66.11,3.73,126.81h2.34c-1.91-62.94-3.58-118.56-3.76-128a1.16,1.16,0,0,0-1.18-1.15l-16,.29a1.17,1.17,0,0,0-1.14,1.19c.18,9.43.5,64.87.86,127.68Z"/><path class="cls-1" d="M2169.22,311.52a1.56,1.56,0,0,0-.39-.7l0-.59a109.46,109.46,0,0,1-16,.28v.6a1.47,1.47,0,0,0-.37.71A110.48,110.48,0,0,0,2169.22,311.52Z"/><path class="cls-1" d="M2169.42,319.76a108.08,108.08,0,0,1-16.88.31c.23.67.45.77.45.77a2.66,2.66,0,0,0-.24.58,108.48,108.48,0,0,0,16.52-.29,3.77,3.77,0,0,0-.26-.58S2169.22,320.44,2169.42,319.76Z"/><polygon class="cls-1" points="2159.88 258.51 2150.98 260.45 2168.82 260.12 2159.88 258.51"/><path class="cls-1" d="M2169.84,243s3-24.17-.57-27.9c-3.3-3.42-11.23-.48-17.27,5.37-3.09,3-5.29,5.2-4.92,10.07a66.62,66.62,0,0,0,2.36,12.83Z"/><path class="cls-1" d="M2149.47,244.54a1.17,1.17,0,0,1-1.15-.83,68.5,68.5,0,0,1-2.4-13.07c-.41-5.5,2.22-8,5.27-11,4.47-4.35,9.84-7.09,14-7.16a6.42,6.42,0,0,1,4.92,1.8c3.83,3.94,1.41,24.73.88,28.86a1.17,1.17,0,0,1-1.12,1Zm15.76-29.72c-3.54.06-8.41,2.62-12.42,6.5-2.95,2.86-4.89,4.75-4.57,9.15a65.41,65.41,0,0,0,2.09,11.72l18.48-.33c1.09-9.21,1.9-23.6-.37-25.94A4.17,4.17,0,0,0,2165.23,214.82Z"/><path class="cls-1" d="M2147.32,234h-.05a1.17,1.17,0,0,1-1.13-1c-.08-.75-.16-1.52-.22-2.3-.41-5.5,2.22-8,5.27-11,4.47-4.35,9.84-7.09,14-7.16a6.42,6.42,0,0,1,4.92,1.8c1,1,2.25,3.4,2.09,12.64a1.16,1.16,0,0,1-1.14,1.14h0a1.15,1.15,0,0,1-1.18-1.08c-.28-4.38-1-5.6-1.34-5.92a4.13,4.13,0,0,0-3.21-1.1c-3.53.06-8.41,2.62-12.42,6.51-2.45,2.38-4,4-4.46,6.54A1.17,1.17,0,0,1,2147.32,234Zm17.91-19.16c-3.54.06-8.41,2.62-12.42,6.5-2.3,2.23-4,3.87-4.47,6.58a32.74,32.74,0,0,1,2.94-3.1c4.48-4.35,9.84-7.09,14-7.16a6.8,6.8,0,0,1,4.16,1.15,5.64,5.64,0,0,0-1-2.87A4.17,4.17,0,0,0,2165.23,214.82Z"/><path class="cls-1" d="M1751.6,294.64l-19.18.36a1.19,1.19,0,0,1-1-.52c-.19-.28-.84-1.53-1-5.5a14.46,14.46,0,0,1,.49-5.21,12.24,12.24,0,0,1-.77-4.88c-.06-3,.32-4.59.76-5.37,0-2.54.06-18-1.5-35.44-1.44-15.77-2.91-27.89-2.93-28l-1.11-15.83a2.68,2.68,0,0,1,2.07-2.94,1.17,1.17,0,0,1,.27,0l24.92-.44a.78.78,0,0,1,.26,0,2.68,2.68,0,0,1,2.18,2.87l-.53,15.78c0,.19-1.06,12.35-1.92,28.17-.95,17.43-.34,32.93-.23,35.46.46.76.9,2.3,1,5.35a12.4,12.4,0,0,1-.59,4.9,14.48,14.48,0,0,1,.68,5.19c-.05,4-.66,5.24-.84,5.53A1.15,1.15,0,0,1,1751.6,294.64Zm-18.4-2,17.52-.32a18.28,18.28,0,0,0,.34-3.78c0-3.41-.66-4.62-.66-4.63a1.2,1.2,0,0,1-.13-.94,1.15,1.15,0,0,1,.31-.52c.07-.16.45-1,.4-3.93s-.52-4-.6-4.14a1.14,1.14,0,0,1-.34-.77c0-.17-.82-17,.21-36.08.87-15.85,1.91-28,1.92-28.17l.54-15.76v-.09a.3.3,0,0,0-.22-.35l-24.61.45a.32.32,0,0,0-.23.38l1.12,15.86c0,.06,1.5,12.21,2.93,28,1.72,19.06,1.52,35.88,1.51,36.05a1.11,1.11,0,0,1-.31.77c-.08.16-.51,1.11-.45,4.15,0,2.84.44,3.73.54,3.91a1.12,1.12,0,0,1,.34.55,1.18,1.18,0,0,1-.12.95h0s-.65,1.24-.49,4.61A20.79,20.79,0,0,0,1733.2,292.64Z"/><path class="cls-1" d="M1755.71,458.74c-2-76.15-3.93-153.74-4.14-165.26l-9.59.18-9.59.17c.21,11.49,1,88.86,1.81,164.91Z"/><path class="cls-1" d="M1735.38,458.74c-.77-73.75-1.56-148.93-1.8-163.77l16.84-.3c.31,14.85,2.23,90.22,4.11,164.07h2.34c-1.93-76.06-3.93-153.77-4.13-165.28a1.17,1.17,0,0,0-1.19-1.15l-19.17.35a1.17,1.17,0,0,0-1.15,1.19c.21,11.49,1,88.95,1.81,164.89Z"/><path class="cls-1" d="M1751.6,274.25a1.5,1.5,0,0,0-.4-.7l0-.59a156.58,156.58,0,0,1-19.13.34v.6a1.47,1.47,0,0,0-.37.71A154,154,0,0,0,1751.6,274.25Z"/><path class="cls-1" d="M1751.8,282.5a153.89,153.89,0,0,1-20,.36c.24.66.44.77.44.77a3.15,3.15,0,0,0-.23.58,153.77,153.77,0,0,0,19.67-.35,2.83,2.83,0,0,0-.26-.58S1751.6,283.17,1751.8,282.5Z"/><polygon class="cls-1" points="1740.45 207.93 1729.87 210.23 1751.08 209.85 1740.45 207.93"/><path class="cls-1" d="M1738.42,273.79s-1.19-16.44-2.93-35.66a196.63,196.63,0,0,0-4.49-27.87l-1.81-17.85-1,0,.8,17.85a253.26,253.26,0,0,1,4,27.63c1.74,19.21,1.85,35.93,1.85,35.93s-.84.61-.77,5,.93,4.76.93,4.76-.84,1.34-.65,5.29a20.09,20.09,0,0,0,.84,4.91l3.47-.07a28.05,28.05,0,0,1-.66-4.9c-.2-4,.65-5.3.65-5.3s-.86-.39-.93-4.75S1738.42,273.79,1738.42,273.79Z"/><path class="cls-1" d="M1751.12,192,1750,209.91a198.3,198.3,0,0,0-3.48,28c-1,19.26-1.64,35.73-1.64,35.73s.85.59.93,4.94-.76,4.79-.76,4.79.9,1.3.85,5.27a26.22,26.22,0,0,1-.5,4.92l3.48-.06a20.29,20.29,0,0,0,.66-4.93c0-4-.84-5.27-.84-5.27s.83-.43.76-4.79-.94-4.94-.94-4.94-.49-16.7.55-36a257.24,257.24,0,0,1,2.94-27.75l.17-17.87Z"/><path class="cls-1" d="M1750.46,171.19a16.12,16.12,0,0,0-21.36.39c-3.76,3.48-5.08,8.83-2.72,16,.2.64,1.32,4.85,1.32,4.85l12.46-.22,12.46-.22s1-4.26,1.14-4.9C1755.86,179.84,1754.35,174.54,1750.46,171.19Z"/><path class="cls-1" d="M1752.64,193.16l-24.92.45a1.17,1.17,0,0,1-1.15-.87c-.44-1.68-1.16-4.35-1.3-4.79-3-9.14,0-14.41,3-17.22a17.26,17.26,0,0,1,22.91-.42c3.14,2.7,6.34,7.86,3.68,17.11-.14.44-.75,3.14-1.15,4.83A1.16,1.16,0,0,1,1752.64,193.16Zm-24-1.9,23.09-.42c.29-1.31.82-3.58,1-4.06,1.83-6.38.81-11.46-3-14.7a14.92,14.92,0,0,0-19.8.36c-3.64,3.37-4.48,8.48-2.42,14.79C1727.64,187.71,1728.25,190,1728.6,191.26Z"/><path class="cls-1" d="M1754.67,183.55a1.16,1.16,0,0,1-1.18-1,10.91,10.91,0,0,0-3.72-7.13,14.94,14.94,0,0,0-19.81.35,10.9,10.9,0,0,0-3.48,7.27,1.17,1.17,0,0,1-2.32,0c-.56-5,.87-9.27,4.15-12.3a17.26,17.26,0,0,1,22.91-.42c3.39,2.91,5,7.12,4.6,12.16a1.18,1.18,0,0,1-1.15,1.08Zm-14.94-15.05a14.92,14.92,0,0,0-9.83,3.94,10.37,10.37,0,0,0-1.24,1.34,17.29,17.29,0,0,1,22.33-.4,10.55,10.55,0,0,0-1.29-1.3A14.85,14.85,0,0,0,1739.73,168.5Z"/><path class="cls-1" d="M1537.27,410.35a1.16,1.16,0,0,1-1.08-.66,1.31,1.31,0,0,1-.09-.34h0s0-.06,0-.07h0a1.76,1.76,0,0,1,0-.23,1.16,1.16,0,0,1,1.18-1,1.17,1.17,0,0,1,.28,2.3A1,1,0,0,1,1537.27,410.35Z"/><path class="cls-1" d="M1553.4,410.08l-.24,0a1.16,1.16,0,0,1-.93-1.25v-.05a1.16,1.16,0,0,1,2.32.12,1,1,0,0,1,0,.38A1.21,1.21,0,0,1,1553.4,410.08Zm-.06-1.19-1.06-.33Z"/><path class="cls-1" d="M1553.41,410.05h0a1.14,1.14,0,0,1-.82-.35c-.4-.11-2-.41-7.24-.32s-6.83.46-7.23.59a1.2,1.2,0,0,1-.79.37h0a1.16,1.16,0,0,1-1.17-1,44.13,44.13,0,0,1-.14-5,17.27,17.27,0,0,1,.7-5.15,11,11,0,0,1-.87-4.89c-.06-3.12.39-4.66.84-5.43l-3.53-64.3-.52-14.6a2.67,2.67,0,0,1,2.07-2.92l.26,0,17.14-.31a.86.86,0,0,1,.27,0,2.66,2.66,0,0,1,2.18,2.83v14.59l-1.22,64.41c.48.75,1,2.28,1,5.4a11.07,11.07,0,0,1-.69,4.91,17.67,17.67,0,0,1,.89,5.13,44.65,44.65,0,0,1,0,5A1.16,1.16,0,0,1,1553.41,410.05Zm-14.73-12a1.14,1.14,0,0,1,.39.5,1.15,1.15,0,0,1,0,1,12.94,12.94,0,0,0-.75,4.88c0,1.41,0,2.43,0,3.15a47.8,47.8,0,0,1,7-.48,45.29,45.29,0,0,1,7,.24c0-.73,0-1.77-.09-3.16a13.22,13.22,0,0,0-.92-4.86,1.15,1.15,0,0,1-.06-1,1.22,1.22,0,0,1,.36-.5c.09-.18.48-1.06.43-3.78,0-3.1-.59-4-.67-4.18a1.2,1.2,0,0,1-.39-.87l1.23-64.83V309.54s0-.08,0-.13a.3.3,0,0,0-.23-.35l-16.81.31a.3.3,0,0,0-.24.35.62.62,0,0,1,0,.13l.53,14.63,3.56,64.71a1.21,1.21,0,0,1-.34.89c-.08.14-.59,1.1-.53,4.2C1538.17,397,1538.58,397.86,1538.68,398Z"/><path class="cls-1" d="M1554.79,458.74c-.77-25.88-1.31-44.59-1.4-49.84,0,0,.35-.82-8-.68h-.12c-8.36.15-8,1-8,1,.1,5.22.23,23.81.39,49.54Z"/><path class="cls-1" d="M1538.81,458.74c-.15-24.68-.27-42.79-.36-48.85a38.63,38.63,0,0,1,6.82-.5l0-1.16.14,1.16a37.42,37.42,0,0,1,6.85.26c.13,6.08.65,24.29,1.39,49.09H1556c-.78-25.89-1.3-44.62-1.4-49.86h0a1.19,1.19,0,0,0-.23-.69c-.35-.54-.86-1.27-9-1.14h-.12c-8.13.14-8.61.9-8.94,1.44a1.3,1.3,0,0,0-.19.72h0c.09,5.22.23,23.81.38,49.53Z"/><path class="cls-1" d="M1552.49,389.7a1.57,1.57,0,0,0-.39-.71l0-.59a96.82,96.82,0,0,1-14.25.25v.6a1.55,1.55,0,0,0-.36.72A100.54,100.54,0,0,0,1552.49,389.7Z"/><path class="cls-1" d="M1552.28,398.73s.21-.12.41-.79a100.76,100.76,0,0,1-15.15.28c.24.66.45.76.45.76a2.7,2.7,0,0,0-.23.59,98.56,98.56,0,0,0,14.78-.27A3.29,3.29,0,0,0,1552.28,398.73Z"/><polygon class="cls-1" points="1550.71 325.26 1543.9 323.18 1536.92 325.51 1550.71 325.26"/><path class="cls-1" d="M1542,394.22c-.08-4.36.78-5.34.78-5.34l-4.82-63.9-.75-4.28-1.07-12.51h-1.2l.93,12.82.51,4,3.23,64.16s-.91.61-.83,5,2,4.8,2,4.8-1.42,1.24-1.35,5.19a8.32,8.32,0,0,0,1.17,4.31c.74-.06,2.73-.15,2.73-.15a29.19,29.19,0,0,1-.85-4.1c-.19-4,1-5.3,1-5.3S1542.05,398.58,1542,394.22Z"/><path class="cls-1" d="M1552.07,307.9h-1.18l-.62,12.56-.59,4.29-2.52,64s.89.95,1,5.31-1.31,4.72-1.31,4.72,1.27,1.29,1.23,5.24a29.53,29.53,0,0,1-.71,4.14s2,0,2.74.06a8.29,8.29,0,0,0,1-4.37c-.08-3.95-1.55-5.13-1.55-5.13s1.87-.51,1.79-4.87-1-4.93-1-4.93l.92-64.24.35-4,.48-12.85Z"/><path class="cls-1" d="M1549.91,281.29a11.58,11.58,0,0,0-6.86-2.06h-.12a11.69,11.69,0,0,0-6.79,2.3c-3.2,2.48-4.46,6.25-3.26,14.06,1.06,6.85,2,12.61,2,12.61l8.59-.16,8.58-.15s.78-5.78,1.59-12.67C1554.61,287.38,1553.2,283.66,1549.91,281.29Z"/><path class="cls-1" d="M1552.11,309.06h0l-8.58.15-8.58.16h0a1.15,1.15,0,0,1-1.16-1c0-.06-1-5.84-2-12.62-1.21-7.79-.15-12.19,3.7-15.17a12.89,12.89,0,0,1,7.37-2.54h.26a12.93,12.93,0,0,1,7.53,2.27c3.94,2.84,5.17,7.19,4.25,15-.82,6.81-1.6,12.63-1.6,12.69A1.15,1.15,0,0,1,1552.11,309.06Zm-8.63-2.18,7.57-.12c.27-2,.85-6.52,1.46-11.67,1-8.49-1-11.2-3.29-12.85a10.6,10.6,0,0,0-6.17-1.85H1543a10.57,10.57,0,0,0-6.1,2.07c-2.24,1.74-4.13,4.52-2.83,13,.79,5.12,1.55,9.67,1.89,11.6Z"/><path class="cls-1" d="M1554,293.42a1.19,1.19,0,0,1-1.2-1.05c-.3-3.2-1.33-5.22-3.47-6.75a10.79,10.79,0,0,0-12.36.23c-2.07,1.6-3,3.66-3.23,6.85a1.17,1.17,0,0,1-1.14,1.1h0a1.16,1.16,0,0,1-1.18-1.07c-.47-5.91.74-9.54,4.07-12.12a12.89,12.89,0,0,1,7.37-2.54h.26a12.93,12.93,0,0,1,7.53,2.27c3.42,2.46,4.77,6,4.49,12a1.16,1.16,0,0,1-1.13,1.12Zm-10.94-13h0a10.57,10.57,0,0,0-6.1,2.07,7.89,7.89,0,0,0-1.76,1.85l.39-.32a13.15,13.15,0,0,1,15.16-.27l.4.31a7.43,7.43,0,0,0-1.83-1.79,10.6,10.6,0,0,0-6.17-1.85Z"/><path class="cls-1" d="M2515.29,244.5h0a1.15,1.15,0,0,1-.76-.45c-.39-.17-1.89-.7-7.13-1.36s-6.83-.52-7.23-.45a1.25,1.25,0,0,1-.84.25,1.18,1.18,0,0,1-1.06-1.18,42.44,42.44,0,0,1,.57-4.94,17.08,17.08,0,0,1,1.44-5,10.82,10.82,0,0,1-.16-5c.39-3.12,1.06-4.58,1.62-5.27l7.23-64,1.57-14.49a2.7,2.7,0,0,1,2.48-2.59.76.76,0,0,1,.26,0l13.92,1.75a1,1,0,0,1,.25.06,2.68,2.68,0,0,1,1.75,3.13l-2.08,14.43-8.88,63.76c.36.81.66,2.38.26,5.5a11.17,11.17,0,0,1-1.38,4.77,17.62,17.62,0,0,1,.14,5.19,46.36,46.36,0,0,1-.67,4.92A1.17,1.17,0,0,1,2515.29,244.5Zm-12.87-14a1.1,1.1,0,0,1,.32.55,1.18,1.18,0,0,1-.16,1,12.8,12.8,0,0,0-1.45,4.72c-.21,1.39-.34,2.41-.42,3.13a46,46,0,0,1,7,.52,48.21,48.21,0,0,1,6.88,1.22c.1-.71.22-1.74.37-3.13a13,13,0,0,0-.23-4.94,1.19,1.19,0,0,1,.08-1,1.54,1.54,0,0,1,.43-.45c.13-.15.63-1,1-3.67.39-3.08,0-4.08-.07-4.22a1.19,1.19,0,0,1-.26-.91l8.95-64.17,2.09-14.49s0-.08,0-.13a.3.3,0,0,0-.17-.37l-13.59-1.71a.29.29,0,0,0-.28.31.57.57,0,0,1,0,.13l-1.57,14.55L2504,221.8a1.18,1.18,0,0,1-.46.82c-.1.12-.73,1-1.12,4.07C2502.07,229.37,2502.34,230.3,2502.42,230.49Z"/><path class="cls-1" d="M2491.09,458.74c9.13-81.17,22.41-200.13,24.34-215.38,0,0,.46-.78-7.85-1.83h-.12c-8.3-1-8-.18-8-.18-2,15.42-19,136.48-30.32,217.41Z"/><path class="cls-1" d="M2470.28,458.74c2.8-20,6-42.55,9.18-65.54,9.48-67.6,19.28-137.47,21-151a39,39,0,0,1,6.84.48l.14-1.16,0,1.17a39.24,39.24,0,0,1,6.74,1.24c-1.67,13.54-9.54,83.66-17.16,151.5-2.48,22.14-4.92,43.85-7.1,63.32h2.34c2.18-19.4,4.61-41,7.09-63.05,7.75-69.14,15.77-140.61,17.24-152.19h0a1.3,1.3,0,0,0-.11-.73c-.28-.58-.67-1.38-8.73-2.4l-.14,0c-8-1-8.63-.33-9,.16a1.35,1.35,0,0,0-.29.68h0c-1.45,11.59-11.44,82.81-21.1,151.7-3.23,23.12-6.41,45.77-9.22,65.86Z"/><path class="cls-1" d="M2517.29,224.21a1.6,1.6,0,0,0-.28-.75l.06-.59a98.79,98.79,0,0,1-14.15-1.78l-.09.58a1.74,1.74,0,0,0-.46.66A97.23,97.23,0,0,0,2517.29,224.21Z"/><path class="cls-1" d="M2515.79,233.12s.22-.08.53-.71a101.39,101.39,0,0,1-15-1.9c.13.69.33.81.33.81a2.88,2.88,0,0,0-.32.55,99.24,99.24,0,0,0,14.67,1.86A2.8,2.8,0,0,0,2515.79,233.12Z"/><polygon class="cls-1" points="2517.91 159.28 2523.2 159.99 2518.17 157.21 2512.6 158.66 2517.91 159.28"/><path class="cls-1" d="M2506.23,227.19c.54-4.33,1.54-5.19,1.54-5.19l5.92-63.73-.12-4.34.71-12.54-1.16-.15h0l-.91,12.83-.07,4-7.53,63.77s-1,.48-1.53,4.8,1.27,5,1.27,5-1.6,1-2.1,5a8.33,8.33,0,0,0,.55,4.43c.73,0,2.73.24,2.73.24a30,30,0,0,1-.26-4.19c.38-3.94,1.78-5.09,1.78-5.09S2505.69,231.5,2506.23,227.19Z"/><path class="cls-1" d="M2527,143l-1.16-.14-2.42,12.32-1.19,4.17-10.1,63.21s.75,1.07.2,5.39-2,4.49-2,4.49,1.06,1.46.45,5.36a30.38,30.38,0,0,1-1.28,4s2,.3,2.7.44a8.29,8.29,0,0,0,1.62-4.16c.5-3.92-.79-5.31-.79-5.31s1.92-.23,2.47-4.55-.28-5-.28-5l8.55-63.65.92-3.88L2527,143Z"/><path class="cls-1" d="M2523.68,113.56c-5,0-18.06,10.23-16.58,17.8a15.77,15.77,0,0,0,6.22,9.92l6.76.84,6.77.86a15.73,15.73,0,0,0,8.49-8.06C2538.66,128,2528.54,114.82,2523.68,113.56Z"/><path class="cls-1" d="M2526.71,144.14h0l-6.76-.86-6.76-.85h0a1.3,1.3,0,0,1-.49-.17,16.89,16.89,0,0,1-6.74-10.68c-.73-3.74,1.57-7.53,3.64-10.05,4-4.94,10.49-9.12,14.09-9.13a1.55,1.55,0,0,1,.31,0c3.48.91,8.69,6.57,11.38,12.35,1.38,3,2.66,7.2,1,10.65a16.84,16.84,0,0,1-9.19,8.66A1.24,1.24,0,0,1,2526.71,144.14Zm-6.48-3.18,6.48.83a15,15,0,0,0,7.58-7.37c1-2,.61-5.12-1-8.65-2.48-5.34-7.2-10.24-9.72-11-2.64.14-8.42,3.72-12.15,8.28-2.47,3-3.58,5.9-3.15,8.12a14.93,14.93,0,0,0,5.51,9Z"/><path class="cls-1" d="M2214.05,458.74c-3.3-5.2-8.91-9.83-12-10.23-3.06.4-8.67,5-12,10.23Z"/><path class="cls-1" d="M2191.52,458.74c3.18-4.68,8.08-8.6,10.56-9.05,2.48.45,7.39,4.37,10.55,9.05h2.78c-.11-.19-.22-.38-.34-.56-3.39-5.4-9.27-10.37-12.84-10.83a1.5,1.5,0,0,0-.3,0c-3.56.46-9.45,5.43-12.84,10.83-.12.18-.23.37-.34.56Z"/><path class="cls-1" d="M1067.39,458.74c.42-21.57.91-47.8,1-50.4,1.88.12,3.35.1,3.91.09h.4c.55,0,2-.05,3.91-.23.13,2.36,1.6,28.86,2.79,50.54h2.33c-1.24-22.65-2.79-50.64-2.8-50.84a2.07,2.07,0,0,0-2.15-2.06l-.22,0c-1.87.19-3.35.23-3.9.23h-.41c-.55,0-2,0-3.91-.09a.81.81,0,0,0-.22,0,2.08,2.08,0,0,0-2.07,2.13c0,.21-.53,28-1,50.61Z"/><path class="cls-1" d="M1070.34,458.74l-.23-51.49c-.48,0-1,0-1.61-.07l-.48,51.56Z"/><path class="cls-1" d="M1078.74,458.74l-2.35-51.69-1.61.12,1.63,51.57Z"/><path class="cls-1" d="M1077.48,386.32c-1.11-2.43-3.52-4.31-5.49-4.28s-4.31,2-5.33,4.47c-1.66,4-1.61,8.28,1.19,20.66l4.6.09L1077,407C1079.38,394.53,1079.29,390.28,1077.48,386.32Z"/><path class="cls-1" d="M1072.46,408.43h0l-4.59-.09a1.19,1.19,0,0,1-1.13-.91c-2.72-12.09-3-16.88-1.11-21.37,1.2-2.91,4-5.14,6.39-5.19s5.25,2.1,6.56,5c2,4.42,2,9.22-.35,21.39a1.18,1.18,0,0,1-1.08,1l-4.6.25Zm-3.67-2.4,3.64.07,3.62-.21c2.24-12.08,1.92-15.7.37-19.1-1-2.17-3.08-3.6-4.4-3.58s-3.35,1.53-4.27,3.74C1066.32,390.4,1066.12,394,1068.79,406Z"/><path class="cls-1" d="M1078.81,395.86a1.18,1.18,0,0,1-1.19-1,12.61,12.61,0,0,0-1.14-4.16c-1-2.18-3.07-3.61-4.39-3.59s-3.36,1.53-4.27,3.74a13.09,13.09,0,0,0-1,4.19,1.17,1.17,0,0,1-1.15,1.09h0a1.16,1.16,0,0,1-1.17-1.06,17.68,17.68,0,0,1,1.08-9c1.2-2.91,4-5.14,6.39-5.19s5.25,2.1,6.56,5a17.77,17.77,0,0,1,1.4,8.92,1.17,1.17,0,0,1-1.13,1.11ZM1072,383.21c-1.29,0-3.22,1.44-4.17,3.52a5.61,5.61,0,0,1,8.46-.15C1075.28,384.53,1073.29,383.19,1072,383.21Z"/><path class="cls-1" d="M322.93,265.7l-13.11.23a1.16,1.16,0,0,1-1.13-.8,18.47,18.47,0,0,1-.65-5,20.27,20.27,0,0,1,.39-4.88,28.6,28.6,0,0,1-.33-4.22,12.36,12.36,0,0,1,.58-4.59c.09-3.87,1.37-56,1.38-56.58a1.77,1.77,0,0,1,1.85-1.92s.1,0,.11,0c1.53,0,2.72,0,2.93,0s1.44,0,3-.12h.1a1.8,1.8,0,0,1,1.94,1.85c0,.56,3.16,52.63,3.4,56.5a12.55,12.55,0,0,1,.76,4.56,27.32,27.32,0,0,1-.2,4.23,20.42,20.42,0,0,1,.58,4.86,18.54,18.54,0,0,1-.48,5.07A1.18,1.18,0,0,1,322.93,265.7Zm-12.21-2.12,11.22-.2a20.75,20.75,0,0,0,.22-3.56,16.65,16.65,0,0,0-.53-4.44,1,1,0,0,1,0-.59,23.39,23.39,0,0,0,.19-4,9.31,9.31,0,0,0-.6-3.74,1.25,1.25,0,0,1-.14-.49c-.13-2.19-3.11-51.42-3.4-56.36-1.37.07-2.39.1-2.58.1h-2.67c-.14,5.31-1.33,54.25-1.38,56.43a1.29,1.29,0,0,1-.13.52h0a9.4,9.4,0,0,0-.46,3.74,22.92,22.92,0,0,0,.35,4.05,1.18,1.18,0,0,1,0,.59,16.78,16.78,0,0,0-.37,4.46A20.13,20.13,0,0,0,310.72,263.58Z"/><path class="cls-1" d="M315.29,246.56l-.3-57.5h-1.93l-.84,57.55s-1.06,1.17-1,4a21,21,0,0,0,.49,4.59,30.19,30.19,0,0,0-.17,4.61,25.35,25.35,0,0,0,.78,4.9l3-.06a33.79,33.79,0,0,1-.78-4.9,18.35,18.35,0,0,1,.18-4.61,18.92,18.92,0,0,1-.41-4.71A7.56,7.56,0,0,1,315.29,246.56Z"/><path class="cls-1" d="M320.86,250.44a6.19,6.19,0,0,0-1.23-4.06L316.8,189l-1.81.07,1.72,57.47a8.54,8.54,0,0,1,1,3.86,20.82,20.82,0,0,1-.19,4.71,18.68,18.68,0,0,1,.34,4.6,33.37,33.37,0,0,1-.6,4.93l3-.05a26.58,26.58,0,0,0,.6-4.93,30.31,30.31,0,0,0-.34-4.6A21.39,21.39,0,0,0,320.86,250.44Z"/><path class="cls-1" d="M327.32,458.74c-1.95-85-4.19-181.39-4.42-194.21l-6.54.12h0l-6.54.12c.23,12.81,1.46,109.06,2.56,194Z"/><path class="cls-1" d="M311.19,458.74h2.34c-.09-7.5-.19-15.11-.29-22.77-1-76.2-2-154.92-2.26-170.06l10.78-.2c.29,15.14,2.11,93.86,3.87,170,.18,7.73.36,15.41.53,23h2.34c-.19-7.6-.36-15.3-.54-23.05-1.8-78.42-3.67-159.52-3.89-171.18a1.17,1.17,0,0,0-1.19-1.15l-13.09.24a1.17,1.17,0,0,0-1.16,1.18c.2,11.68,1.27,92.79,2.27,171.22C311,443.65,311.1,451.25,311.19,458.74Z"/><path class="cls-1" d="M318,175.52a37.28,37.28,0,0,0-3.4-9.68v0a37.82,37.82,0,0,0-3,9.79c-1.07,5.65-.86,11.54.09,13.45H315l3.38-.14C319.26,187,319.24,181.12,318,175.52Z"/><path class="cls-1" d="M315,190.25H311.6a1.2,1.2,0,0,1-1-.65c-1.16-2.32-1.25-8.55-.19-14.18a40.87,40.87,0,0,1,3.07-9.92l0-.09a.7.7,0,0,1,.13-.24,1.16,1.16,0,0,1,1.21-.5,1.2,1.2,0,0,1,.88.78h0a41.78,41.78,0,0,1,3.42,9.8c1.26,5.59,1.4,11.81.32,14.18a1.19,1.19,0,0,1-1,.68l-3.37.13Zm-2.6-2.34H315l2.56-.1c.47-2,.49-6.81-.68-12a43.73,43.73,0,0,0-2.23-7.11,43.52,43.52,0,0,0-2,7.18C311.67,181.12,311.87,185.91,312.42,187.91Z"/><path class="cls-1" d="M322.47,247.08a3.68,3.68,0,0,0-.27-.64s0-.3-.06-.81a79.64,79.64,0,0,1-12.26.21l0,.81a3,3,0,0,0-.24.66A75.67,75.67,0,0,0,322.47,247.08Z"/><path class="cls-1" d="M322.87,255.54a4.06,4.06,0,0,0-.14-.53,7.66,7.66,0,0,0,.1-.86,43,43,0,0,1-13.35.24c.08.56.15.86.15.86s-.06.19-.13.53C312.36,256.61,320.05,256.47,322.87,255.54Z"/><path class="cls-1" d="M1023.83,361.55a1.16,1.16,0,0,1-.47-.17h0c-.05,0-6.07-3.8-21.79-6.17s-22.57-.55-22.64-.53a1.2,1.2,0,0,1-1.2-.35c-.23-.28-1.46-1.94-1.28-7.1a18.17,18.17,0,0,1,1.66-7.3c-.53-.94-1.17-2.83-1-6.26.24-3.82,1.32-5.57,2-6.32l7.18-111.75a1.2,1.2,0,0,1,.94-1.08,81.84,81.84,0,0,1,19-1.18c9.18.56,15.75,1.51,16.48,1.62s7.36,1.15,16.28,3.32a81.26,81.26,0,0,1,17.76,6.72,1.16,1.16,0,0,1,.58,1.3l-26.08,108.91c.45.91,1,2.9,0,6.62-.81,3.33-2,4.94-2.77,5.69a17.72,17.72,0,0,1-.57,7.48c-1.34,5-3,6.19-3.3,6.39A1.17,1.17,0,0,1,1023.83,361.55Zm-21.91-8.65c13.12,2,19.66,4.88,21.85,6a17.8,17.8,0,0,0,2.31-11.54,1.17,1.17,0,0,1,.63-1.4h0s1.35-.87,2.3-4.72.06-5.15.06-5.16a1,1,0,0,1-.22-1l26-108.48a80.65,80.65,0,0,0-16.4-6.09c-8.83-2.15-15.31-3.16-16-3.28s-7.26-1.05-16.33-1.61a81.54,81.54,0,0,0-17.48,1L981.43,328a1.2,1.2,0,0,1-.55.92h0s-1.18,1-1.41,4.92.84,5.21.85,5.22a1.1,1.1,0,0,1,.13,1.49,14.12,14.12,0,0,0-1.67,6.8,14.46,14.46,0,0,0,.48,4.9C981.69,351.77,988.8,350.93,1001.92,352.9Z"/><path class="cls-1" d="M1081.74,123.93c-14.48-16.3-29.4-22.57-41.61-24.41h-.05c-12.22-1.84-28.31-.25-47,11.06-21.72,13.2-19.61,40.12-16.74,56.62s11.1,48.48,11.1,48.48a82.16,82.16,0,0,1,18.65-1.17c9.4.58,16.12,1.57,16.41,1.62s7,1.07,16.14,3.29a81.59,81.59,0,0,1,17.49,6.62s17.28-28.15,24.88-43.06S1098.62,142.94,1081.74,123.93Z"/><path class="cls-1" d="M987.3,216.83a1.16,1.16,0,0,1-.95-.87c-.09-.32-8.28-32.22-11.12-48.57-5-28.8.65-47.71,17.28-57.81,16.14-9.79,32.2-13.56,47.74-11.22s29.84,10.69,42.36,24.79c12.93,14.55,12.76,34.3-.52,60.35-7.53,14.79-24.76,42.85-24.93,43.13a1.16,1.16,0,0,1-1.55.42,81.19,81.19,0,0,0-17.2-6.5c-8.84-2.15-15.34-3.16-16.05-3.28s-7.23-1.05-16.3-1.61a81.55,81.55,0,0,0-18.35,1.15A1.43,1.43,0,0,1,987.3,216.83Zm35.4-1.87c.73.12,7.33,1.15,16.26,3.32a82,82,0,0,1,16.77,6.21c3-5,17.57-28.86,24.28-42.06,12.8-25.09,13.08-44,.86-57.73s-25.93-21.77-40.91-24-30.59,1.39-46.23,10.9-21,27.67-16.2,55.41c2.54,14.59,9.37,41.68,10.81,47.34a82.76,82.76,0,0,1,17.86-1C1015.38,213.9,1022,214.85,1022.7,215Z"/><path class="cls-1" d="M994.75,338.89a11,11,0,0,1-.25-5.81c.74-3.84,1.9-4.54,1.9-4.54l10.74-114-1-.07a77.12,77.12,0,0,0-10.78.15l-8.63,114.23s-1.44.81-1.66,4.52,1.44,5.38,1.44,5.38-3.27,5.56-.92,14.06a60.53,60.53,0,0,1,8.14.27A27.38,27.38,0,0,1,994.75,338.89Z"/><path class="cls-1" d="M1023.52,334.42l25.42-111.69a76.12,76.12,0,0,0-10.26-3.32l-1-.23-23.35,112.06s.92,1,.5,4.9a11.13,11.13,0,0,1-2,5.48,27.36,27.36,0,0,1-3.22,13.9,60.07,60.07,0,0,1,7.87,2.14c4.74-7.43,3.26-13.7,3.26-13.7s2.09-1.12,3-4.73S1023.52,334.42,1023.52,334.42Z"/><path class="cls-1" d="M1005.39,329.69h.05c1,.1,15.74,1.66,25.16,8a4.07,4.07,0,0,0-.62-2.28s-6.2-5.27-24.27-7.65c-18-3.06-25.45.16-25.45.16a4.11,4.11,0,0,0-1.26,2C989.86,326.65,1004.43,329.49,1005.39,329.69Z"/><path class="cls-1" d="M1027.23,347c-2.28-1.48-9.14-5.14-23.37-7-14.14-2.4-21.78-.92-24.39-.18a.07.07,0,0,0,0,0,8.56,8.56,0,0,0-.9,1.92c10.66-2.62,24,0,24.94.18h.05c.94.09,14.48,1.53,23.9,7.19a9.18,9.18,0,0,0-.29-2.11Z"/><path class="cls-1" d="M1009.18,458.74c7.16-47.51,13.44-89.21,14.82-98.34,0,0-6-3.89-22.23-6.34h-.06c-16.23-2.44-23.1-.49-23.1-.49-1.44,9.57-8.27,54.88-15.85,105.18Z"/><path class="cls-1" d="M964,458.74l15.7-104.21c2.12-.38,9.05-1.25,22,.68s19.21,4.82,21.12,5.81L1008,458.74h2.36l14.79-98.17a1.18,1.18,0,0,0-.51-1.15c-.26-.16-6.39-4.05-22.74-6.52s-23.31-.55-23.6-.46a1.15,1.15,0,0,0-.84.95L961.58,458.74Z"/><path class="cls-1" d="M974.44,149.56a1.17,1.17,0,0,1-1-1c-1.82-10.62,2.11-28.06,15.06-41.26,9-9.17,25.42-19.24,52.7-15.13,26.64,4,39.27,18.36,45.17,29.69,8.34,16,7.79,34.35,2.92,44.15a1.14,1.14,0,0,1-1.3.62,1.15,1.15,0,0,1-.91-1.11c-.15-5.95-3.25-36-50.46-43.08s-59,20.65-60.92,26.3a1.17,1.17,0,0,1-1.2.79Zm66.44-55c-26.3-4-42.08,5.68-50.69,14.46-10.19,10.4-14.85,24.33-14.81,34.63,5.06-10,20.43-29.65,61.61-23.44,41,6.17,50,29.27,51.94,40.38,2.77-9.7,2.15-24.6-4.61-37.57C1078.67,112.13,1066.55,98.39,1040.88,94.52Z"/><path class="cls-1" d="M2240.68,365.74h0c-8.21-.89-35-4.37-34.17-11.52,1-8.91,6.08-54.59,6.13-55.05a1.18,1.18,0,0,1,.88-1,82.59,82.59,0,0,1,18.89-2c9.19.18,15.81.87,16.53.94s7.4.85,16.42,2.64a82.25,82.25,0,0,1,18,6,1.18,1.18,0,0,1,.65,1.17c-.05.47-5,46.72-5.87,55.08-.29,2.75-4.35,4.25-12.76,4.72A161.31,161.31,0,0,1,2240.68,365.74Zm-25.82-65.49c-.7,6.26-5.14,46-6,54.23-.23,2.16,9.8,6.51,32.11,8.95h0a160.1,160.1,0,0,0,24.32,1c8.18-.45,10.5-1.93,10.57-2.64.85-7.74,5.11-47.95,5.78-54.24a81.15,81.15,0,0,0-16.71-5.45c-8.91-1.78-15.44-2.54-16.15-2.61s-7.29-.75-16.38-.94A82.27,82.27,0,0,0,2214.86,300.25Z"/><path class="cls-1" d="M2325.74,158.32c-20.69-21.46-41.41-29.17-58.19-31h-.08c-16.78-1.82-38.66,1.25-63.5,17.74-28.94,19.23-24.53,55.88-19.69,78.25s29.52,76,29.52,76a81.71,81.71,0,0,1,18.58-1.94c9.41.19,16.18.91,16.46.95s7,.77,16.27,2.62a81.64,81.64,0,0,1,17.73,5.89s35.73-47,45.28-67.84S2349.87,183.33,2325.74,158.32Z"/><path class="cls-1" d="M2213.67,300.46a1.16,1.16,0,0,1-.94-.68c-.25-.53-24.78-54-29.59-76.23-8.41-38.86-1.81-64.86,20.19-79.47,21.39-14.22,43-20.24,64.27-17.92s41.15,12.86,59,31.35c18.34,19,19.19,45.82,2.59,82-9.48,20.68-43.93,66.14-45.39,68.07a1.19,1.19,0,0,1-1.44.34,81.17,81.17,0,0,0-17.45-5.79c-8.91-1.78-15.46-2.54-16.18-2.62s-7.26-.74-16.35-.93a81.28,81.28,0,0,0-18.29,1.9A1.35,1.35,0,0,1,2213.67,300.46Zm35.29-3.32c.73.09,7.37.85,16.39,2.64a83.56,83.56,0,0,1,17.14,5.58c4.61-6.12,35.83-47.85,44.57-66.87,16.14-35.16,15.43-61.12-2.16-79.36-17.43-18.08-36.77-28.4-57.48-30.65s-41.87,3.64-62.8,17.54c-21.11,14-27.38,39.22-19.2,77,4.43,20.45,25.87,67.91,29,74.89a82.46,82.46,0,0,1,17.93-1.75C2241.6,296.38,2248.24,297.07,2249,297.14Z"/><path class="cls-1" d="M2230.8,297.35l-1.27,0a.55.55,0,0,0-.18,0c-.39,0-.79,0-1.17,0H2228l-1.26.07h-.17c-.86.05-1.7.11-2.51.19h0c-.84.08-1.65.17-2.41.26l-6.72,61.61a87,87,0,0,0,11.41,2.87l7.08-65.05-1,0h-1.58Z"/><path class="cls-1" d="M2257.05,365.68a94.38,94.38,0,0,0,11.64-.38l6.71-61.51c-1.45-.51-3.05-1-4.76-1.51l-.09,0-1.23-.34-.16,0-1.14-.29-.14,0-1.23-.28-.27-.06-1.27-.27-1-.19Z"/><path class="cls-1" d="M2336.87,215.93h-.08a1.2,1.2,0,0,1-1-1.07c-1-15.73-9.1-67.56-69.77-74.17s-79.73,42.26-84.12,57.39a1.17,1.17,0,0,1-1.15.85,1.2,1.2,0,0,1-1.12-.93c-3-14.29,1.33-38.17,18.16-56.81,11.7-13,33.46-27.54,70.77-23.48,36.43,4,54.37,22.75,63,37.8,12.25,21.31,12.51,46.18,6.46,59.74A1.18,1.18,0,0,1,2336.87,215.93ZM2268.34,120c-36.33-4-57.45,10.17-68.78,22.71-14.47,16-19.44,36-18.3,49.88a93.57,93.57,0,0,1,18.64-31.43c16.72-18.13,39.06-25.81,66.41-22.83s47.5,15.29,59.93,36.6a93.6,93.6,0,0,1,11.41,34.49c3.74-13.47,2.31-34.73-8.06-52.79C2321.22,142.08,2303.79,123.89,2268.34,120Z"/><path class="cls-1" d="M1110.31,458.74l-6.75-89.15A81.3,81.3,0,0,1,1120.7,366c9.06-.81,15.62-.84,16.4-.85s7.27,0,16.33.85a81.16,81.16,0,0,1,17.13,3.58l-6.74,89.15h2.35l6.79-89.87a1.16,1.16,0,0,0-.77-1.19,81.41,81.41,0,0,0-18.56-4c-9.15-.81-15.81-.85-16.59-.85s-7.39,0-16.54.85a81.25,81.25,0,0,0-18.56,4,1.16,1.16,0,0,0-.77,1.19l6.79,89.87Z"/><path class="cls-1" d="M1137.1,267.32c-43.65,0-59.51,23.08-57.51,36.86a108.37,108.37,0,0,0,4.54,18.31c5.3,15.89,18.2,46.29,18.2,46.29a81.4,81.4,0,0,1,18.27-3.94c9.37-.83,16.17-.85,16.47-.85s7.08,0,16.45.85a81.41,81.41,0,0,1,18.28,3.94s12.9-30.4,18.19-46.29a107.39,107.39,0,0,0,4.55-18.31C1196.54,290.4,1180.73,267.32,1137.1,267.32Z"/><path class="cls-1" d="M1102.33,370a1.18,1.18,0,0,1-1.08-.72c-.12-.3-13-30.62-18.22-46.37a107.38,107.38,0,0,1-4.6-18.51c-.92-6.36,1.66-13.6,7.09-19.87,5.93-6.84,20.51-18.33,51.58-18.33s45.59,11.47,51.51,18.31c5.42,6.27,8,13.52,7.09,19.89a109.15,109.15,0,0,1-4.59,18.51c-5.26,15.75-18.11,46.07-18.23,46.37a1.2,1.2,0,0,1-1.49.65,80.48,80.48,0,0,0-18-3.87c-8.73-.78-15.15-.84-16.35-.85s-7.65.07-16.38.85a80.49,80.49,0,0,0-18,3.87A1.34,1.34,0,0,1,1102.33,370Zm34.71-7.12c1.26,0,7.78.07,16.59.85a82.44,82.44,0,0,1,17.51,3.65c2.28-5.39,13.06-31.16,17.75-45.21a104.35,104.35,0,0,0,4.5-18.11c.81-5.61-1.64-12.35-6.56-18-5.64-6.53-19.64-17.5-49.73-17.5s-44.16,11-49.81,17.53c-4.91,5.67-7.36,12.4-6.55,18a105,105,0,0,0,4.5,18.11c4.68,14.05,15.48,39.82,17.74,45.21a82.88,82.88,0,0,1,17.52-3.65C1129.31,362.9,1135.82,362.83,1137,362.83Z"/><path class="cls-1" d="M1126.25,458.74l-4.65-94-1,.08A76.07,76.07,0,0,0,1110,366.6l6.07,92.14Z"/><path class="cls-1" d="M1158.09,458.74l6.08-92.14a76.23,76.23,0,0,0-10.65-1.76l-1-.08-4.65,94Z"/><path class="cls-1" d="M1194.54,305.35h-.09a1.14,1.14,0,0,1-1.06-1c-1.16-6.57-8.63-28-56.32-28s-55.18,21.42-56.33,28a1.15,1.15,0,0,1-1.06,1,1.17,1.17,0,0,1-1.2-.79c-3-9-1.94-17.36,3-24.16,5.87-8.12,20.29-17.81,55.64-17.81,34.59,0,49.05,9.89,55.09,18.17,5,6.83,6.19,15.27,3.46,23.79A1.19,1.19,0,0,1,1194.54,305.35Zm-57.44-40.43c-34.37,0-48.19,9.15-53.75,16.83a22.62,22.62,0,0,0-3.71,17.94c3.5-9.31,15.62-25.64,57.43-25.64,41.59,0,53.79,16.16,57.37,25.5a23.08,23.08,0,0,0-4.14-17.42C1184.58,274.28,1170.7,264.92,1137.1,264.92Z"/><path class="cls-1" d="M1509.57,416.2a1.12,1.12,0,0,1-.47-.11c-.13-.06-6.61-2.82-22.28-2.85s-22.21,2.82-22.28,2.85a1.14,1.14,0,0,1-1.22-.18c-.3-.24-1.74-1.7-2.33-6.81a17.05,17.05,0,0,1,.68-7.82,17.72,17.72,0,0,1-.54-6.34c.42-4.3,1.62-6.38,2.26-7.21L1464.65,281a1.15,1.15,0,0,1,.52-1c.18-.13,4.86-3.16,21.65-3.16s21.47,3,21.66,3.17a1.17,1.17,0,0,1,.52.95l1.26,106.75c.64.85,1.94,3.06,2.08,7.14a26.09,26.09,0,0,1-.36,6.39,17.14,17.14,0,0,1,.68,7.83c-.6,5.11-2,6.57-2.33,6.81A1.18,1.18,0,0,1,1509.57,416.2ZM1465.33,389s-1.43,1.48-1.87,6.12A15.41,15.41,0,0,0,1464,401a1.13,1.13,0,0,1-.06.88,14.15,14.15,0,0,0-.63,7,14.58,14.58,0,0,0,1.2,4.78c2.33-.8,9.18-2.68,22.31-2.7s20,1.9,22.32,2.7a14.41,14.41,0,0,0,1.19-4.78,14.09,14.09,0,0,0-.63-7,1.17,1.17,0,0,1-.06-.9h0s.52-1.59.37-6c-.15-4.22-1.74-6-1.75-6a1.23,1.23,0,0,1-.34-.79l-1.25-106.47c-1.55-.68-6.9-2.51-19.85-2.51s-18.28,1.83-19.84,2.51l-1.27,106.47a1.2,1.2,0,0,1-.38.85Z"/><path class="cls-1" d="M1486.62,386.39v0h.4v0c2.31-.08,14.4-.32,22.92,3.71a3.6,3.6,0,0,0-.84-1.93s-6.13-3.8-22.28-3.52c-16.15-.28-22.28,3.52-22.28,3.52a3.6,3.6,0,0,0-.84,1.93C1472.23,386.07,1484.31,386.31,1486.62,386.39Z"/><path class="cls-1" d="M1510.78,401.32c-2.46-1.12-9.75-3.69-24-3.45-14.2-.24-21.49,2.33-24,3.45a.07.07,0,0,1,0,0,9.34,9.34,0,0,0-.61,2c9.44-3.88,21.85-3.64,24.31-3.55v0h.45v0c2.46-.09,14.86-.33,24.29,3.55a8.81,8.81,0,0,0-.59-2A.07.07,0,0,1,1510.78,401.32Z"/><path class="cls-1" d="M1509.57,458.74V415s-6.4-2.9-22.52-3h-.45c-16.13.06-22.53,3-22.53,3v43.71Z"/><path class="cls-1" d="M1465.24,458.74V415.83c2-.69,8.62-2.55,21.36-2.59h.44c12.75,0,19.35,1.9,21.37,2.59v42.91h2.33V415a1.18,1.18,0,0,0-.68-1.07c-.27-.12-6.8-3-22.94-3h-.6c-16.13.06-22.67,2.93-22.93,3a1.16,1.16,0,0,0-.69,1.07v43.71Z"/><path class="cls-1" d="M1528.28,187.57c-9.22-6.45-73.7-6.45-82.92,0s-8.35,14.55-7.73,17.65,12.79,45.05,17.21,60.75,11,15,11,15,3.37-3,21-3,21,3,21,3,6.57.68,11-15,16.59-57.65,17.21-60.75S1537.57,194.07,1528.28,187.57Z"/><path class="cls-1" d="M1507.94,282.17h-.23a1.31,1.31,0,0,1-.65-.28s-3.68-2.67-20.24-2.67-20.24,2.67-20.27,2.7a1.49,1.49,0,0,1-.61.25h-.25c-1.25,0-7.73-.76-12-15.88-1.59-5.62-4.14-14.54-6.84-24-4.92-17.13-10-34.83-10.39-36.87-1-5.24-.48-12.75,8.22-18.83,5.32-3.73,26-5.06,42.12-5.06s36.81,1.33,42.13,5.06c8.69,6.08,9.25,13.59,8.21,18.83-.4,2-5.47,19.75-10.38,36.88-2.71,9.43-5.26,18.35-6.84,24C1515.69,281.41,1509.21,282.17,1507.94,282.17Zm-21.12-5.3c14.94,0,20,2.12,21.35,2.95,1.09-.14,6-1.52,9.52-14.17,1.58-5.62,4.14-14.52,6.84-23.95,4.67-16.3,10-34.77,10.34-36.71,1.31-6.53-1.2-12.22-7.25-16.46-3.9-2.72-20.68-4.63-40.8-4.63s-36.89,1.91-40.79,4.63c-6,4.24-8.57,9.93-7.26,16.46.39,1.94,5.68,20.4,10.35,36.69,2.7,9.44,5.25,18.35,6.84,24,3.55,12.65,8.43,14,9.52,14.17C1466.88,279,1471.88,276.87,1486.82,276.87Z"/><path class="cls-1" d="M1510.32,238.34l-.23,0a1.16,1.16,0,0,1-.93-1.25l2.48-24.78L1506.46,228a1.2,1.2,0,0,1-1.36.78,1.18,1.18,0,0,1-.92-1.27l1.51-14.36-5.62,20.43a1.16,1.16,0,0,1-1.3.85,1.17,1.17,0,0,1-1-1.22l1.13-21.24-3.19,16.3a1.17,1.17,0,0,1-2.32-.23V204.55l-1.88,7.2a1.16,1.16,0,0,1-2.27-.08l-1.75-8.92-1,18.71a1.17,1.17,0,0,1-2.32.11l-3.29-21.13-.65,27.61a1.18,1.18,0,0,1-1.06,1.14,1.17,1.17,0,0,1-1.25-.89l-4.35-18.36.75,21.78a1.64,1.64,0,0,1,0,.23,1.18,1.18,0,0,1-1.17,1.17h0a1.18,1.18,0,0,1-1.15-.94l-3.92-19.49.44,13a1.5,1.5,0,0,1,0,.22,1.16,1.16,0,0,1-1.19,1.16,1.17,1.17,0,0,1-1.08-.73l-5.42-13.8,2.1,14.22a1.49,1.49,0,0,1,0,.36,1.17,1.17,0,0,1-2.27.41l-8-21.76.49,12.08c0,.08,0,.16,0,.24a1.18,1.18,0,0,1-1.18,1.16h0a1.14,1.14,0,0,1-1.07-.73l-.29-.72,3.58,14.62a1.19,1.19,0,0,1,.1.46,1.16,1.16,0,0,1-1.16,1.16h0a1.17,1.17,0,0,1-1.08-.69l-7-16,2.65,12.51a1.19,1.19,0,0,1-1.08,1.59h0a1.15,1.15,0,0,1-1.09-.76c-.89-2.42-8.72-23.65-9-25.28-1-5.24-.48-12.75,8.22-18.83,10-7.05,27-11.78,42.12-11.78s32.06,4.73,42.13,11.78c8.69,6.08,9.25,13.59,8.21,18.83-.32,1.63-7.51,21.12-8.33,23.34a1.17,1.17,0,0,1-1.41.72,1.16,1.16,0,0,1-.82-1.36l2.62-12.8L1526,221.9a1.14,1.14,0,0,1-1.4.6,1.17,1.17,0,0,1-.79-1.31l.54-3.14-3.8,11.08a1.17,1.17,0,0,1-2.26-.51l2.37-20.92-9.22,29.82A1.18,1.18,0,0,1,1510.32,238.34Zm3.53-37.65a.93.93,0,0,1,.24,0A1.17,1.17,0,0,1,1515,202l-2.38,23.76,9.46-30.6a1.15,1.15,0,0,1,1.35-.79,1.17,1.17,0,0,1,.93,1.27l-2.57,22.64,5-14.74a1.17,1.17,0,0,1,2.26.59l-1.63,9.46,3.66-7.49a1.16,1.16,0,0,1,2.18.75l-1.3,6.39c1.55-4.29,2.73-7.69,2.84-8.22,1.31-6.53-1.2-12.22-7.25-16.46-9.71-6.79-26.1-11.35-40.8-11.35s-31.08,4.56-40.79,11.35c-6,4.24-8.57,9.93-7.26,16.46.12.58,1.5,4.5,3.29,9.46l-1.61-7.62a1.17,1.17,0,0,1,2.21-.71l6.18,14-4.36-17.74a1.17,1.17,0,0,1,2.22-.71l3.91,9.7-.52-12.92a1.17,1.17,0,0,1,2.27-.44l6.69,18.14-2-13.38a1.17,1.17,0,0,1,2.25-.6l6.67,17-.68-20.5a1.17,1.17,0,0,1,2.31-.27l3.9,19.41-.66-19.52a1.16,1.16,0,0,1,1-1.2,1.15,1.15,0,0,1,1.28.89l5,20.94.75-31.61a1.17,1.17,0,0,1,2.33-.14l3.56,22.9.89-16.92A1.17,1.17,0,0,1,1488,193l2.58,13.2,2.87-11a1.19,1.19,0,0,1,1.29-.86,1.17,1.17,0,0,1,1,1.16V216l4.08-20.78a1.17,1.17,0,0,1,2.31.28l-1.43,27,6.51-23.71a1.16,1.16,0,0,1,2.28.43L1507.63,217l5.11-15.49A1.16,1.16,0,0,1,1513.85,200.69Z"/><path class="cls-1" d="M1503.26,388.17l-1.41-109.08a59.6,59.6,0,0,0-6.26-.75l1.19,108.24s.94.79,1.1,4.27c.13,3.19.2,7.26.2,7.26a27.33,27.33,0,0,1-1.11,14.22,25.57,25.57,0,0,1,5.82.95c3.59-8.06,1.19-14,1.19-14a63.94,63.94,0,0,1,.16-6.85C1504.43,389.08,1503.26,388.17,1503.26,388.17Z"/><path class="cls-1" d="M1475.56,398.11s.08-4.07.21-7.26c.15-3.48,1.1-4.27,1.1-4.27l1.19-108.24a59.17,59.17,0,0,0-6.27.75l-1.41,109.08s-1.16.91-.87,4.22a62.53,62.53,0,0,1,.15,6.85s-2.4,6,1.2,14a25.46,25.46,0,0,1,5.81-.95A27.33,27.33,0,0,1,1475.56,398.11Z"/><path class="cls-1" d="M357,258.33h0a18.22,18.22,0,0,1-5.88-.58,1.16,1.16,0,0,1-.7-.67c-.07-.16-.23-.56-.35-4.45a13,13,0,0,1,.5-4.6,12.09,12.09,0,0,1-1-4.64,9.3,9.3,0,0,1,.62-4.64l-4.45-44.9-.52-9.91a2.66,2.66,0,0,1,1.86-3,1.26,1.26,0,0,1,.28,0l10.93-.59a1.46,1.46,0,0,1,.29,0,2.68,2.68,0,0,1,2.17,2.75l.54,9.85.36,45.17a9.22,9.22,0,0,1,1.12,4.54,12.23,12.23,0,0,1-.48,4.73,12.79,12.79,0,0,1,1,4.53c.3,3.87.19,4.28.14,4.44a1.2,1.2,0,0,1-.65.76,18.38,18.38,0,0,1-5.75,1.2Zm-4.46-2.63a19,19,0,0,0,4.33.29,19.45,19.45,0,0,0,4.27-.75c0-.54-.05-1.5-.18-3.14a9,9,0,0,0-.85-3.85,1.11,1.11,0,0,1-.11-1.4h0a8.36,8.36,0,0,0,.46-4,7.53,7.53,0,0,0-.74-3.39c-.33-.2-.38-.47-.39-.87L359,193l-.54-9.86V183c0-.23-.08-.31-.17-.35l-10.57.56a.34.34,0,0,0-.15.38s0,.09,0,.14l.52,9.91,4.49,45.25a.86.86,0,0,1-.28.9,7.36,7.36,0,0,0-.38,3.44,8.56,8.56,0,0,0,.9,4,1.05,1.05,0,0,1,0,1.4,9,9,0,0,0-.43,3.91C352.48,254.21,352.54,255.16,352.58,255.7Z"/><polygon class="cls-1" points="353.47 191.87 348.68 194.03 358.49 193.5 353.47 191.87"/><path class="cls-1" d="M361,239.38a2.26,2.26,0,0,0-.5-.84v-.45a62,62,0,0,1-9.14.49l0,.45a2.28,2.28,0,0,0-.4.88A60.85,60.85,0,0,0,361,239.38Z"/><path class="cls-1" d="M361,247.48a2.56,2.56,0,0,0,.25-.59,72.52,72.52,0,0,1-9.67.51,2.74,2.74,0,0,0,.31.57,2.58,2.58,0,0,0-.31.77,68.75,68.75,0,0,0,9.83-.52A2.66,2.66,0,0,0,361,247.48Z"/><path class="cls-1" d="M350.67,193.8,349.85,182l-1.06.06h0l.62,11.68L354,238.79s-1,1-.82,4.13a11.69,11.69,0,0,0,1.25,4.93s-.8.46-.76,4.6a40.76,40.76,0,0,0,.41,4.39,23.75,23.75,0,0,0,2.77.23,24.41,24.41,0,0,1-.73-4.6c0-4,.38-4.54.38-4.54a12.44,12.44,0,0,1-1.26-4.86,7.14,7.14,0,0,1,.77-4.2Z"/><path class="cls-1" d="M357.45,181.56h0l-.74,0,.24,11.72-.59,45.55a7,7,0,0,1,1.2,4.08,12.41,12.41,0,0,1-.71,5s.47.54.85,4.48a25.29,25.29,0,0,1-.22,4.64,25,25,0,0,0,2.72-.51c0-1.34,0-3.21-.07-4.41-.4-4.12-1.24-4.5-1.24-4.5a11.58,11.58,0,0,0,.71-5c-.14-3.1-1.25-4-1.25-4l-.26-45.32Z"/><path class="cls-1" d="M355.66,166.34c-1.81.84-6.47,2.85-8.14,3.75-1,.59-1.62,1.68-1.36,4.53.28,3.23.76,7.77.76,7.77l12.07-.64s-.22-10-.36-13.27C358.54,166.65,358.44,165,355.66,166.34Z"/><path class="cls-1" d="M359.05,182.9l-12.06.65a1.19,1.19,0,0,1-1.24-1s-.48-4.59-.76-7.79.33-4.74,2-5.65c1.15-.63,3.6-1.73,5.74-2.69,1-.43,1.86-.83,2.44-1.1a5.7,5.7,0,0,1,2-.58,2.3,2.3,0,0,1,1.7.56c.85.77.91,2,1,3.16.15,3.22.36,13.19.36,13.29A1.16,1.16,0,0,1,359.05,182.9ZM348,181.16l9.82-.53c-.06-2.71-.21-9.56-.33-12.1a6,6,0,0,0-.17-1.5,3.69,3.69,0,0,0-1.14.36c-.59.28-1.47.68-2.47,1.12-2,.9-4.51,2-5.59,2.61-.36.19-1,.56-.77,3.4C347.51,176.73,347.81,179.62,348,181.16Z"/><path class="cls-1" d="M346.33,177.07h0A1.18,1.18,0,0,1,345.1,176c0-.45-.07-.88-.11-1.29-.26-3.06.33-4.74,2-5.65,1.15-.63,3.6-1.73,5.74-2.69,1-.43,1.86-.83,2.44-1.1a5.7,5.7,0,0,1,2-.58,2.3,2.3,0,0,1,1.7.56c.85.77.91,2,1,3.16,0,.47,0,1.09.07,1.78a1.17,1.17,0,0,1-2.32.21,1.47,1.47,0,0,0-.1-.44,3,3,0,0,0-1.13.35c-.59.28-1.48.68-2.47,1.12-2,.9-4.51,2-5.59,2.61-.26.15-.75.4-.82,1.91A1.17,1.17,0,0,1,346.33,177.07Zm10.94-10a3.35,3.35,0,0,0-1.12.35c-.59.28-1.47.68-2.47,1.12-2,.91-4.51,2-5.59,2.61a1.17,1.17,0,0,0-.61.7c1.26-.65,3.45-1.64,5.41-2.51l2.43-1.09a5,5,0,0,1,2.08-.59,3.1,3.1,0,0,0-.11-.6Z"/><path class="cls-1" d="M374.9,458.74c-5.42-86.72-11.8-188.85-12.56-202.67a17.24,17.24,0,0,1-5.37,1.09h0a17.41,17.41,0,0,1-5.45-.53c.74,13.79,5.27,115.47,9.16,202.1Z"/><path class="cls-1" d="M359.51,458.74h2.33c-.44-10.09-.91-20.41-1.37-30.81-3.38-75.53-6.88-153.55-7.71-169.83a24.66,24.66,0,0,0,4.31.23,24.21,24.21,0,0,0,4.18-.68c.94,16.29,5.8,94.34,10.52,169.89.66,10.54,1.31,21,1.94,31.2h2.34c-.64-10.26-1.3-20.75-1.95-31.34-4.88-78.27-9.93-159.22-10.59-171.4a1.15,1.15,0,0,0-.57-.93,1.18,1.18,0,0,0-1.08-.07,16.3,16.3,0,0,1-4.92,1,16.64,16.64,0,0,1-5-.45,1.16,1.16,0,0,0-1.08.18,1.15,1.15,0,0,0-.46,1c.65,12.18,4.27,93.08,7.78,171.33C358.6,438.4,359.07,448.68,359.51,458.74Z"/><path class="cls-1" d="M1920.67,342.17h-44.75a1.16,1.16,0,0,1-1.16-1.16V289.37a1.2,1.2,0,0,1,.17-.62l27.22-43.93a1.11,1.11,0,0,1,.75-.53,1.19,1.19,0,0,1,.9.17c17.83,12,18,50.34,18,52V341A1.15,1.15,0,0,1,1920.67,342.17Zm-43.58-2.33h42.4V296.43c0-.38-.19-37.24-16-49.33l-26.39,42.6Z"/><path class="cls-1" d="M1903.15,245.42s-23.73,19.27-27.23,44C1875.92,289.37,1901.27,285.73,1903.15,245.42Z"/><path class="cls-1" d="M1875.92,290.53a1.13,1.13,0,0,1-.82-.34,1.16,1.16,0,0,1-.33-1c3.53-24.84,26.65-43.88,27.64-44.68a1.18,1.18,0,0,1,1.26-.14,1.2,1.2,0,0,1,.65,1.1c-1,21.22-8.55,32.32-14.71,37.9-6.76,6.11-13.25,7.1-13.52,7.14Zm25.89-42.37c-5.64,5.18-21,20.78-24.45,39.66a28.27,28.27,0,0,0,10.8-6.27C1896,274.41,1900.66,262.91,1901.81,248.16Z"/><path class="cls-1" d="M1928.34,429.48h-60.07a1.17,1.17,0,0,1-1.17-1.17V344.24a4.42,4.42,0,0,1,4.41-4.4h53.6a4.41,4.41,0,0,1,4.4,4.4v84.07A1.17,1.17,0,0,1,1928.34,429.48Zm-58.91-2.33h57.75V344.24a2.09,2.09,0,0,0-2.07-2.07h-53.6a2.08,2.08,0,0,0-2.08,2.07Z"/><rect class="cls-1" x="1856.38" y="452.7" width="83.86" height="6.04"/><path class="cls-1" d="M1857.55,458.74v-4.87h81.52v4.87h2.33v-6a1.15,1.15,0,0,0-1.16-1.16h-83.86a1.16,1.16,0,0,0-1.17,1.16v6Z"/><path class="cls-1" d="M1940.24,453.87h-83.86a1.16,1.16,0,0,1-1-.57,1.1,1.1,0,0,1,0-1.16l3.44-6.28a1.16,1.16,0,0,1,1-.61h77a1.19,1.19,0,0,1,1,.61l3.45,6.28a1.22,1.22,0,0,1,0,1.16A1.17,1.17,0,0,1,1940.24,453.87Zm-81.89-2.33h79.92l-2.18-4h-75.57Z"/><polygon class="cls-1" points="1926.75 348.68 1870.21 344.24 1926.75 344.24 1926.75 348.68"/><path class="cls-1" d="M1926.75,349.85h-.09l-56.54-4.44a1.19,1.19,0,0,1-1.08-1.22,1.17,1.17,0,0,1,1.17-1.11h56.54a1.15,1.15,0,0,1,1.16,1.16v4.44a1.13,1.13,0,0,1-.37.85A1.16,1.16,0,0,1,1926.75,349.85ZM1900,345.41l25.59,2v-2Z"/><rect class="cls-1" x="1912.89" y="346.47" width="10.92" height="81.85"/><path class="cls-1" d="M1923.81,429.48h-10.92a1.17,1.17,0,0,1-1.17-1.17V346.47a1.17,1.17,0,0,1,1.17-1.18h10.92a1.17,1.17,0,0,1,1.16,1.18v81.84A1.17,1.17,0,0,1,1923.81,429.48Zm-9.75-2.33h8.57V347.63h-8.57Z"/><rect class="cls-1" x="1906.09" y="346.47" width="3.71" height="81.85"/><path class="cls-1" d="M1909.8,429.48h-3.71a1.17,1.17,0,0,1-1.18-1.17V346.47a1.18,1.18,0,0,1,1.18-1.18h3.71a1.17,1.17,0,0,1,1.17,1.18v81.84A1.17,1.17,0,0,1,1909.8,429.48Zm-2.55-2.33h1.39V347.63h-1.39Z"/><rect class="cls-1" x="1871.63" y="344.24" width="3.26" height="84.07"/><path class="cls-1" d="M1874.89,429.48h-3.26a1.17,1.17,0,0,1-1.17-1.17V344.24a1.16,1.16,0,0,1,1.17-1.16h3.26a1.17,1.17,0,0,1,1.17,1.16v84.07A1.17,1.17,0,0,1,1874.89,429.48Zm-2.1-2.33h.93V345.41h-.93Z"/><path class="cls-1" d="M1934.59,439.12H1862a1.17,1.17,0,0,1-1.15-1.17v-3.4a7.41,7.41,0,0,1,7.4-7.4h60.07a7.42,7.42,0,0,1,7.42,7.4V438A1.18,1.18,0,0,1,1934.59,439.12Zm-71.39-2.34h70.22v-2.23a5.09,5.09,0,0,0-5.08-5.07h-60.07a5.08,5.08,0,0,0-5.07,5.07Z"/><rect class="cls-1" x="1859.83" y="437.95" width="76.96" height="8.47"/><path class="cls-1" d="M1936.79,447.59h-77a1.17,1.17,0,0,1-1.17-1.17V438a1.18,1.18,0,0,1,1.17-1.17h77A1.16,1.16,0,0,1,1938,438v8.47A1.16,1.16,0,0,1,1936.79,447.59Zm-75.8-2.34h74.63v-6.13H1861Z"/><path class="cls-1" d="M198.06,43.72c-23.77-29.48-61-42.94-97.72-42.55-35.93.38-71.44,14-93.61,38.73-11.2,12.52-2,27.68-2,27.68,24.47,53.93,73,78.67,73,78.67h47.43s48.57-24.74,73.05-78.67C198.26,67.58,205.83,53.34,198.06,43.72Z"/><path class="cls-1" d="M199.42,66.09a1.17,1.17,0,0,1-1-.59,13.38,13.38,0,0,0-1.26-1.85c-21.58-26.77-56.31-42.12-95.28-42.12h-1.52c-36.93.39-71.6,14.71-92.75,38.34a21.3,21.3,0,0,0-3.34,5,1.14,1.14,0,0,1-1.09.67,1.2,1.2,0,0,1-1-.74c-2.2-5.56-4.66-16.28,3.74-25.67C27.44,15,62.75.4,100.33,0h1.54c39.67,0,75.06,15.67,97.1,43,6,7.43,3.54,17.2,1.54,22.36a1.14,1.14,0,0,1-1,.74Zm-97.55-46.9c39.67,0,75.06,15.67,97.1,43l.13.15c1.53-4.93,2.58-12.27-1.95-17.88C175.57,17.68,140.84,2.33,101.87,2.33h-1.52C63.42,2.73,28.75,17.06,7.6,40.68,1.11,47.93,1.84,56.13,3.45,61.51a23.74,23.74,0,0,1,2.41-3.18c21.58-24.1,56.89-38.73,94.47-39.12C100.83,19.19,101.36,19.19,101.87,19.19Z"/><path class="cls-1" d="M117.45,260.9a1.09,1.09,0,0,1-.6-.17c-.1-.05-4.56-2.63-15.36-2.65s-15.3,2.63-15.34,2.66a1.18,1.18,0,0,1-1.49-.24c-.28-.33-1.22-1.74-1.63-6.45a22.37,22.37,0,0,1,.41-7.14c-.49-.82-1.13-2.48-1.35-5.75-.23-3.59.33-5.37.73-6.15L77,143.5V123c0-8.82,4.27-19.34,24.61-19.34,21.86,0,24.39,11,24.39,19.34v20.39L120.18,235c.39.78.95,2.56.72,6.15-.22,3.27-.86,4.93-1.35,5.75a22.57,22.57,0,0,1,.42,7.14c-.42,4.71-1.36,6.12-1.63,6.45A1.16,1.16,0,0,1,117.45,260.9Zm-16-5.15c8.52,0,13.35,1.55,15.39,2.42a23.53,23.53,0,0,0,.3-11.1,1.17,1.17,0,0,1,.31-1.25h0s.83-1.08,1.08-4.82-.5-5-.51-5a1,1,0,0,1-.24-.78l5.84-91.86V123c0-8.41-2.62-17-22-17-14.78,0-22.28,5.71-22.28,17v20.39l5.84,91.79a1.15,1.15,0,0,1-.28.84h0s-.71,1.19-.47,4.94,1.13,4.86,1.13,4.87a1,1,0,0,1,.26,1.21,18.66,18.66,0,0,0-.45,6.77,20.28,20.28,0,0,0,.74,4.32C88.15,257.3,93,255.77,101.49,255.75Z"/><path class="cls-1" d="M82,111.52v32.11l6.62,91.67s-.92,1-.69,4.5,1.57,4.87,1.57,4.87a24.5,24.5,0,0,0,.83,13.4,13.38,13.38,0,0,1,4.07-.9,35,35,0,0,1-.77-13.57,13.78,13.78,0,0,1-.79-5.46c.12-3.71.85-4.55.85-4.55l-5.49-90.3V107.15A16.47,16.47,0,0,0,82,111.52Z"/><path class="cls-1" d="M114.84,106.88v36.41l-5.5,90.3s.73.84.85,4.55a13.78,13.78,0,0,1-.79,5.46,35,35,0,0,1-.77,13.57,13.54,13.54,0,0,1,4.08.9,24.55,24.55,0,0,0,.82-13.4s1.34-1.35,1.57-4.87-.68-4.5-.68-4.5L121,143.63V110.92A15.86,15.86,0,0,0,114.84,106.88Z"/><path class="cls-1" d="M101.38,233.4h.23c1.6-.09,11.27-.41,18,4a4.39,4.39,0,0,0-.66-2.06s-4.81-4.08-17.49-3.77C88.82,231.22,84,235.3,84,235.3a4.49,4.49,0,0,0-.65,2.06C90.13,233,99.78,233.31,101.38,233.4Z"/><path class="cls-1" d="M118.3,246.66c-1.73-1.07-6.83-3.53-16.8-3.29-10-.24-15.08,2.22-16.8,3.29,0,0,0,0,0,0a11.18,11.18,0,0,0-.42,1.95c6.7-3.76,15.54-3.47,17.08-3.39h.23c1.54-.08,10.39-.37,17.08,3.39a12,12,0,0,0-.41-1.95S118.29,246.68,118.3,246.66Z"/><path class="cls-1" d="M117.45,458.74v-199S113,257,101.61,256.92h-.23c-11.34,0-15.84,2.82-15.84,2.82v199Z"/><path class="cls-1" d="M86.71,458.74V260.46c1.48-.68,6.05-2.35,14.68-2.38h.22c8.63,0,13.19,1.7,14.68,2.38V458.74h2.33v-199a1.17,1.17,0,0,0-.55-1c-.2-.11-4.89-2.94-16.36-3h-.43c-11.47.05-16.16,2.88-16.36,3a1.17,1.17,0,0,0-.55,1v199Z"/><polygon class="cls-1" points="117.34 143 101.34 140.76 85.66 143 117.34 143"/><path class="cls-1" d="M1627.59,130.14s-4.91-5.79-24.13-5.79-24.15,5.79-24.15,5.79l-11.48,199.05h71.25Z"/><path class="cls-1" d="M1639.08,330.35h-71.25a1.18,1.18,0,0,1-.85-.36,1.2,1.2,0,0,1-.32-.87l11.49-199a1.13,1.13,0,0,1,.27-.68c.21-.26,5.48-6.22,25-6.22s24.81,6,25,6.22a1.08,1.08,0,0,1,.27.68l11.49,199.05a1.15,1.15,0,0,1-.31.87A1.2,1.2,0,0,1,1639.08,330.35Zm-70-2.34h68.78l-11.38-197.34c-1.2-1-7-5.16-23-5.16s-21.79,4.11-23,5.16Z"/><rect class="cls-1" x="1597.27" y="329.19" width="12.37" height="129.56"/><path class="cls-1" d="M1598.44,458.74V330.35h10V458.74h2.34V329.19a1.17,1.17,0,0,0-.33-.83,1.2,1.2,0,0,0-.83-.35h-12.37a1.17,1.17,0,0,0-1.17,1.18V458.74Z"/><path class="cls-1" d="M1721.09,329.89v-5.14a5.19,5.19,0,0,0-5.19-5.18h-53.39a5.19,5.19,0,0,0-5.19,5.18v5.14Z"/><path class="cls-1" d="M1721.09,331.05h-63.77a1.16,1.16,0,0,1-1.16-1.16v-5.14a6.36,6.36,0,0,1,6.35-6.35h53.39a6.35,6.35,0,0,1,6.35,6.35v5.14A1.16,1.16,0,0,1,1721.09,331.05Zm-62.59-2.32h61.42v-4a4,4,0,0,0-4-4h-53.39a4,4,0,0,0-4,4Z"/><rect class="cls-1" x="1653.16" y="329.89" width="72.09" height="128.85"/><path class="cls-1" d="M1654.33,458.74V331.05h69.76V458.74h2.33V329.89a1.15,1.15,0,0,0-1.16-1.16h-72.1a1.16,1.16,0,0,0-1.17,1.16V458.74Z"/><rect class="cls-1" x="1666.51" y="300.4" width="45.39" height="19.16"/><path class="cls-1" d="M1711.9,303.15s-4.81,7.14-19.58,6.83-23.59,5.67-23.59,5.67,17-2,27.85,0S1720.61,310.65,1711.9,303.15Z"/><path class="cls-1" d="M1666.51,309.62s10.17-4.77,21.26-4.77,15.06-4.45,15.06-4.45h-24.69s-8-.24-11.63,1.58C1663.45,303.53,1663,309.08,1666.51,309.62Z"/><path class="cls-1" d="M2321.14,458.74c1.42-13.68,3-28.41,3.26-31.19,1.36.13,2.38.21,2.58.22h.09c.19,0,1.2.06,2.58.1-.05,2.58-.34,17.16-.61,30.86h2.34c.29-14.92.61-30.88.62-31.18a1.79,1.79,0,0,0-1.77-2h-.12c-1.52,0-2.72-.11-3-.11s-1.4-.11-2.93-.26h-.1a1.78,1.78,0,0,0-2,1.76c0,.31-1.75,16.74-3.33,31.8Z"/><polygon class="cls-1" points="2325.02 458.74 2327.42 426.59 2325.51 426.45 2322.43 458.74 2325.02 458.74"/><polygon class="cls-1" points="2327.91 458.74 2328.9 426.66 2327.1 426.58 2325.48 458.74 2327.91 458.74"/><path class="cls-1" d="M2338.78,414a.53.53,0,0,1-.67.35l-20.37-6a.53.53,0,0,1-.37-.66h0a.56.56,0,0,1,.68-.36l20.37,6a.54.54,0,0,1,.36.67Z"/><path class="cls-1" d="M2338.17,415.49a1.59,1.59,0,0,1-.39-.07l-20.38-6a1.67,1.67,0,0,1-1-.83,1.8,1.8,0,0,1-.13-1.31,1.74,1.74,0,0,1,2.13-1.12l20.37,6a1.67,1.67,0,0,1,1,.83,1.78,1.78,0,0,1,.13,1.3A1.69,1.69,0,0,1,2338.17,415.49Z"/><path class="cls-1" d="M2339,409.74a.53.53,0,0,1-.67.35l-20.37-6a.53.53,0,0,1-.36-.66h0a.54.54,0,0,1,.66-.36l20.39,6a.53.53,0,0,1,.35.66Z"/><path class="cls-1" d="M2338.42,411.28a1.59,1.59,0,0,1-.38-.07l-20.37-6a1.68,1.68,0,0,1-1-.82,1.7,1.7,0,0,1,2-2.43l20.37,6a1.7,1.7,0,0,1-.6,3.32Z"/><path class="cls-1" d="M2339.3,405.57a.53.53,0,0,1-.66.36l-20.39-6a.54.54,0,0,1-.35-.67h0a.53.53,0,0,1,.67-.35l20.38,6a.53.53,0,0,1,.35.66Z"/><path class="cls-1" d="M2338.68,407.11a1.59,1.59,0,0,1-.38-.06l-20.38-6a1.69,1.69,0,0,1-1.13-2.12,1.7,1.7,0,0,1,2.11-1.13l20.37,6a1.75,1.75,0,0,1,1,.84,1.73,1.73,0,0,1,.13,1.3A1.69,1.69,0,0,1,2338.68,407.11Z"/><path class="cls-1" d="M2339.57,401.36a.54.54,0,0,1-.68.36l-20.37-6a.54.54,0,0,1-.36-.67h0a.53.53,0,0,1,.67-.35l20.37,6a.55.55,0,0,1,.37.66Z"/><path class="cls-1" d="M2339,402.9a1.4,1.4,0,0,1-.4-.07l-20.37-6a1.71,1.71,0,0,1-1-.83,1.78,1.78,0,0,1-.13-1.3,1.73,1.73,0,0,1,2.12-1.13l20.38,6a1.7,1.7,0,0,1-.59,3.32Z"/><path class="cls-1" d="M2339.82,397.2a.54.54,0,0,1-.67.35l-20.37-6a.53.53,0,0,1-.36-.66h0a.54.54,0,0,1,.67-.36l20.37,6a.53.53,0,0,1,.36.67Z"/><path class="cls-1" d="M2339.2,398.73a1.59,1.59,0,0,1-.38-.06l-20.37-6a1.69,1.69,0,0,1-1-.83,1.7,1.7,0,0,1,2-2.43l20.37,6a1.71,1.71,0,0,1,1,.83,1.7,1.7,0,0,1-1.61,2.49Z"/><path class="cls-1" d="M2340.08,393a.53.53,0,0,1-.67.35l-20.38-6a.54.54,0,0,1-.34-.67h0a.53.53,0,0,1,.66-.35l20.38,6a.54.54,0,0,1,.35.67Z"/><path class="cls-1" d="M2339.46,394.53a1.78,1.78,0,0,1-.39-.07l-20.36-6a1.65,1.65,0,0,1-1-.83,1.62,1.62,0,0,1-.13-1.29,1.71,1.71,0,0,1,2.12-1.14l20.37,6a1.72,1.72,0,0,1,1,.84,1.61,1.61,0,0,1,.13,1.29A1.7,1.7,0,0,1,2339.46,394.53Z"/><path class="cls-1" d="M2340.35,388.83a.56.56,0,0,1-.67.35l-20.38-6a.52.52,0,0,1-.36-.66h0a.52.52,0,0,1,.67-.35l20.37,6a.55.55,0,0,1,.37.68Z"/><path class="cls-1" d="M2339.72,390.36a1.78,1.78,0,0,1-.39-.07l-20.37-6a1.71,1.71,0,0,1-1-.82,1.71,1.71,0,0,1,2-2.44l20.36,6a1.68,1.68,0,0,1,1,.83,1.7,1.7,0,0,1,.12,1.29A1.69,1.69,0,0,1,2339.72,390.36Z"/><path class="cls-1" d="M2340.56,384.62a.55.55,0,0,1-.67.35l-20.28-6a.52.52,0,0,1-.35-.66h0a.52.52,0,0,1,.65-.36l20.29,6a.56.56,0,0,1,.36.68Z"/><path class="cls-1" d="M2339.93,386.15a1.8,1.8,0,0,1-.38-.07l-20.27-6a1.72,1.72,0,0,1-1.15-2.12,1.73,1.73,0,0,1,2.13-1.14l20.27,6a1.72,1.72,0,0,1,1.14,2.13A1.7,1.7,0,0,1,2339.93,386.15Z"/><path class="cls-1" d="M2340.8,380.45a.54.54,0,0,1-.66.35l-20.27-6a.53.53,0,0,1-.34-.67h0a.53.53,0,0,1,.66-.35l20.26,6a.53.53,0,0,1,.35.67Z"/><path class="cls-1" d="M2340.19,382a1,1,0,0,1-.39-.07l-20.25-6a1.7,1.7,0,1,1,1-3.25l20.26,6a1.71,1.71,0,0,1,1.14,2.12A1.69,1.69,0,0,1,2340.19,382Z"/><path class="cls-1" d="M2340.37,376a.54.54,0,0,1-.67.35l-18.86-5.58a.53.53,0,0,1-.35-.66h0a.54.54,0,0,1,.67-.37l18.85,5.59a.55.55,0,0,1,.36.67Z"/><path class="cls-1" d="M2339.75,377.57a1.76,1.76,0,0,1-.4-.07l-18.84-5.58a1.7,1.7,0,0,1,1-3.26l18.85,5.58a1.74,1.74,0,0,1,1,.83,1.68,1.68,0,0,1,.13,1.3A1.71,1.71,0,0,1,2339.75,377.57Z"/><path class="cls-1" d="M2339.58,371.8a.55.55,0,0,1-.67.35L2322.13,367a.51.51,0,0,1-.35-.66h0a.53.53,0,0,1,.66-.36l16.78,5.15a.53.53,0,0,1,.36.67Z"/><path class="cls-1" d="M2339,373.34a1.78,1.78,0,0,1-.39-.07l-16.78-5.15a1.74,1.74,0,0,1-1-.83,1.65,1.65,0,0,1-.12-1.29,1.72,1.72,0,0,1,2.12-1.13l16.79,5.14a1.75,1.75,0,0,1,1,.83,1.71,1.71,0,0,1-1.61,2.5Z"/><path class="cls-1" d="M2338.92,367.3a.53.53,0,0,1-.66.35l-15-4.56a.53.53,0,0,1-.34-.67h0a.51.51,0,0,1,.66-.34l14.94,4.55a.54.54,0,0,1,.36.67Z"/><path class="cls-1" d="M2338.31,368.84a1.23,1.23,0,0,1-.39-.07l-15-4.56a1.7,1.7,0,0,1-1.13-2.13A1.7,1.7,0,0,1,2324,361l15,4.56a1.68,1.68,0,0,1,1,.83,1.69,1.69,0,0,1-1.6,2.49Z"/><path class="cls-1" d="M2338.16,362.75a.52.52,0,0,1-.67.35l-12.91-3.79a.55.55,0,0,1-.36-.67h0a.56.56,0,0,1,.68-.36l12.91,3.81a.52.52,0,0,1,.35.66Z"/><path class="cls-1" d="M2337.54,364.3a1.59,1.59,0,0,1-.38-.07l-12.91-3.8a1.71,1.71,0,0,1-1-.83,1.68,1.68,0,0,1-.12-1.3,1.7,1.7,0,0,1,2.12-1.13l12.9,3.8a1.7,1.7,0,0,1-.6,3.33Z"/><path class="cls-1" d="M2336.91,358a.51.51,0,0,1-.65.35l-9.89-2.95a.53.53,0,0,1-.36-.67h0a.55.55,0,0,1,.66-.36l9.9,3a.52.52,0,0,1,.34.67Z"/><path class="cls-1" d="M2336.31,359.56a1.77,1.77,0,0,1-.4-.08l-9.88-3a1.7,1.7,0,1,1,1-3.25l9.87,3a1.7,1.7,0,0,1-.58,3.32Z"/><path class="cls-1" d="M2338,426.51a.53.53,0,0,1-.67.35l-20.38-6a.54.54,0,0,1-.36-.66h0a.56.56,0,0,1,.68-.36l20.36,6a.54.54,0,0,1,.37.67Z"/><path class="cls-1" d="M2337.38,428.05a1.34,1.34,0,0,1-.39-.07l-20.37-6a1.74,1.74,0,0,1-1-.84,1.77,1.77,0,0,1-.12-1.3,1.74,1.74,0,0,1,2.13-1.12l20.37,6a1.7,1.7,0,0,1,1,.83,1.72,1.72,0,0,1,.12,1.3A1.68,1.68,0,0,1,2337.38,428.05Z"/><path class="cls-1" d="M2338.26,422.3a.53.53,0,0,1-.67.36l-20.38-6a.52.52,0,0,1-.34-.66h0a.53.53,0,0,1,.66-.37l20.38,6a.53.53,0,0,1,.35.66Z"/><path class="cls-1" d="M2337.64,423.85a1.78,1.78,0,0,1-.39-.07l-20.37-6a1.77,1.77,0,0,1-1-.83,1.7,1.7,0,0,1,2-2.43l20.36,6a1.66,1.66,0,0,1,1,.83,1.68,1.68,0,0,1,.12,1.3A1.71,1.71,0,0,1,2337.64,423.85Z"/><path class="cls-1" d="M2338.52,418.1a.54.54,0,0,1-.66.36l-20.39-6a.54.54,0,0,1-.35-.67h0a.54.54,0,0,1,.67-.35l20.38,6a.52.52,0,0,1,.35.66Z"/><path class="cls-1" d="M2337.91,419.64a1.76,1.76,0,0,1-.4-.07l-20.36-6a1.7,1.7,0,1,1,1-3.25l20.37,6a1.75,1.75,0,0,1,1,.83,1.78,1.78,0,0,1,.12,1.3A1.69,1.69,0,0,1,2337.91,419.64Z"/><path class="cls-1" d="M2323.15,410.68a1.17,1.17,0,0,1-.11-2.32l10-1.55a1.17,1.17,0,0,1,.36,2.31l-10,1.54A1.06,1.06,0,0,1,2323.15,410.68Z"/><path class="cls-1" d="M2323.42,406.48a1.17,1.17,0,0,1-.12-2.32l10-1.55a1.17,1.17,0,0,1,1.34,1,1.19,1.19,0,0,1-1,1.34l-10,1.55A1.07,1.07,0,0,1,2323.42,406.48Z"/><path class="cls-1" d="M2323.67,402.32a1.17,1.17,0,0,1-.1-2.33l10-1.54a1.15,1.15,0,0,1,1.33,1,1.17,1.17,0,0,1-1,1.34l-10,1.54A.71.71,0,0,1,2323.67,402.32Z"/><path class="cls-1" d="M2323.93,398.11a1.16,1.16,0,0,1-.1-2.31l10-1.55a1.16,1.16,0,0,1,.36,2.3l-10,1.56Z"/><path class="cls-1" d="M2324.19,394a1.16,1.16,0,0,1-.11-2.31l10-1.55a1.16,1.16,0,1,1,.36,2.3l-10,1.55A1.13,1.13,0,0,1,2324.19,394Z"/><path class="cls-1" d="M2324.46,389.76a1.2,1.2,0,0,1-1.09-1,1.18,1.18,0,0,1,1-1.34l10-1.54a1.17,1.17,0,1,1,.36,2.31l-10,1.54A1,1,0,0,1,2324.46,389.76Z"/><path class="cls-1" d="M2324.71,385.6a1.17,1.17,0,0,1-.11-2.32l10-1.55a1.14,1.14,0,0,1,1.31,1,1.16,1.16,0,0,1-1,1.34l-10,1.54A1.06,1.06,0,0,1,2324.71,385.6Z"/><path class="cls-1" d="M2325,381.39a1.17,1.17,0,0,1-.1-2.32l10-1.55a1.19,1.19,0,0,1,1.34,1,1.16,1.16,0,0,1-1,1.33l-9.95,1.55A1.15,1.15,0,0,1,2325,381.39Z"/><path class="cls-1" d="M2325.24,377.23a1.17,1.17,0,0,1-.11-2.32l10-1.55a1.17,1.17,0,0,1,.36,2.31l-10,1.55Z"/><path class="cls-1" d="M2325.49,373a1.16,1.16,0,0,1-.1-2.31l10-1.55a1.14,1.14,0,0,1,1.32,1,1.16,1.16,0,0,1-1,1.33l-10,1.55Z"/><path class="cls-1" d="M2325.75,368.87a1.17,1.17,0,0,1-.1-2.32l10-1.55a1.17,1.17,0,1,1,.36,2.31l-10,1.55A1.13,1.13,0,0,1,2325.75,368.87Z"/><path class="cls-1" d="M2326,364.67a1.17,1.17,0,0,1-.12-2.32l10-1.55a1.17,1.17,0,1,1,.36,2.31l-10,1.54A1.1,1.1,0,0,1,2326,364.67Z"/><path class="cls-1" d="M2326.27,360.55a1.16,1.16,0,0,1-1.08-1,1.17,1.17,0,0,1,1-1.34l10-1.55a1.17,1.17,0,0,1,.35,2.31l-10,1.55Z"/><path class="cls-1" d="M2322.37,423.22a1.17,1.17,0,0,1-1.08-1,1.15,1.15,0,0,1,1-1.33l10-1.56a1.17,1.17,0,0,1,.35,2.32l-9.95,1.54A1.17,1.17,0,0,1,2322.37,423.22Z"/><path class="cls-1" d="M2322.64,419a1.17,1.17,0,0,1-1.09-1,1.16,1.16,0,0,1,1-1.32l10-1.55a1.15,1.15,0,0,1,1.33,1,1.17,1.17,0,0,1-1,1.33l-10,1.55Z"/><path class="cls-1" d="M2322.9,414.82a1.17,1.17,0,0,1-.11-2.32l10-1.55a1.17,1.17,0,0,1,.35,2.31l-10,1.54A.67.67,0,0,1,2322.9,414.82Z"/><polygon class="cls-1" points="2328.76 426.65 2325.44 426.45 2329.83 355.74 2333.16 355.94 2328.76 426.65"/><polygon class="cls-1" points="2252.62 458.74 2250.8 417.52 2246.21 417.52 2244.4 458.74 2252.62 458.74"/><path class="cls-1" d="M2245.56,458.74l1.76-40.07h2.36l1.76,40.07h2.34L2252,417.46a1.17,1.17,0,0,0-1.16-1.12h-4.59a1.16,1.16,0,0,0-1.16,1.12l-1.82,41.28Z"/><path class="cls-1" d="M2235.43,455.91l12.34,2.83h6l-18-4.13a.67.67,0,0,0-.8.5A.66.66,0,0,0,2235.43,455.91Z"/><path class="cls-1" d="M2235.17,457l7.39,1.7h16.35l-22.9-5.25a1.85,1.85,0,0,0-2.21,1.35,1.73,1.73,0,0,0,.23,1.38A1.75,1.75,0,0,0,2235.17,457Z"/><path class="cls-1" d="M2262.07,456.09a.66.66,0,0,1-.8.49l-25.84-5.93a.65.65,0,0,1-.49-.8h0a.66.66,0,0,1,.8-.49l25.84,5.93a.65.65,0,0,1,.49.8Z"/><path class="cls-1" d="M2261.42,457.77a1.51,1.51,0,0,1-.42,0l-25.83-5.93a1.84,1.84,0,0,1-1.37-2.2,1.86,1.86,0,0,1,2.21-1.37l25.83,5.93a1.85,1.85,0,0,1,1.15.83,1.84,1.84,0,0,1-1.57,2.79Z"/><path class="cls-1" d="M2262.07,450.88a.66.66,0,0,1-.8.5l-25.84-5.93a.67.67,0,0,1-.49-.81h0a.66.66,0,0,1,.8-.49l25.84,5.93a.65.65,0,0,1,.49.8Z"/><path class="cls-1" d="M2261.42,452.56a1.51,1.51,0,0,1-.42-.05l-25.83-5.93a1.87,1.87,0,0,1-1.15-.82,1.79,1.79,0,0,1-.22-1.39A1.87,1.87,0,0,1,2236,443l25.83,5.93a1.87,1.87,0,0,1,1.15.83,1.84,1.84,0,0,1-1.57,2.79Z"/><path class="cls-1" d="M2262.07,445.62a.66.66,0,0,1-.8.49l-25.84-5.93a.65.65,0,0,1-.49-.79h0a.66.66,0,0,1,.8-.5l25.84,5.93a.65.65,0,0,1,.49.8Z"/><path class="cls-1" d="M2261.42,447.3a2,2,0,0,1-.42-.05l-25.83-5.93a1.82,1.82,0,0,1-1.37-2.21,1.85,1.85,0,0,1,2.21-1.35l25.83,5.92a1.82,1.82,0,0,1,1.15.84,1.83,1.83,0,0,1-1.57,2.78Z"/><path class="cls-1" d="M2262.07,440.41a.65.65,0,0,1-.8.49L2235.43,435a.65.65,0,0,1-.49-.8h0a.65.65,0,0,1,.8-.48l25.84,5.92a.66.66,0,0,1,.49.8Z"/><path class="cls-1" d="M2261.42,442.09a1.84,1.84,0,0,1-.41,0l-25.84-5.93a1.78,1.78,0,0,1-1.14-.82,1.75,1.75,0,0,1-.23-1.39,1.88,1.88,0,0,1,2.21-1.36l25.83,5.93a1.87,1.87,0,0,1,1.15.83,1.84,1.84,0,0,1-1.57,2.79Z"/><path class="cls-1" d="M2262.07,435.15a.67.67,0,0,1-.8.5l-25.84-5.93a.66.66,0,0,1-.49-.8h0a.67.67,0,0,1,.8-.5l25.84,5.94a.65.65,0,0,1,.49.79Z"/><path class="cls-1" d="M2261.42,436.83a1.51,1.51,0,0,1-.42-.05l-25.83-5.93A1.78,1.78,0,0,1,2234,430a1.76,1.76,0,0,1-.22-1.38,1.86,1.86,0,0,1,2.21-1.35l25.83,5.92a1.88,1.88,0,0,1,1.15.83,1.83,1.83,0,0,1,.21,1.39A1.8,1.8,0,0,1,2261.42,436.83Z"/><path class="cls-1" d="M2262.07,429.94a.67.67,0,0,1-.8.5l-25.84-5.93a.66.66,0,0,1-.49-.8h0a.66.66,0,0,1,.8-.5l25.84,5.93a.66.66,0,0,1,.49.8Z"/><path class="cls-1" d="M2261.42,431.62a1.51,1.51,0,0,1-.42-.05l-25.83-5.93a1.8,1.8,0,0,1-1.15-.82,1.76,1.76,0,0,1-.22-1.38,1.85,1.85,0,0,1,2.21-1.36l25.83,5.92a1.86,1.86,0,0,1,1.14.83,1.83,1.83,0,0,1-1.56,2.79Z"/><path class="cls-1" d="M2262,424.68a.66.66,0,0,1-.8.5l-25.72-5.93a.67.67,0,0,1-.49-.8h0a.68.68,0,0,1,.81-.5l25.7,5.93a.68.68,0,0,1,.5.8Z"/><path class="cls-1" d="M2261.36,426.37a2,2,0,0,1-.42-.05l-25.71-5.93a1.85,1.85,0,0,1-1.14-.82,1.81,1.81,0,0,1-.22-1.4,1.86,1.86,0,0,1,2.2-1.36l25.71,5.94a1.83,1.83,0,0,1,1.36,2.2A1.81,1.81,0,0,1,2261.36,426.37Z"/><path class="cls-1" d="M2262,419.48a.67.67,0,0,1-.79.5L2235.5,414a.67.67,0,0,1-.49-.8h0a.68.68,0,0,1,.81-.5l25.68,5.93a.66.66,0,0,1,.49.81Z"/><path class="cls-1" d="M2261.35,421.16a2.18,2.18,0,0,1-.43-.05l-25.68-5.93a1.83,1.83,0,0,1,.84-3.57l25.69,5.93a1.83,1.83,0,0,1-.42,3.62Z"/><path class="cls-1" d="M2261.1,414a.66.66,0,0,1-.8.49L2236.41,409a.68.68,0,0,1-.51-.8h0a.67.67,0,0,1,.81-.5l23.9,5.5a.65.65,0,0,1,.49.8Z"/><path class="cls-1" d="M2260.46,415.69a1.51,1.51,0,0,1-.42-.05l-23.9-5.49a1.83,1.83,0,1,1,.84-3.56l23.89,5.49a1.8,1.8,0,0,1,1.15.82,1.88,1.88,0,0,1,.22,1.39A1.81,1.81,0,0,1,2260.46,415.69Z"/><path class="cls-1" d="M2259.8,408.81a.67.67,0,0,1-.81.49l-21.29-5.11a.65.65,0,0,1-.48-.8h0a.65.65,0,0,1,.79-.49l21.3,5.1a.68.68,0,0,1,.49.81Z"/><path class="cls-1" d="M2259.14,410.49a1.45,1.45,0,0,1-.41-.06l-21.3-5.1a1.84,1.84,0,0,1,.86-3.57l21.29,5.11a1.83,1.83,0,0,1-.44,3.62Z"/><path class="cls-1" d="M2258.64,403.26a.67.67,0,0,1-.81.49l-19-4.52a.65.65,0,0,1-.48-.8h0a.66.66,0,0,1,.8-.49l19,4.52a.67.67,0,0,1,.5.8Z"/><path class="cls-1" d="M2258,404.94a1.48,1.48,0,0,1-.41-.05l-19-4.52a1.81,1.81,0,0,1-1.34-2.21,1.85,1.85,0,0,1,2.2-1.36l19,4.52a1.85,1.85,0,0,1,1.13.82,1.88,1.88,0,0,1,.22,1.39A1.83,1.83,0,0,1,2258,404.94Z"/><path class="cls-1" d="M2257.33,397.66a.64.64,0,0,1-.79.49l-16.37-3.73a.66.66,0,0,1-.5-.8h0a.66.66,0,0,1,.8-.49l16.38,3.73a.66.66,0,0,1,.48.8Z"/><path class="cls-1" d="M2256.7,399.33a2.06,2.06,0,0,1-.44,0l-16.35-3.73a1.83,1.83,0,1,1,.84-3.57l16.35,3.73a1.81,1.81,0,0,1,1.15.83,1.76,1.76,0,0,1,.22,1.38A1.81,1.81,0,0,1,2256.7,399.33Z"/><path class="cls-1" d="M2255.43,391.85a.67.67,0,0,1-.81.5l-12.54-2.92a.65.65,0,0,1-.49-.8h0a.67.67,0,0,1,.8-.49l12.53,2.91a.68.68,0,0,1,.51.8Z"/><path class="cls-1" d="M2254.78,393.54a2,2,0,0,1-.43-.05l-12.53-2.92a1.84,1.84,0,0,1-1.37-2.21,1.87,1.87,0,0,1,2.21-1.36l12.54,2.92a1.84,1.84,0,0,1-.42,3.62Z"/><path class="cls-1" d="M2242.37,458.2a1.17,1.17,0,0,1-.26-2.31l12.29-2.7a1.17,1.17,0,0,1,.5,2.29l-12.29,2.69Z"/><path class="cls-1" d="M2242.37,453a1.17,1.17,0,0,1-.26-2.31L2254.4,448a1.15,1.15,0,0,1,1.39.88,1.17,1.17,0,0,1-.89,1.39l-12.29,2.71A1,1,0,0,1,2242.37,453Z"/><path class="cls-1" d="M2242.37,447.75a1.17,1.17,0,0,1-.26-2.31l12.29-2.7a1.17,1.17,0,0,1,.5,2.28l-12.29,2.7Z"/><path class="cls-1" d="M2242.37,442.5a1.17,1.17,0,0,1-.26-2.31l12.29-2.7a1.17,1.17,0,0,1,.5,2.28l-12.29,2.7Z"/><path class="cls-1" d="M2242.37,437.3a1.17,1.17,0,0,1-.26-2.31l12.29-2.7a1.17,1.17,0,0,1,.5,2.28l-12.29,2.7A1,1,0,0,1,2242.37,437.3Z"/><path class="cls-1" d="M2242.37,432.05a1.17,1.17,0,0,1-.26-2.31l12.29-2.7a1.17,1.17,0,0,1,.5,2.28l-12.29,2.7A1,1,0,0,1,2242.37,432.05Z"/><path class="cls-1" d="M2242.37,426.85a1.17,1.17,0,0,1-.26-2.31l12.29-2.7a1.17,1.17,0,1,1,.5,2.28l-12.29,2.7Z"/><path class="cls-1" d="M2242.37,421.6a1.17,1.17,0,0,1-.26-2.31l12.29-2.7a1.17,1.17,0,1,1,.5,2.28l-12.29,2.7Z"/><path class="cls-1" d="M2242.37,416.4a1.17,1.17,0,0,1-.26-2.31l12.29-2.7a1.17,1.17,0,0,1,.5,2.28l-12.29,2.7Z"/><path class="cls-1" d="M2242.37,411.15a1.17,1.17,0,0,1-.26-2.31l12.29-2.7a1.17,1.17,0,0,1,.5,2.28l-12.29,2.7Z"/><path class="cls-1" d="M2242.37,406a1.17,1.17,0,0,1-.26-2.31l12.29-2.7a1.17,1.17,0,1,1,.49,2.28l-12.28,2.7Z"/><path class="cls-1" d="M2242.37,400.7a1.17,1.17,0,0,1-.26-2.31l12.29-2.7a1.17,1.17,0,0,1,1.39.89,1.15,1.15,0,0,1-.89,1.38l-12.29,2.71Z"/><path class="cls-1" d="M2242.37,395.55a1.17,1.17,0,0,1-.26-2.31l12.29-2.7a1.17,1.17,0,0,1,.5,2.28l-12.29,2.7A1,1,0,0,1,2242.37,395.55Z"/><rect class="cls-1" x="2246.43" y="389.56" width="4.15" height="69.18"/><path class="cls-1" d="M2122.28,271.4h-142a1.18,1.18,0,0,1-1.17-1.18V137.77a21.48,21.48,0,0,1,21.45-21.45H2102a21.49,21.49,0,0,1,21.46,21.45V270.22A1.18,1.18,0,0,1,2122.28,271.4Zm-140.82-2.34h139.66V137.77A19.14,19.14,0,0,0,2102,118.65H2000.57a19.14,19.14,0,0,0-19.11,19.12Z"/><path class="cls-1" d="M2099.24,270.22v-44.1a7.1,7.1,0,0,0-7.09-7.1h-81.71a7.09,7.09,0,0,0-7.09,7.1v44.1Z"/><path class="cls-1" d="M2099.24,271.4h-95.89a1.18,1.18,0,0,1-1.18-1.18v-44.1a8.28,8.28,0,0,1,8.27-8.27h81.71a8.28,8.28,0,0,1,8.26,8.27v44.1A1.18,1.18,0,0,1,2099.24,271.4Zm-94.73-2.34h93.57V226.12a5.94,5.94,0,0,0-5.93-5.93h-81.71a5.94,5.94,0,0,0-5.93,5.93Z"/><rect class="cls-1" x="2021" y="151.61" width="60.59" height="67.41"/><path class="cls-1" d="M2081.58,220.19H2021a1.17,1.17,0,0,1-1.17-1.17V151.61a1.17,1.17,0,0,1,1.17-1.17h60.58a1.17,1.17,0,0,1,1.17,1.17V219A1.18,1.18,0,0,1,2081.58,220.19Zm-59.42-2.34h58.26V152.77h-58.26Z"/><path class="cls-1" d="M2051.28,189.05a11.91,11.91,0,1,1,11.92-11.91A11.93,11.93,0,0,1,2051.28,189.05Zm0-21.48a9.57,9.57,0,1,0,9.58,9.57A9.57,9.57,0,0,0,2051.28,167.57Z"/><path class="cls-1" d="M2054.6,177.14a3.31,3.31,0,1,1-3.32-3.32A3.31,3.31,0,0,1,2054.6,177.14Z"/><path class="cls-1" d="M2051.28,181.62a4.48,4.48,0,1,1,4.49-4.48A4.49,4.49,0,0,1,2051.28,181.62Zm0-6.63a2.15,2.15,0,1,0,2.16,2.15A2.16,2.16,0,0,0,2051.28,175Z"/><path class="cls-1" d="M2129.89,304.51V279a8.73,8.73,0,0,0-8.73-8.74H1981.42a8.74,8.74,0,0,0-8.74,8.74v25.55s17.5,5.74,78.6,5.74S2129.89,304.51,2129.89,304.51Z"/><path class="cls-1" d="M2051.28,311.42c-60.59,0-78.23-5.57-79-5.8a1.16,1.16,0,0,1-.81-1.11V279a9.91,9.91,0,0,1,9.9-9.9h139.74a9.91,9.91,0,0,1,9.9,9.9v25.55a1.17,1.17,0,0,1-.8,1.11C2129.53,305.85,2111.89,311.42,2051.28,311.42Zm-77.42-7.79c4.07,1.05,24.27,5.45,77.42,5.45s73.37-4.4,77.44-5.45V279a7.57,7.57,0,0,0-7.56-7.56H1981.42a7.57,7.57,0,0,0-7.56,7.56Z"/><path class="cls-1" d="M2129.9,458.74c2.95-74.1-.13-142.64-.68-154-3.73,1-23.56,5.54-77.94,5.54s-74.19-4.54-77.91-5.54c-.56,11.39-3.63,79.93-.7,154Z"/><path class="cls-1" d="M1973.83,458.74c-2.83-71.12-.09-137.17.64-152.56,6.06,1.41,27.14,5.24,76.81,5.24s70.77-3.83,76.84-5.24c.72,15.39,3.45,81.44.64,152.56h2.33c2.91-73.68-.11-141.86-.71-154.09a1.16,1.16,0,0,0-.49-.89,1.14,1.14,0,0,0-1-.18c-3.4.92-23.16,5.5-77.62,5.5s-74.19-4.58-77.6-5.5a1.17,1.17,0,0,0-1.48,1.07c-.6,12.23-3.62,80.41-.7,154.09Z"/><path class="cls-1" d="M1990.48,458.74c-3.45-71.9-2.29-136.87-2.08-146.67,1.37.14,3.82.37,7.18.66a1.13,1.13,0,0,0-.39.82c-.72,18.63-2.67,79.28-.75,145.19h2.34c-1.88-64.22-.07-123.48.69-143.64,22.77,5.91,54.06,8.64,76.87,9.9q.28,3.4.61,7.25c2.48,29,6.55,76.42,8.17,126.49h2.33c-1.62-50.16-5.68-97.63-8.17-126.7q-.37-4.41-.71-8.25a1.16,1.16,0,0,0-1.1-1.07c-22.61-1.21-54-3.89-76.87-9.74,12.07,1,32.6,2.24,56.24,2.23,6.72,0,13.38-.1,19.78-.3a1.3,1.3,0,0,0,.33-.07c3-.09,6-.19,8.77-.32a.93.93,0,0,0,.24,0c9.74-.48,19.11-1.2,27.88-2.16,1.16,26.39,3.2,84.64,1.82,146.36H2116c1.4-62.76-.72-121.92-1.88-147.7a1.18,1.18,0,0,0-1.3-1.12c-9,1-18.66,1.77-28.73,2.27h-.23c-3,.13-6.11.24-9.3.34a.8.8,0,0,0-.34.07c-6.29.2-12.8.29-19.37.29-37.52,0-67.16-3.23-67.45-3.26a1.17,1.17,0,0,0-1.3,1.13c0,1.17-1.67,70.51,2.06,148Z"/><path class="cls-1" d="M2095.33,323.55c-3.46-.1-7-.23-10.55-.39a1.22,1.22,0,0,0-.89.37,1.2,1.2,0,0,0-.33.89c3.9,52.86,5.73,97.18,6.14,134.32H2092c-.4-36.9-2.21-80.84-6-133.19,2.75.12,5.5.22,8.2.3q3.9,74.28,3.64,132.89h2.33q.24-59.08-3.7-134.09A1.17,1.17,0,0,0,2095.33,323.55Z"/><path class="cls-1" d="M402.32,458.74V281.58c0-40.2,31.9-61.9,61.91-61.9H665.69c40.2,0,61.9,31.9,61.9,61.9V458.74h2.34V281.58a66.44,66.44,0,0,0-16.59-44.06c-8.3-9.21-23.29-20.17-47.65-20.17H464.23a67.18,67.18,0,0,0-42.91,15.59c-9.74,8.24-21.33,23.37-21.33,48.64V458.74Z"/><path class="cls-1" d="M414.71,458.74V294.09c0-44.35,32.36-60.09,60.08-60.09H655.13c37,0,60.07,23,60.07,60.09V458.74h2.34V294.09c0-38.5-23.92-62.42-62.41-62.42H474.79c-28.79,0-62.41,16.35-62.41,62.42V458.74Z"/><path class="cls-1" d="M716.37,458.74V300.79a64.28,64.28,0,0,0-8.06-3.62c-11.75-4.12-31.13-1.3-42.69,1.1-23.72,4.91-40.77,5-64.53,2.2-12-1.44-24.07-2.75-36.14-2.71-11.83.05-23.55,1.55-35.23,3.26-11.22,1.65-22.49,3.43-33.83,3.9-11.85.5-26.56-7.51-38.28-9.14-15.82-2.2-44.07,2.82-44.07,2.82V458.74Z"/><path class="cls-1" d="M414.71,458.74V299.58c4.06-.67,20.1-3.19,33.41-3.19a68.22,68.22,0,0,1,9.34.55c4.77.66,10,2.39,15.56,4.22,7.76,2.56,15.81,5.22,22.92,4.93,10.33-.44,20.72-2,30.78-3.45l3.16-.46c10.54-1.55,22.81-3.2,35.08-3.25h.65c11.81,0,23.94,1.33,35.35,2.69a230.54,230.54,0,0,0,27.73,1.89,177.4,177.4,0,0,0,37.17-4.1A140.81,140.81,0,0,1,693,296.25c6.09,0,11.13.67,15,2a59.29,59.29,0,0,1,7.28,3.23V458.74h2.34V300.79a1.17,1.17,0,0,0-.64-1,64,64,0,0,0-8.2-3.68A48.7,48.7,0,0,0,693,293.91a142.69,142.69,0,0,0-27.57,3.21,174.84,174.84,0,0,1-36.69,4.05,229.93,229.93,0,0,1-27.46-1.86c-11.47-1.37-23.68-2.71-35.62-2.71H565c-12.42,0-24.79,1.71-35.4,3.27l-3.17.46c-10,1.48-20.32,3-30.54,3.43-6.7.28-14.52-2.32-22.09-4.82-5.65-1.86-11-3.63-16-4.32a72.92,72.92,0,0,0-9.66-.56c-15.49,0-34.59,3.36-34.78,3.4a1.13,1.13,0,0,0-1,1.14V458.74Z"/><path class="cls-1" d="M665.62,298.27c-23.72,4.91-40.77,5-64.53,2.2-12-1.44-24.07-2.75-36.14-2.71-11.83.05-23.55,1.55-35.23,3.26-11.22,1.65-22.49,3.43-33.83,3.9-11.85.5-26.56-7.51-38.28-9.14-15.82-2.2-44.07,2.82-44.07,2.82,12.78,18.59,30,23.28,51.37,21.39s38.15-1.84,58.48,3.29c22.92,5.78,41.68,4.4,64.47-1,19.11-4.51,37.37-4.7,56.14.93,33.37,10,65.2-5.52,72.37-22.45a64.28,64.28,0,0,0-8.06-3.62C696.56,293.05,677.18,295.87,665.62,298.27Z"/><path class="cls-1" d="M552.45,328.19a118.41,118.41,0,0,1-29.34-3.79A142.82,142.82,0,0,0,487.34,320c-6.51,0-13.6.36-22.33,1.14-2.95.26-5.8.39-8.47.39-19.54,0-33.5-7.07-44-22.28a1.15,1.15,0,0,1-.11-1.11,1.12,1.12,0,0,1,.87-.69c.19,0,19.29-3.4,34.78-3.4a72.92,72.92,0,0,1,9.66.56c5,.69,10.32,2.46,16,4.32,7.57,2.5,15.39,5.1,22.09,4.82,10.22-.43,20.55-1.95,30.54-3.43l3.17-.46c10.61-1.56,23-3.22,35.4-3.27h.66c11.94,0,24.15,1.34,35.62,2.71a229.93,229.93,0,0,0,27.46,1.86,174.84,174.84,0,0,0,36.69-4.05A142.69,142.69,0,0,1,693,293.91a48.7,48.7,0,0,1,15.75,2.16,64,64,0,0,1,8.2,3.68,1.17,1.17,0,0,1,.54,1.49c-5.4,12.76-25.47,26.32-52,26.32h0a75.44,75.44,0,0,1-21.74-3.21A98.69,98.69,0,0,0,615,320.13a116,116,0,0,0-26.91,3.32C574.21,326.73,563.21,328.19,552.45,328.19Zm-65.11-10.52a145.13,145.13,0,0,1,36.35,4.47,116.11,116.11,0,0,0,28.76,3.72c10.57,0,21.41-1.45,35.14-4.68A118.35,118.35,0,0,1,615,317.8a100.47,100.47,0,0,1,29.29,4.32,73.27,73.27,0,0,0,21.07,3.1h0c24.86,0,43.72-12.13,49.44-23.9a59,59,0,0,0-6.93-3.05c-3.84-1.35-8.88-2-15-2a140.81,140.81,0,0,0-27.09,3.16,177.4,177.4,0,0,1-37.17,4.1A230.54,230.54,0,0,1,601,301.62c-11.41-1.36-23.54-2.69-35.35-2.69H565c-12.27.05-24.54,1.7-35.08,3.25l-3.16.46c-10.06,1.48-20.45,3-30.78,3.45-7.13.29-15.16-2.37-22.92-4.93-5.55-1.83-10.79-3.56-15.56-4.22a68.22,68.22,0,0,0-9.34-.55c-12.51,0-27.43,2.23-32.55,3.06,9.86,13.47,22.93,19.76,41,19.76,2.61,0,5.39-.13,8.26-.39C473.6,318,480.76,317.67,487.34,317.67Z"/><path class="cls-1" d="M656.82,157.42H473.1a1.16,1.16,0,0,1-.92-.45l-17.89-22.68a1.14,1.14,0,0,1-.26-.72V105a1.1,1.1,0,0,1,.26-.72l17.89-22.68a1.15,1.15,0,0,1,.92-.44H656.82a1.16,1.16,0,0,1,.91.44l17.89,22.68a1.1,1.1,0,0,1,.26.72v28.56a1.14,1.14,0,0,1-.26.72L657.73,157A1.17,1.17,0,0,1,656.82,157.42Zm-183.16-2.33H656.25l17.3-21.92V105.41L656.25,83.5H473.66l-17.29,21.91v27.76Z"/><path class="cls-1" d="M636.31,157.42H493.6a1.18,1.18,0,0,1-1.07-.71L482.69,134a1.06,1.06,0,0,1-.1-.46V105a1.06,1.06,0,0,1,.1-.46l9.84-22.69a1.18,1.18,0,0,1,1.07-.69H636.31a1.17,1.17,0,0,1,1.07.69l9.84,22.69a1.06,1.06,0,0,1,.1.46v28.56a1.06,1.06,0,0,1-.1.46l-9.84,22.68A1.17,1.17,0,0,1,636.31,157.42Zm-141.95-2.33H635.55L645,133.32V105.25L635.55,83.5H494.36l-9.43,21.75v28.07Z"/><path class="cls-1" d="M674.7,134.74H455.2a1.18,1.18,0,0,1-1.17-1.17V105a1.18,1.18,0,0,1,1.17-1.17H674.7a1.18,1.18,0,0,1,1.18,1.17v28.56A1.18,1.18,0,0,1,674.7,134.74ZM456.37,132.4H673.55V106.18H456.37Z"/><path class="cls-1" d="M646.16,134.74H483.76a1.18,1.18,0,0,1-1.17-1.17V105a1.18,1.18,0,0,1,1.17-1.17h162.4a1.18,1.18,0,0,1,1.16,1.17v28.56A1.18,1.18,0,0,1,646.16,134.74ZM484.93,132.4H645V106.18h-160Z"/><path class="cls-1" d="M598.69,176H531.22a1.17,1.17,0,0,1-1.17-1.17V156.25a1.16,1.16,0,0,1,1.17-1.16h67.47a1.16,1.16,0,0,1,1.17,1.16v18.58A1.17,1.17,0,0,1,598.69,176Zm-66.3-2.33h65.13V157.42H532.39Z"/><path class="cls-1" d="M605.17,197H524.74a10.52,10.52,0,0,1-10.51-10.51v-2.33a10.51,10.51,0,0,1,10.51-10.5h80.43a10.52,10.52,0,0,1,10.52,10.5v2.33A10.53,10.53,0,0,1,605.17,197Zm-80.43-21a8.19,8.19,0,0,0-8.18,8.17v2.33a8.18,8.18,0,0,0,8.18,8.16h80.43a8.18,8.18,0,0,0,8.18-8.16v-2.33a8.19,8.19,0,0,0-8.18-8.17Z"/><path class="cls-1" d="M605.17,197H524.74a10.52,10.52,0,0,1-10.51-10.51v-2.33a10.51,10.51,0,0,1,10.51-10.5h80.43a10.52,10.52,0,0,1,10.52,10.5v2.33A10.53,10.53,0,0,1,605.17,197Zm-80.43-21a8.19,8.19,0,0,0-8.18,8.17v2.33a8.18,8.18,0,0,0,8.18,8.16h80.43a8.18,8.18,0,0,0,8.18-8.16v-2.33a8.19,8.19,0,0,0-8.18-8.17Z"/><rect class="cls-1" x="526.3" y="195.84" width="77.31" height="22.67"/><path class="cls-1" d="M603.61,219.68H526.3a1.17,1.17,0,0,1-1.18-1.17V195.84a1.18,1.18,0,0,1,1.18-1.18h77.31a1.17,1.17,0,0,1,1.17,1.18v22.67A1.17,1.17,0,0,1,603.61,219.68Zm-76.15-2.33h75V197h-75Z"/><path class="cls-1" d="M471.48,458.74V340.2H658.42V458.74h2.34V339a1.17,1.17,0,0,0-1.17-1.17H470.32a1.18,1.18,0,0,0-1.17,1.17V458.74Z"/><rect class="cls-1" x="484.06" y="351.62" width="161.79" height="100.71"/><path class="cls-1" d="M645.85,453.49H484.06a1.17,1.17,0,0,1-1.18-1.16V351.62a1.17,1.17,0,0,1,1.18-1.17H645.85a1.17,1.17,0,0,1,1.17,1.17V452.33A1.16,1.16,0,0,1,645.85,453.49Zm-160.63-2.33H644.69V352.78H485.22Z"/><path class="cls-1" d="M634.64,432.2H495.27A1.17,1.17,0,0,1,494.1,431V372.9a1.17,1.17,0,0,1,1.17-1.16H634.64a1.16,1.16,0,0,1,1.17,1.16V431A1.16,1.16,0,0,1,634.64,432.2Zm-138.21-2.33h137v-55.8h-137Z"/><path class="cls-1" d="M533.67,425.39a1.94,1.94,0,0,1-1.94-1.91c0-.33-.64-33.42-.64-39.78a1.95,1.95,0,1,1,3.89,0c0,6.32.64,39.38.65,39.71a2,2,0,0,1-1.91,2Z"/><path class="cls-1" d="M551.64,422.19a2,2,0,0,1-1.74-1.06c-.15-.29-14.8-28.95-18.6-36.55a1.95,1.95,0,1,1,3.48-1.75c2.55,5.1,10,19.66,14.63,28.78l-1-31.05a2,2,0,0,1,3.9-.13l1.28,39.75a2,2,0,0,1-1.94,2Z"/><path class="cls-1" d="M560.93,395.63a1.93,1.93,0,0,1-1.84-1.33,2,2,0,0,1,1.23-2.47c1.47-.48,5.09-.23,6.58-.08a1.94,1.94,0,1,1-.35,3.87,24.72,24.72,0,0,0-5-.09A1.84,1.84,0,0,1,560.93,395.63Z"/><path class="cls-1" d="M564.3,386.94h0a3.33,3.33,0,0,1-2-.68,3.29,3.29,0,0,1-1.32-3.73,3.58,3.58,0,0,1,3.32-2.44,3,3,0,0,1,1.6.46,3.46,3.46,0,0,1,1.31,3.95A3.12,3.12,0,0,1,564.3,386.94Zm0-3.89a.89.89,0,0,0-.79.4,1.48,1.48,0,0,0,.38.41.9.9,0,0,0,.45.13c.28,0,.32-.13.36-.21a.72.72,0,0,0-.1-.69,1.26,1.26,0,0,0-.3,0Z"/><path class="cls-1" d="M585.79,422.91c-4.8,0-8.73-1.68-10.83-4.61-1.27-1.79-2.44-4.89-.81-9.59.92-2.78,4.51-6.2,8.66-10.16l.84-.8c-4.09-4.15-7.26-7.83-5.74-11.62a9.12,9.12,0,0,1,8.61-5.89,10.48,10.48,0,0,1,8.61,4.62c2.46,3.61-1.33,8.31-6,12.94,4,4.09,8.47,9,9.51,14.64a7.22,7.22,0,0,1-1.59,6.1C594.84,421.24,590.52,422.91,585.79,422.91Zm.59-22.4-.89.85c-3.29,3.15-7,6.72-7.65,8.6-.88,2.54-.78,4.57.29,6.07,1.33,1.88,4.2,3,7.66,3s6.83-1.19,8.3-3a3.34,3.34,0,0,0,.77-2.9C594,408.61,590.16,404.34,586.38,400.51Zm.14-16.38a5.19,5.19,0,0,0-5,3.44c-.64,1.58,2.07,4.57,4.91,7.46,5.6-5.65,5.87-7.42,5.49-8A6.56,6.56,0,0,0,586.52,384.13Z"/><path class="cls-1" d="M1395.36,197.83H1232.25a1.16,1.16,0,0,1-1.16-1.17v-130a24.49,24.49,0,0,1,24.47-24.47h116.5a24.49,24.49,0,0,1,24.47,24.47v130A1.17,1.17,0,0,1,1395.36,197.83Zm-161.94-2.34H1394.2V66.63a22.17,22.17,0,0,0-22.14-22.13h-116.5a22.16,22.16,0,0,0-22.14,22.13Z"/><path class="cls-1" d="M1368.89,196.66V162.59a8.15,8.15,0,0,0-8.16-8.15h-93.85a8.15,8.15,0,0,0-8.15,8.15v34.07Z"/><path class="cls-1" d="M1368.89,197.83H1258.73a1.17,1.17,0,0,1-1.17-1.17V162.59a9.33,9.33,0,0,1,9.32-9.32h93.85a9.33,9.33,0,0,1,9.32,9.32v34.07A1.16,1.16,0,0,1,1368.89,197.83Zm-109-2.34h107.82v-32.9a7,7,0,0,0-7-7h-93.85a7,7,0,0,0-7,7Z"/><rect class="cls-1" x="1279.01" y="82.52" width="69.6" height="71.92"/><path class="cls-1" d="M1348.61,155.61H1279a1.17,1.17,0,0,1-1.17-1.17V82.52a1.17,1.17,0,0,1,1.17-1.17h69.6a1.16,1.16,0,0,1,1.16,1.17v71.92A1.16,1.16,0,0,1,1348.61,155.61Zm-68.43-2.34h67.25V83.69h-67.25Z"/><path class="cls-1" d="M1313.81,119.45a13.5,13.5,0,1,1,13.5-13.5A13.51,13.51,0,0,1,1313.81,119.45Zm0-24.66A11.17,11.17,0,1,0,1325,106,11.17,11.17,0,0,0,1313.81,94.79Z"/><path class="cls-1" d="M1317.61,106a3.81,3.81,0,1,1-3.8-3.81A3.8,3.8,0,0,1,1317.61,106Z"/><path class="cls-1" d="M1313.81,110.93a5,5,0,1,1,5-5A5,5,0,0,1,1313.81,110.93Zm0-7.62a2.64,2.64,0,1,0,2.64,2.64A2.64,2.64,0,0,0,1313.81,103.31Z"/><path class="cls-1" d="M1404.1,228.09v-21.4a10,10,0,0,0-10-10H1233.55a10,10,0,0,0-10,10v21.4Z"/><path class="cls-1" d="M1404.1,229.26H1223.52a1.17,1.17,0,0,1-1.17-1.17v-21.4a11.21,11.21,0,0,1,11.2-11.2h160.52a11.21,11.21,0,0,1,11.19,11.2v21.4A1.17,1.17,0,0,1,1404.1,229.26Zm-179.41-2.33h178.24V206.69a8.87,8.87,0,0,0-8.86-8.86H1233.55a8.86,8.86,0,0,0-8.86,8.86Z"/><path class="cls-1" d="M1224.69,458.74V229.26h178.24V458.74h2.33V228.09a1.15,1.15,0,0,0-1.16-1.16H1223.52a1.16,1.16,0,0,0-1.17,1.16V458.74Z"/><rect class="cls-1" x="1229.28" y="228.09" width="169.06" height="230.65"/><path class="cls-1" d="M1230.44,458.74V229.26h166.73V458.74h2.34V228.09a1.16,1.16,0,0,0-1.17-1.16H1229.28a1.16,1.16,0,0,0-1.17,1.16V458.74Z"/><path class="cls-1" d="M908.54,458.74c9.33-90.12,19.17-185.11,19.17-185.11L785.87,258.94s-10.93,105.54-20.7,199.8Z"/><path class="cls-1" d="M766.35,458.74l20.56-198.52,139.51,14.46L907.36,458.74h2.34l19.17-185a1.17,1.17,0,0,0-1-1.28L786,257.79a1.15,1.15,0,0,0-1.28,1L764,458.74Z"/><path class="cls-1" d="M759.18,458.74,779.1,266.39a7,7,0,0,1,7.62-6.19l139.9,14.49a7,7,0,0,1,6.19,7.62L914.53,458.74h2.35l18.25-176.19a9.28,9.28,0,0,0-8.27-10.18L787,257.88a9.29,9.29,0,0,0-10.18,8.27L756.84,458.74Z"/><path class="cls-1" d="M907.19,236.28l4.27-41.16a7,7,0,0,0-6.22-7.63l-79.73-8.26a7,7,0,0,0-7.64,6.2l-4.26,41.16Z"/><path class="cls-1" d="M907.06,237.44l-93.57-9.69a1.17,1.17,0,0,1-1-1.27l4.26-41.16a8.15,8.15,0,0,1,8.92-7.25l79.74,8.26a8.13,8.13,0,0,1,7.25,8.92l-4.26,41.15A1.16,1.16,0,0,1,907.06,237.44Zm-92.18-11.89L906.14,235l4.15-40a5.79,5.79,0,0,0-5.17-6.35l-79.73-8.26a5.8,5.8,0,0,0-6.36,5.17Z"/><polygon class="cls-1" points="902.01 187.16 828.74 179.57 834.88 120.29 908.15 127.88 902.01 187.16"/><path class="cls-1" d="M901.89,188.31l-73.27-7.59a1.15,1.15,0,0,1-1-1.27l6.15-59.27a1.15,1.15,0,0,1,1.27-1.05l73.27,7.59a1.16,1.16,0,0,1,1,1.28l-6.14,59.28A1.15,1.15,0,0,1,901.89,188.31ZM830,178.53l71,7.35,5.9-57-71-7.35Z"/><path class="cls-1" d="M916.17,262.71,918.11,244a6.51,6.51,0,0,0-5.8-7.16L808.49,226.06a6.53,6.53,0,0,0-7.16,5.81l-1.94,18.75Z"/><path class="cls-1" d="M916.06,263.87,799.28,251.78a1.15,1.15,0,0,1-1-1.28l1.94-18.75a7.69,7.69,0,0,1,8.43-6.85l103.82,10.75a7.7,7.7,0,0,1,6.85,8.44l-1.94,18.75A1.16,1.16,0,0,1,916.06,263.87ZM800.67,249.58l114.47,11.85L917,243.85a5.36,5.36,0,0,0-4.78-5.88L808.37,227.22A5.35,5.35,0,0,0,802.5,232Z"/><path class="cls-1" d="M911.8,273.16,801.23,261.71a1.19,1.19,0,0,1-1-1.29l1-9.62a1.15,1.15,0,0,1,1.28-1L913,261.22a1.16,1.16,0,0,1,1,1.28l-1,9.62A1.17,1.17,0,0,1,911.8,273.16ZM802.64,259.51l108.24,11.21.75-7.3L803.4,252.2Z"/><polygon class="cls-1" points="904.85 271.26 808.44 261.28 809.07 255.1 905.48 265.08 904.85 271.26"/><path class="cls-1" d="M904.72,272.42l-96.4-10a1.17,1.17,0,0,1-1.05-1.28l.64-6.19a1.16,1.16,0,0,1,1.29-1l96.4,10a1.16,1.16,0,0,1,1,1.28l-.64,6.18A1.17,1.17,0,0,1,904.72,272.42Zm-95-12.18L903.8,270l.4-3.86-94.08-9.74Z"/><path class="cls-1" d="M833.46,135.08c-.37,3.68-2.47,6.49-4.66,6.26s-3.67-3.4-3.29-7.09,2.47-6.49,4.67-6.27S833.85,131.39,833.46,135.08Z"/><path class="cls-1" d="M828.68,142.5c-2.89-.3-4.78-4-4.32-8.37s3.06-7.6,5.93-7.3,4.79,4,4.34,8.37S831.56,142.8,828.68,142.5Zm1.38-13.35c-1.33-.14-3,2-3.39,5.22s.92,5.67,2.25,5.81,3-2,3.39-5.23S831.39,129.29,830.06,129.15Z"/><path class="cls-1" d="M846.59,129.69,830.18,128c2.2.24,3.67,3.41,3.28,7.1s-2.47,6.49-4.66,6.26l16.41,1.7c2.19.23,4.28-2.58,4.67-6.27S848.78,129.91,846.59,129.69Z"/><path class="cls-1" d="M845.09,144.2l-16.41-1.7a1.17,1.17,0,1,1,.24-2.32c1.33.14,3-2,3.39-5.23s-.92-5.66-2.25-5.8a1.17,1.17,0,0,1,.23-2.32l16.42,1.7c2.88.29,4.78,4,4.32,8.37S848,144.49,845.09,144.2Zm-12.49-3.64,12.73,1.31c1.33.15,3-2,3.38-5.22s-.91-5.66-2.24-5.8l-12.72-1.32a11.24,11.24,0,0,1-1.15,11Z"/><path class="cls-1" d="M829,139.57c-1.89-.2-3.17-2.51-2.88-5.26s2-4.74,3.9-4.54,3.16,2.5,2.89,5.25S830.88,139.76,829,139.57Zm.78-7.49c-.38,0-1.17.9-1.34,2.47s.43,2.66.8,2.69,1.18-.89,1.34-2.47S830.12,132.12,829.76,132.08Z"/></g></g></svg>